<svg xmlns="http://www.w3.org/2000/svg" fill="none" viewBox="0 0 375 211" height="211" width="375">
<g clip-path="url(#clip0_875_480)">
<g clip-path="url(#clip1_875_480)">
<path fill="url(#paint0_linear_875_480)" d="M375.678 0H0.322266V210.199H375.678V0Z"></path>
<g clip-path="url(#clip2_875_480)">
<path fill="url(#paint1_linear_875_480)" d="M390.066 142.948H-13.4407V219.27H390.066V142.948Z" opacity="0.8"></path>
<path fill="url(#paint2_linear_875_480)" d="M89.7058 29.627H84.379C81.9499 24.8391 77.5719 21.2127 72.2884 19.7873C69.8947 13.6371 63.9222 9.27832 56.93 9.27832C50.0245 9.27832 44.1111 13.5308 41.6622 19.555C40.4181 19.2991 39.1307 19.1692 37.8118 19.1692C27.2527 19.1692 18.6936 27.7292 18.6936 38.2894C18.6936 48.8496 27.2527 57.4096 37.8118 57.4096C38.3354 57.4096 38.8512 57.382 39.3669 57.3426C41.2174 59.3507 43.867 60.6107 46.8119 60.6107C51.1702 60.6107 54.8828 57.8545 56.308 53.9919C59.4182 56.1732 63.2017 57.4568 67.2884 57.4568C72.9459 57.4568 78.0286 55.0038 81.5365 51.1057H89.7058C95.635 51.1057 100.438 46.2981 100.438 40.3723C100.438 34.4346 95.635 29.627 89.7058 29.627Z" opacity="0.7"></path>
<path fill="#FFC4A5" d="M240.081 147.64C261.934 147.64 279.649 129.924 279.649 108.071C279.649 86.218 261.934 68.5024 240.081 68.5024C218.227 68.5024 200.512 86.218 200.512 108.071C200.512 129.924 218.227 147.64 240.081 147.64Z"></path>
<path fill="#023C4F" d="M179.872 62.7689C178.864 63.0406 185.147 55.5161 192.395 62.7689C192.395 62.7689 197.01 57.8235 202.612 62.7689C202.612 62.7689 192.395 63.4265 191.242 68.3719C191.242 68.3719 188.443 60.4616 179.872 62.7689Z"></path>
<path fill="#023C4F" d="M219.573 81.298C220.022 81.4201 217.214 78.0536 213.97 81.298C213.97 81.298 211.907 79.0852 209.399 81.298C209.399 81.298 213.97 81.5934 214.486 83.8023C214.49 83.8062 215.742 80.2664 219.573 81.298Z" opacity="0.5"></path>
<path fill="#467382" d="M322.904 120.877L326.25 120.846C326.467 120.842 326.644 121.015 326.644 121.232L326.672 123.964C326.676 124.519 326.231 124.972 325.676 124.976L323.557 124.996C323.002 125 322.55 124.555 322.546 124L322.518 121.267C322.514 121.054 322.687 120.877 322.904 120.877Z"></path>
<path fill="#467382" d="M313.616 119.019L316.837 119.933C317.046 119.992 317.164 120.208 317.105 120.413L316.361 123.043C316.211 123.579 315.656 123.886 315.12 123.736L313.081 123.157C312.546 123.008 312.239 122.453 312.388 121.917L313.132 119.287C313.195 119.078 313.408 118.96 313.616 119.019Z"></path>
<path fill="#467382" d="M305.231 114.617L308.061 116.4C308.242 116.515 308.298 116.755 308.183 116.94L306.727 119.251C306.431 119.72 305.809 119.861 305.341 119.566L303.55 118.436C303.081 118.141 302.939 117.519 303.235 117.05L304.691 114.739C304.805 114.558 305.05 114.502 305.231 114.617Z"></path>
<path fill="#467382" d="M298.424 108.03L300.64 110.538C300.782 110.699 300.766 110.947 300.605 111.089L298.557 112.896C298.14 113.262 297.506 113.223 297.14 112.81L295.738 111.223C295.372 110.805 295.412 110.172 295.825 109.805L297.872 107.998C298.034 107.852 298.282 107.868 298.424 108.03Z"></path>
<path fill="#467382" d="M293.746 99.7923L295.164 102.824C295.254 103.021 295.172 103.253 294.975 103.344L292.502 104.502C291.998 104.738 291.404 104.521 291.168 104.017L290.27 102.1C290.034 101.596 290.25 101.001 290.754 100.765L293.227 99.6073C293.423 99.5128 293.656 99.5994 293.746 99.7923Z"></path>
<path fill="#467382" d="M291.581 90.5708L292.089 93.8783C292.12 94.0909 291.975 94.2917 291.762 94.3232L289.061 94.7366C288.514 94.8193 288.002 94.4453 287.916 93.898L287.593 91.8032C287.51 91.2559 287.884 90.7441 288.431 90.6575L291.132 90.244C291.349 90.2125 291.549 90.3582 291.581 90.5708Z"></path>
<path fill="#467382" d="M292.101 81.1133L291.656 84.4286C291.628 84.6412 291.431 84.7909 291.219 84.7633L288.51 84.4011C287.959 84.3262 287.573 83.8223 287.648 83.271L287.927 81.1724C288.002 80.6211 288.506 80.2352 289.057 80.3101L291.766 80.6723C291.979 80.7038 292.128 80.9007 292.101 81.1133Z"></path>
<path fill="#467382" d="M295.262 72.187L293.9 75.2424C293.813 75.4393 293.581 75.5259 293.384 75.4393L290.888 74.3289C290.38 74.1045 290.152 73.5099 290.38 73.002L291.242 71.0687C291.467 70.5608 292.061 70.3324 292.569 70.5608L295.065 71.6712C295.262 71.7578 295.353 71.9901 295.262 72.187Z"></path>
<path fill="#467382" d="M300.813 64.5089L298.648 67.0603C298.51 67.2257 298.262 67.2454 298.097 67.1036L296.014 65.3357C295.593 64.9774 295.542 64.3435 295.9 63.9183L297.27 62.3039C297.628 61.8826 298.262 61.8314 298.687 62.1897L300.77 63.9576C300.931 64.0994 300.951 64.3474 300.813 64.5089Z"></path>
<path fill="#467382" d="M308.302 58.709L305.502 60.5439C305.321 60.662 305.081 60.6108 304.963 60.4336L303.463 58.1499C303.16 57.6853 303.29 57.0632 303.75 56.76L305.522 55.5984C305.987 55.2952 306.609 55.4252 306.912 55.8859L308.412 58.1696C308.53 58.3507 308.479 58.5909 308.302 58.709Z"></path>
<path fill="#467382" d="M317.117 55.2523L313.916 56.2248C313.711 56.2878 313.491 56.1697 313.428 55.965L312.632 53.3505C312.471 52.819 312.77 52.2598 313.302 52.0984L315.329 51.4842C315.861 51.3227 316.42 51.622 316.581 52.1535L317.376 54.768C317.439 54.9727 317.325 55.1893 317.117 55.2523Z"></path>
<path fill="#467382" d="M326.554 54.4213L323.207 54.4528C322.991 54.4568 322.813 54.2835 322.813 54.0669L322.786 51.3344C322.782 50.7792 323.227 50.3264 323.782 50.3224L325.9 50.3028C326.455 50.2988 326.908 50.7438 326.912 51.2989L326.939 54.0315C326.939 54.2441 326.766 54.4174 326.554 54.4213Z"></path>
<path fill="#467382" d="M335.837 56.2798L332.617 55.3663C332.408 55.3072 332.29 55.0907 332.349 54.8859L333.093 52.2557C333.243 51.7202 333.798 51.4131 334.333 51.5627L336.373 52.1415C336.908 52.2912 337.215 52.8463 337.065 53.3818L336.321 56.012C336.262 56.2207 336.046 56.3389 335.837 56.2798Z"></path>
<path fill="#467382" d="M344.223 60.6817L341.392 58.898C341.211 58.7838 341.156 58.5436 341.27 58.3586L342.727 56.0473C343.022 55.5788 343.644 55.437 344.113 55.7323L345.904 56.8624C346.373 57.1577 346.514 57.7798 346.219 58.2483L344.762 60.5596C344.648 60.7407 344.408 60.7959 344.223 60.6817Z"></path>
<path fill="#467382" d="M351.03 67.269L348.814 64.7608C348.672 64.5994 348.688 64.3513 348.849 64.2096L350.896 62.4023C351.314 62.0361 351.947 62.0755 352.314 62.4889L353.715 64.0757C354.081 64.4931 354.042 65.127 353.629 65.4932L351.581 67.3005C351.42 67.4462 351.176 67.4304 351.03 67.269Z"></path>
<path fill="#467382" d="M355.707 75.5064L354.29 72.4746C354.199 72.2777 354.282 72.0454 354.479 71.9549L356.951 70.7973C357.455 70.561 358.05 70.7776 358.286 71.2816L359.184 73.1991C359.42 73.7031 359.203 74.2976 358.699 74.5339L356.227 75.6915C356.03 75.786 355.798 75.6994 355.707 75.5064Z"></path>
<path fill="#467382" d="M357.873 84.7236L357.365 81.4162C357.333 81.2036 357.479 81.0028 357.692 80.9713L360.392 80.5578C360.94 80.4751 361.451 80.8492 361.538 81.3965L361.861 83.4912C361.944 84.0385 361.57 84.5504 361.022 84.637L358.321 85.0504C358.105 85.0859 357.904 84.9402 357.873 84.7236Z"></path>
<path fill="#467382" d="M357.353 94.1816L357.798 90.8663C357.825 90.6536 358.022 90.504 358.235 90.5316L360.944 90.8938C361.495 90.9686 361.881 91.4726 361.806 92.0239L361.526 94.1225C361.451 94.6738 360.947 95.0597 360.396 94.9848L357.688 94.6226C357.475 94.595 357.325 94.3982 357.353 94.1816Z"></path>
<path fill="#467382" d="M354.192 103.112L355.554 100.056C355.64 99.8592 355.873 99.7726 356.07 99.8592L358.566 100.97C359.073 101.194 359.302 101.789 359.073 102.297L358.211 104.23C357.987 104.738 357.392 104.966 356.884 104.738L354.388 103.627C354.192 103.541 354.105 103.308 354.192 103.112Z"></path>
<path fill="#467382" d="M348.644 110.786L350.81 108.234C350.947 108.069 351.195 108.049 351.361 108.191L353.443 109.959C353.865 110.317 353.916 110.951 353.558 111.376L352.188 112.991C351.829 113.412 351.195 113.463 350.77 113.105L348.688 111.337C348.522 111.199 348.502 110.951 348.644 110.786Z"></path>
<path fill="#467382" d="M341.156 116.59L343.955 114.755C344.136 114.637 344.376 114.688 344.495 114.865L345.995 117.149C346.298 117.613 346.168 118.235 345.707 118.539L343.936 119.7C343.471 120.003 342.849 119.873 342.546 119.413L341.046 117.129C340.924 116.948 340.975 116.708 341.156 116.59Z"></path>
<path fill="#467382" d="M332.337 120.047L335.538 119.074C335.743 119.011 335.963 119.129 336.026 119.334L336.821 121.948C336.983 122.48 336.684 123.039 336.152 123.201L334.125 123.815C333.593 123.976 333.034 123.677 332.873 123.145L332.077 120.531C332.014 120.326 332.132 120.11 332.337 120.047Z"></path>
<path fill="#467382" d="M324.727 52.728C305.475 52.728 289.809 68.3951 289.809 87.6492C289.809 106.903 305.475 122.57 324.727 122.57C343.979 122.57 359.644 106.903 359.644 87.6492C359.644 68.3951 343.983 52.728 324.727 52.728ZM351.148 87.6492C351.148 91.0866 350.483 94.3665 349.282 97.3825L341.636 94.016C342.384 92.0355 342.798 89.8896 342.798 87.6492C342.798 87.6255 342.798 87.6019 342.798 87.5822H351.148C351.144 87.6019 351.148 87.6255 351.148 87.6492ZM298.309 87.5783H306.66C306.66 87.6019 306.66 87.6256 306.66 87.6452C306.66 89.7006 307.01 91.6772 307.644 93.5199L299.857 96.5478C298.857 93.764 298.309 90.7676 298.309 87.6452C298.309 87.6256 298.309 87.6019 298.309 87.5783ZM300.624 76.8527L308.266 80.2153C307.353 82.2313 306.794 84.4441 306.683 86.7711H298.333C298.447 83.2471 299.254 79.9003 300.624 76.8527ZM296.715 86.7711H291.451C291.569 82.2628 292.585 77.9749 294.329 74.0808L299.144 76.1991C297.687 79.4475 296.829 83.0148 296.715 86.7711ZM306.187 68.8479L312.089 74.7501C310.687 76.1243 309.514 77.719 308.617 79.4829L300.963 76.1164C302.286 73.4035 304.061 70.9466 306.187 68.8479ZM341.18 87.6492C341.18 89.6573 340.802 91.5748 340.136 93.3585L331.951 89.7557C332.148 89.0863 332.258 88.3815 332.258 87.6492C332.258 87.6255 332.254 87.6019 332.254 87.5822H341.18C341.176 87.6019 341.18 87.6255 341.18 87.6492ZM308.278 87.6492C308.278 87.6255 308.282 87.6019 308.282 87.5822H317.207C317.207 87.6059 317.203 87.6295 317.203 87.6492C317.203 88.3579 317.309 89.043 317.495 89.6966L309.168 92.9332C308.597 91.2716 308.278 89.4998 308.278 87.6492ZM313.235 75.8959L319.542 82.2037C319.061 82.6604 318.648 83.1802 318.302 83.7472L310.105 80.1405C310.92 78.5616 311.975 77.1283 313.235 75.8959ZM337.144 74.5414C335.778 73.246 334.211 72.1593 332.495 71.3364L335.857 63.6938C338.526 64.938 340.951 66.6154 343.046 68.6392L337.144 74.5414ZM330.636 87.6492C330.636 88.1492 330.565 88.6296 330.451 89.0942L327.01 87.5783H330.636C330.636 87.6019 330.636 87.6255 330.636 87.6492ZM318.817 87.6492C318.817 87.6255 318.821 87.6019 318.821 87.5822H322.813C322.813 87.598 322.81 87.6137 322.81 87.6295L319.006 89.11C318.888 88.6375 318.817 88.1532 318.817 87.6492ZM320.687 83.3495L323.274 85.9364L319.794 84.4047C320.05 84.0189 320.349 83.6645 320.687 83.3495ZM325.491 85.2513V81.7942C325.967 81.8572 326.424 81.9753 326.861 82.1407L325.491 85.2513ZM327.593 82.4833C327.932 82.6723 328.25 82.8928 328.546 83.1447L326.325 85.3655L327.593 82.4833ZM325.491 80.1602V71.234C327.471 71.3246 329.369 71.7498 331.109 72.4822L327.51 80.6563C326.873 80.4043 326.195 80.231 325.491 80.1602ZM324.68 85.019L323.459 81.8769C323.853 81.7903 324.262 81.743 324.68 81.7391V85.019ZM324.01 85.5308L321.313 82.8337C321.731 82.5344 322.191 82.2943 322.68 82.1131L324.01 85.5308ZM323.054 86.7239C323.046 86.7396 323.038 86.7554 323.03 86.7711H318.892C318.979 86.1844 319.152 85.6293 319.4 85.1135L323.054 86.7239ZM322.979 88.4288C323.006 88.4918 323.042 88.5508 323.077 88.6099L320.223 91.4646C319.821 90.9921 319.495 90.4566 319.258 89.8738L322.979 88.4288ZM323.621 89.2123C323.652 89.236 323.687 89.2557 323.719 89.2753L322.109 92.9372C321.628 92.697 321.187 92.3977 320.79 92.0434L323.621 89.2123ZM324.483 89.5431C324.546 89.551 324.613 89.5628 324.68 89.5628V93.5553C324.042 93.5514 323.428 93.4412 322.853 93.2482L324.483 89.5431ZM325.491 89.4092C325.499 89.4053 325.506 89.3974 325.514 89.3935L326.959 93.1143C326.495 93.3033 326.002 93.4333 325.487 93.5002V89.4092H325.491ZM326.184 88.8855C326.191 88.8777 326.195 88.8698 326.203 88.8619L329.03 91.689C328.636 92.1064 328.188 92.4647 327.691 92.7521L326.184 88.8855ZM326.896 88.413L330.203 89.8699C330.03 90.2951 329.81 90.6928 329.546 91.0629L326.896 88.413ZM327.239 86.7711L330.262 85.5978C330.404 85.9718 330.502 86.3656 330.565 86.7711H327.239ZM326.731 86.1018L329.121 83.7117C329.432 84.0582 329.707 84.4402 329.932 84.8575L326.731 86.1018ZM329.688 81.999C329.247 81.6131 328.766 81.2745 328.247 80.9949L331.837 72.8326C333.369 73.5728 334.77 74.5375 335.995 75.6912L329.688 81.999ZM331.758 71.0017C329.817 70.1788 327.703 69.6905 325.491 69.596V61.2447C328.9 61.3431 332.152 62.0834 335.125 63.3591L331.758 71.0017ZM324.68 69.5803C322.707 69.5842 320.813 69.911 319.034 70.5016L316.006 62.7134C318.723 61.7605 321.64 61.2329 324.68 61.229V69.5803ZM324.68 71.1986V80.1247C324.054 80.1287 323.451 80.2153 322.869 80.3649L319.624 72.0175C321.219 71.4939 322.916 71.2025 324.68 71.1986ZM322.097 80.6051C321.396 80.8689 320.747 81.2312 320.16 81.68L313.833 75.3526C315.302 74.0493 316.998 73.0098 318.865 72.2932L322.097 80.6051ZM317.916 84.4638C317.581 85.1804 317.349 85.9561 317.254 86.7711H308.317C308.428 84.6764 308.924 82.688 309.75 80.8689L317.916 84.4638ZM317.75 90.4605C318.069 91.2519 318.522 91.9764 319.081 92.6064L312.774 98.9142C311.357 97.4101 310.219 95.6422 309.443 93.6892L317.75 90.4605ZM319.648 93.1852C320.187 93.6774 320.794 94.0948 321.459 94.4176L317.869 102.58C316.187 101.804 314.66 100.761 313.345 99.493L319.648 93.1852ZM322.203 94.7326C322.979 95.0122 323.813 95.1697 324.68 95.1736V104.1C322.534 104.092 320.487 103.667 318.605 102.907L322.203 94.7326ZM325.491 95.1382C326.211 95.0673 326.9 94.8862 327.55 94.6224L330.782 102.934C329.132 103.592 327.353 103.978 325.495 104.064V95.1382H325.491ZM328.282 94.2838C328.987 93.9018 329.625 93.4136 330.172 92.8348L336.479 99.1426C335.065 100.588 333.384 101.769 331.522 102.615L328.282 94.2838ZM330.695 92.2166C331.093 91.7008 331.428 91.1338 331.68 90.5196L339.849 94.1144C339.148 95.7445 338.184 97.2329 337.022 98.5401L330.695 92.2166ZM332.199 86.7711C332.128 86.1569 331.979 85.5702 331.77 85.0111L340.077 81.7785C340.676 83.3416 341.042 85.019 341.132 86.7711H332.199ZM331.443 84.2669C331.128 83.6448 330.731 83.0739 330.262 82.5659L336.569 76.2582C337.9 77.6402 338.991 79.2506 339.774 81.0264L331.443 84.2669ZM337.719 75.1084L343.621 69.2062C345.916 71.5608 347.782 74.3328 349.081 77.4079L341.29 80.4358C340.424 78.4513 339.207 76.6519 337.719 75.1084ZM344.192 67.4974C341.955 65.3357 339.365 63.5442 336.51 62.2173L338.628 57.4018C342.081 58.9964 345.215 61.162 347.912 63.7804L344.192 67.4974ZM335.774 61.8826C332.605 60.5163 329.132 59.7288 325.491 59.6304V54.366C329.884 54.4644 334.073 55.4134 337.892 57.0671L335.774 61.8826ZM324.68 59.6107C321.435 59.6146 318.321 60.1816 315.42 61.2053L313.51 56.2953C317.002 55.0432 320.762 54.3542 324.68 54.3463V59.6107ZM314.664 61.4849C311.29 62.7882 308.231 64.7215 305.632 67.1469L301.912 63.4261C305.026 60.4927 308.699 58.1499 312.758 56.5788L314.664 61.4849ZM315.246 62.9929L318.27 70.7733C316.195 71.5687 314.302 72.7381 312.676 74.1949L306.77 68.2888C309.215 66.0248 312.085 64.2135 315.246 62.9929ZM307.924 94.2838C308.782 96.4493 310.046 98.4063 311.62 100.072L305.719 105.974C303.333 103.497 301.428 100.564 300.144 97.3116L307.924 94.2838ZM312.191 100.643C313.652 102.052 315.345 103.214 317.207 104.072L313.845 111.715C311.03 110.435 308.475 108.679 306.29 106.545L312.191 100.643ZM317.951 104.395C320.03 105.242 322.302 105.71 324.68 105.718V114.069C321.105 114.062 317.695 113.341 314.585 112.042L317.951 104.395ZM325.491 105.698C327.558 105.612 329.534 105.175 331.369 104.446L334.392 112.227C331.621 113.321 328.625 113.955 325.491 114.046V105.698ZM332.113 104.135C334.188 103.202 336.054 101.891 337.625 100.288L343.526 106.191C341.144 108.604 338.302 110.565 335.144 111.927L332.113 104.135ZM338.18 99.6977C339.483 98.2448 340.554 96.5832 341.333 94.7681L348.975 98.1306C347.774 100.899 346.113 103.423 344.085 105.604L338.18 99.6977ZM342.774 86.7711C342.68 84.8142 342.27 82.9361 341.597 81.1878L349.377 78.1599C350.416 80.8492 351.022 83.7432 351.121 86.7672H342.774V86.7711ZM350.884 77.5772L355.79 75.6715C357.129 79.1325 357.904 82.8691 358.007 86.7751H352.743C352.64 83.5385 351.995 80.4437 350.884 77.5772ZM355.491 74.9155L350.585 76.8212C349.207 73.5374 347.215 70.5725 344.762 68.0604L348.483 64.3395C351.451 67.3674 353.845 70.9466 355.491 74.9155ZM301.325 63.9852L305.046 67.706C302.778 69.9464 300.884 72.5648 299.483 75.4667L294.664 73.3484C296.333 69.8441 298.597 66.6823 301.325 63.9852ZM291.427 87.6492C291.427 87.3657 291.443 87.0901 291.447 86.8066V87.5783H296.691C296.691 87.6019 296.691 87.6256 296.691 87.6452C296.691 90.9763 297.278 94.1696 298.349 97.1345L293.589 98.9851L293.884 99.7371L298.64 97.8865C300.002 101.348 302.034 104.474 304.577 107.104L301.014 110.667L301.585 111.238L305.144 107.679C307.471 109.955 310.191 111.825 313.191 113.187L311.164 117.794L311.904 118.121L313.932 113.518C317.243 114.904 320.872 115.676 324.68 115.68V120.806H325.487V115.66C328.829 115.57 332.022 114.896 334.975 113.731L336.88 118.637C333.113 120.121 329.014 120.944 324.723 120.944C306.365 120.952 291.427 106.013 291.427 87.6492ZM337.636 118.345L335.727 113.435C339.097 111.99 342.129 109.908 344.668 107.332L348.388 111.053C345.337 114.14 341.691 116.633 337.636 118.345ZM348.947 110.467L345.227 106.746C347.392 104.423 349.172 101.733 350.451 98.7803L355.266 100.899C353.723 104.454 351.57 107.687 348.947 110.467ZM355.581 100.154L350.762 98.0322C352.05 94.8193 352.762 91.3149 352.762 87.6492C352.762 87.6255 352.762 87.6019 352.762 87.5822H358.026C358.026 87.6059 358.026 87.6295 358.026 87.6492C358.026 92.0709 357.152 96.2919 355.581 100.154Z"></path>
<path fill="#023C4F" d="M352.979 109.487V108.656C352.979 107.081 351.483 105.805 349.636 105.805C347.79 105.805 346.294 107.081 346.294 108.656V110.668L340.695 111.656V113.452H337.896V111.321C337.896 109.715 336.369 108.408 334.483 108.408H332.038C330.152 108.408 328.624 109.711 328.624 111.321V113.452H317.746V112.388V110.739V101.34H316.861C315.498 101.34 314.392 102.285 314.392 103.447V105.155C313.144 104.388 311.632 103.919 309.994 103.864V97.2608H311.802V94.3746H308.392V91.079C308.392 90.3703 307.719 89.7954 306.888 89.7954H305.813C304.983 89.7954 304.309 90.3703 304.309 91.079V94.3746H300.723V97.2608H302.53V103.958C301.294 104.139 300.156 104.557 299.175 105.159V103.45C299.175 102.285 298.069 101.344 296.707 101.344H295.821V110.743V112.392V113.455H284.715V111.325C284.715 109.719 283.187 108.412 281.301 108.412H278.856C276.971 108.412 275.443 109.715 275.443 111.325V113.455H270.719V111.66L265.12 110.672V108.66C265.12 107.085 263.624 105.809 261.778 105.809C259.931 105.809 258.435 107.085 258.435 108.66V109.49L255.557 108.983V113.452V115.574V150.184H355.845V115.574V113.452V108.983L352.979 109.487Z"></path>
<path fill="#023C4F" d="M403.582 140.399H387.223V121.621H380.121V88.5233H380.144L380.869 86.2278H380.117H375.274V78.3687H375.286L375.648 76.8055H375.274H373.963V70.1001C373.963 68.4267 372.782 67.0289 371.211 66.6863V64.9223C371.211 64.5522 370.936 64.2608 370.585 64.2018V62.5835H370.353V64.2018C369.999 64.2608 369.727 64.5522 369.727 64.9223V66.6863C368.156 67.0289 366.975 68.4227 366.975 70.1001V76.8055H365.664H365.29L365.652 78.3687H365.664V86.2278H360.822H360.07L360.794 88.5233H360.818V121.621H353.715V149.723H365.286H387.219H412.897C412.901 144.573 408.727 140.399 403.582 140.399ZM363.597 138.576H360.825V136.316C360.825 135.552 361.448 134.93 362.211 134.93C362.975 134.93 363.597 135.552 363.597 136.316V138.576ZM363.597 132.158H360.825V128.543C360.825 127.78 361.448 127.157 362.211 127.157C362.975 127.157 363.597 127.78 363.597 128.543V132.158ZM371.857 140.399H369.085V135.993C369.085 135.229 369.707 134.607 370.471 134.607C371.235 134.607 371.857 135.229 371.857 135.993V140.399ZM371.857 132.158H369.085V127.752C369.085 126.988 369.707 126.366 370.471 126.366C371.235 126.366 371.857 126.988 371.857 127.752V132.158ZM370.471 99.0599C370.881 99.0599 371.211 99.3907 371.211 99.8002V103.923H369.727V99.8002C369.731 99.3907 370.062 99.0599 370.471 99.0599ZM369.731 83.7945V82.1053C369.731 81.6958 370.062 81.3651 370.471 81.3651C370.881 81.3651 371.211 81.6958 371.211 82.1053V83.7945H369.731ZM370.471 116.219C370.881 116.219 371.211 116.55 371.211 116.96V121.082H369.727V116.96C369.731 116.55 370.062 116.219 370.471 116.219ZM372.853 72.7815H368.05V69.6079H372.853V72.7815ZM380.121 138.576H377.349V136.316C377.349 135.552 377.971 134.93 378.735 134.93C379.499 134.93 380.121 135.552 380.121 136.316V138.576ZM380.121 132.158H377.349V128.543C377.349 127.78 377.971 127.157 378.735 127.157C379.499 127.157 380.121 127.78 380.121 128.543V132.158Z"></path>
<path fill="#023C4F" d="M370.452 72.3208C371.013 72.3208 371.467 71.866 371.467 71.3049C371.467 70.7439 371.013 70.2891 370.452 70.2891C369.891 70.2891 369.436 70.7439 369.436 71.3049C369.436 71.866 369.891 72.3208 370.452 72.3208Z"></path>
<path fill="#023C4F" d="M255.569 142.651H176.037V132.249H255.569V142.651ZM177.143 141.545H254.459V133.355H177.143V141.545Z"></path>
<path fill="#023C4F" d="M180.388 132.403L179.605 133.185L188.536 142.117L189.318 141.334L180.388 132.403Z"></path>
<path fill="#023C4F" d="M188.535 132.41L179.604 141.342L180.386 142.124L189.317 133.193L188.535 132.41Z"></path>
<path fill="#023C4F" d="M190.941 132.407L190.159 133.189L199.09 142.121L199.872 141.339L190.941 132.407Z"></path>
<path fill="#023C4F" d="M199.09 132.41L190.159 141.342L190.941 142.124L199.872 133.193L199.09 132.41Z"></path>
<path fill="#023C4F" d="M201.495 132.405L200.712 133.187L209.643 142.119L210.425 141.336L201.495 132.405Z"></path>
<path fill="#023C4F" d="M209.645 132.41L200.714 141.341L201.496 142.124L210.427 133.192L209.645 132.41Z"></path>
<path fill="#023C4F" d="M212.049 132.404L211.267 133.187L220.198 142.118L220.98 141.336L212.049 132.404Z"></path>
<path fill="#023C4F" d="M220.2 132.41L211.269 141.341L212.051 142.124L220.982 133.192L220.2 132.41Z"></path>
<path fill="#023C4F" d="M222.603 132.409L221.821 133.191L230.752 142.123L231.534 141.341L222.603 132.409Z"></path>
<path fill="#023C4F" d="M230.754 132.409L221.824 141.341L222.606 142.123L231.537 133.192L230.754 132.409Z"></path>
<path fill="#023C4F" d="M233.159 132.403L232.376 133.186L241.307 142.117L242.089 141.335L233.159 132.403Z"></path>
<path fill="#023C4F" d="M241.309 132.409L232.379 141.341L233.161 142.123L242.092 133.192L241.309 132.409Z"></path>
<path fill="#023C4F" d="M243.713 132.409L242.931 133.191L251.862 142.123L252.644 141.341L243.713 132.409Z"></path>
<path fill="#023C4F" d="M251.862 132.412L242.931 141.343L243.713 142.126L252.644 133.194L251.862 132.412Z"></path>
<path fill="#023C4F" d="M194.541 123.897H192.663V132.378H194.541V123.897Z"></path>
<path fill="#023C4F" d="M193.545 124.232C194.382 124.232 195.061 123.282 195.061 122.11C195.061 120.937 194.382 119.987 193.545 119.987C192.708 119.987 192.029 120.937 192.029 122.11C192.029 123.282 192.708 124.232 193.545 124.232Z"></path>
<path fill="#023C4F" d="M192.891 125.097C193.509 124.74 193.604 123.749 193.104 122.883C192.604 122.016 191.698 121.603 191.08 121.96C190.463 122.316 190.367 123.308 190.868 124.174C191.368 125.04 192.274 125.453 192.891 125.097Z"></path>
<path fill="#023C4F" d="M196.178 124.182C196.678 123.316 196.582 122.324 195.965 121.968C195.347 121.611 194.441 122.024 193.941 122.89C193.441 123.757 193.536 124.748 194.154 125.105C194.771 125.461 195.678 125.048 196.178 124.182Z"></path>
<path fill="#023C4F" d="M238.25 123.897H236.372V132.378H238.25V123.897Z"></path>
<path fill="#023C4F" d="M237.258 124.232C238.095 124.232 238.774 123.282 238.774 122.11C238.774 120.937 238.095 119.987 237.258 119.987C236.421 119.987 235.742 120.937 235.742 122.11C235.742 123.282 236.421 124.232 237.258 124.232Z"></path>
<path fill="#023C4F" d="M236.602 125.095C237.22 124.738 237.315 123.747 236.815 122.881C236.315 122.014 235.409 121.601 234.791 121.958C234.174 122.314 234.079 123.306 234.579 124.172C235.079 125.038 235.985 125.451 236.602 125.095Z"></path>
<path fill="#023C4F" d="M239.887 124.184C240.387 123.318 240.292 122.326 239.674 121.97C239.057 121.613 238.15 122.026 237.65 122.892C237.15 123.759 237.246 124.75 237.863 125.107C238.481 125.463 239.387 125.05 239.887 124.184Z"></path>
<path fill="#023C4F" d="M273.372 142.124H126.013V149.601H273.372V142.124Z"></path>
<path fill="#023C4F" d="M177.013 149.361L175.1 107.569H173.407V105.663H168.998V107.569H165.604V105.663H161.194V107.569H156.147V103.427H153.462V107.569H151.671V103.427H149.753V107.569H147.687V103.427H145.769V107.569H143.856V103.427H141.938V107.569H141.198C140.411 105.714 138.249 104.379 135.698 104.379C133.147 104.379 130.986 105.714 130.198 107.569H112.989V103.427H111.072V107.569H108.907V103.427H106.989V107.569H105.029V103.427H103.111V107.569H100.777V91.1496L98.9855 89.9566V81.6013H97.7925V76.4787C97.7925 74.3368 96.3043 72.5492 94.3122 72.0767V68.3203C94.3122 67.7534 93.9618 67.273 93.4657 67.0761V60.6108H92.5681V67.0446C92.0209 67.2139 91.6232 67.7179 91.6232 68.3203V72.2657C89.9342 72.9232 88.7374 74.5612 88.7374 76.4827V81.6053H87.4421V90.4606L86.1468 91.756L85.4657 116.428H76.9223V110.845H65.7766V116.428H65.4223V114.633H64.4065V116.428H63.5168V114.633H62.501V116.428H61.6112V114.633H60.5955V116.428H59.7057V114.633H58.6899V116.428H57.8002V114.633H56.7844V116.428H55.8947V114.633H54.8789V116.428H53.9891V114.633H52.9734V116.428H52.0836V114.633H51.0679V116.428H50.1781V114.633H49.1623V116.428H48.2726V114.633H47.2568V116.428H46.367V114.633H45.3513V116.428H44.4615V114.633H43.4458V116.428H42.5678V114.633H41.5521V116.428H40.6623V114.633H39.6465V116.428H38.7568V114.633H37.741V116.428H36.8512V114.633H35.8355V116.428H34.9457V114.633H33.93V116.428H33.0402V114.633H32.0244V116.428H31.1347V114.633H30.1189V116.428H29.2292V114.633H28.2134V116.428H27.3236V114.633H26.3079V116.428H25.4181V114.633H24.4024V116.428H23.5126V114.633H22.4968V116.428H21.6071V114.633H20.5992V116.428H19.7094V114.633H18.6937V116.428H16.548V103.651H16.5637L17.0283 102.084H16.548H13.4377V96.7172H13.4456L13.6779 95.6501H13.4377H12.5952V91.0709C12.5952 89.929 11.8393 88.9722 10.8275 88.7399V87.5351C10.8275 87.2831 10.6503 87.0822 10.4259 87.0429V85.9365H10.2763V87.0429C10.0519 87.0822 9.87471 87.2831 9.87471 87.5351V88.7399C8.86683 88.9722 8.10699 89.9251 8.10699 91.0709V95.6501H7.26446H7.0243L7.25659 96.7172H7.26446V102.084H4.15421H3.67389L4.13846 103.651H4.15421V126.252H-0.397001V139.076H-10.8971C-14.2002 139.076 -16.8813 141.927 -16.8813 145.443H-14.212V149.609H133.147V149.373H177.013V149.361ZM10.8314 114.16H9.87865V111.345C9.87865 111.065 10.0912 110.837 10.355 110.837C10.6188 110.837 10.8314 111.065 10.8314 111.345V114.16ZM10.8314 100.414H9.87865V99.2607C9.87865 98.9812 10.0912 98.7528 10.355 98.7528C10.6188 98.7528 10.8314 98.9812 10.8314 99.2607V100.414ZM11.9102 92.8939H8.82746V90.7244H11.9102V92.8939ZM93.2649 85.7238H96.0327V91.4252H93.2649V85.7238ZM88.9342 104.186C88.9342 102.029 90.446 100.225 92.4657 99.7726V97.8196C92.4657 97.0794 93.0681 96.477 93.8083 96.477C94.5484 96.477 95.1508 97.0794 95.1508 97.8196V99.7726C97.1705 100.225 98.6823 102.029 98.6823 104.186V104.379H88.9303V104.186H88.9342Z"></path>
<path fill="#023C4F" d="M10.3708 92.5788C10.7291 92.5788 11.0205 92.2678 11.0205 91.8859C11.0205 91.5039 10.7291 91.1929 10.3708 91.1929C10.0126 91.1929 9.72123 91.5039 9.72123 91.8859C9.71729 92.2678 10.0086 92.5788 10.3708 92.5788Z"></path>
<path fill="#023C4F" d="M78.5758 114.625H77.5601V121.988H78.5758V114.625Z"></path>
<path fill="#023C4F" d="M80.5562 114.625H79.5404V121.988H80.5562V114.625Z"></path>
<path fill="#023C4F" d="M82.5326 114.625H81.5168V121.988H82.5326V114.625Z"></path>
<path fill="#023C4F" d="M84.5089 114.625H83.4932V121.988H84.5089V114.625Z"></path>
<path fill="#023C4F" d="M365.29 147.703H387.223H412.905C412.905 150.597 408.735 152.944 403.586 152.944H387.227V163.5H380.125V182.104H380.148L380.873 183.396H380.121H375.278V187.814H375.29L375.652 188.692H375.278H373.967V192.46C373.967 193.401 372.786 194.184 371.215 194.377V195.37C371.215 195.578 370.944 195.744 370.589 195.775V196.685H370.357V195.775C370.007 195.74 369.731 195.578 369.731 195.37V194.377C368.16 194.184 366.979 193.401 366.979 192.46V188.692H365.68H365.306L365.668 187.814H365.68V183.396H360.837H360.085L360.81 182.104H360.833V176.094C360.742 176.108 360.647 176.109 360.551 176.096L358.731 175.853C358.333 177.716 357.784 179.524 357.097 181.263L358.745 181.996C359.246 182.217 359.471 182.804 359.246 183.305L358.396 185.211C358.174 185.712 357.588 185.938 357.087 185.712L355.38 184.953C354.481 186.618 353.45 188.201 352.3 189.688L353.688 190.866C354.104 191.22 354.155 191.845 353.801 192.264L352.45 193.857C352.096 194.272 351.471 194.323 351.051 193.969L349.623 192.757C348.305 194.101 346.879 195.337 345.357 196.452L346.344 197.954C346.643 198.412 346.515 199.026 346.061 199.325L344.313 200.471C343.855 200.77 343.241 200.642 342.942 200.187L341.939 198.66C340.301 199.586 338.58 200.381 336.791 201.033L337.295 202.689C337.454 203.213 337.159 203.764 336.635 203.924L334.635 204.529C334.11 204.689 333.559 204.394 333.4 203.869L332.89 202.194C331.066 202.621 329.187 202.902 327.266 203.025L327.283 204.677C327.286 205.225 326.848 205.671 326.3 205.675L324.211 205.695C323.663 205.698 323.216 205.26 323.212 204.712L323.196 203.047C321.262 202.945 319.371 202.682 317.534 202.272L317.111 203.768C316.963 204.296 316.416 204.599 315.888 204.452L313.876 203.881C313.348 203.733 313.045 203.186 313.192 202.657L313.619 201.149C311.8 200.508 310.051 199.718 308.385 198.794L307.607 200.028C307.316 200.49 306.702 200.63 306.24 200.339L304.473 199.224C304.011 198.933 303.871 198.319 304.162 197.857L304.948 196.611C303.384 195.484 301.918 194.229 300.565 192.862L299.548 193.76C299.137 194.121 298.512 194.082 298.15 193.674L296.768 192.109C296.406 191.697 296.445 191.072 296.853 190.711L297.878 189.806C296.69 188.285 295.627 186.661 294.704 184.951L293.575 185.479C293.078 185.713 292.492 185.499 292.259 185.002L291.373 183.11C291.14 182.613 291.354 182.027 291.851 181.794L292.988 181.261C292.28 179.467 291.718 177.6 291.317 175.674L290.181 175.848C289.641 175.929 289.136 175.56 289.051 175.02L288.732 172.954C288.651 172.414 289.019 171.91 289.559 171.824L290.726 171.645C290.685 171.164 290.653 170.68 290.632 170.194H284.723V171.777C284.723 172.97 283.195 173.938 281.309 173.938H278.864C276.979 173.938 275.451 172.97 275.451 171.777V170.194H270.727V171.528L265.128 172.261V173.753C265.128 174.923 263.632 175.871 261.786 175.871C259.939 175.871 258.443 174.923 258.443 173.753V173.135L255.565 173.513V170.19V168.615V156.224H238.25V161.453C238.817 161.409 239.482 161.701 239.888 162.22C240.384 162.866 240.289 163.602 239.671 163.866C239.404 163.984 239.077 163.984 238.754 163.902C238.683 164.705 238.041 165.335 237.254 165.335C236.463 165.335 235.821 164.701 235.754 163.894C235.419 163.988 235.081 163.992 234.797 163.87C234.175 163.602 234.081 162.866 234.581 162.224C235.022 161.657 235.778 161.354 236.372 161.468V156.228H194.541V161.456C195.108 161.413 195.773 161.705 196.179 162.224C196.675 162.87 196.581 163.606 195.962 163.87C195.695 163.988 195.368 163.988 195.045 163.906C194.974 164.709 194.332 165.339 193.545 165.339C192.754 165.339 192.112 164.705 192.045 163.898C191.71 163.992 191.372 163.996 191.088 163.874C190.466 163.606 190.372 162.87 190.872 162.228C191.313 161.661 192.069 161.358 192.663 161.472V156.232H176.226L175.096 174.564H173.403V175.978H168.994V174.564H165.6V175.978H161.191V174.564H156.143V177.643H153.458V174.564H151.667V177.643H149.75V174.564H147.687V177.643H145.777V174.564H143.864V177.643H141.946V174.564H141.206C140.419 175.942 138.257 176.935 135.706 176.935C133.155 176.935 130.994 175.942 130.206 174.564H112.997V177.643H111.08V174.564H108.915V177.643H106.997V174.564H105.037V177.643H103.119V174.564H100.785V186.762L98.9933 187.648V193.858H97.8004V197.665C97.8004 199.256 96.3162 200.587 94.3201 200.937V203.729C94.3201 204.15 93.9697 204.508 93.4736 204.654V209.458H92.5799V204.678C92.0327 204.552 91.635 204.178 91.635 203.729V200.799C89.946 200.307 88.7492 199.091 88.7492 197.665V193.858H87.4539V187.278L86.1586 186.317L85.4775 167.989H76.9342V172.139H65.7884V167.989H65.4341V169.324H64.4183V167.989H63.5286V169.324H62.5128V167.989H61.623V169.324H60.6073V167.989H59.7175V169.324H58.7018V167.989H57.812V169.324H56.7962V167.989H55.9065V169.324H54.8907V167.989H54.0009V169.324H52.9852V167.989H52.0954V169.324H51.0797V167.989H50.1899V169.324H49.1741V167.989H48.2844V169.324H47.2686V167.989H46.3789V169.324H45.3631V167.989H44.4733V169.324H43.4576V167.989H42.5678V169.324H41.5678V167.989H40.678V169.324H39.6623V167.989H38.7725V169.324H37.7568V167.989H36.867V169.324H35.8512V167.989H34.9615V169.324H33.9457V167.989H33.0559V169.324H32.0402V167.989H31.1504V169.324H30.1347V167.989H29.2449V169.324H28.2291V167.989H27.3394V169.324H26.3236V167.989H25.4339V169.324H24.4181V167.989H23.5283V169.324H22.5126V167.989H21.6228V169.324H20.6071V167.989H19.7173V169.324H18.7015V167.989H16.5559V177.486H16.5716L17.0362 178.651H16.5559H13.4456V182.64H13.4535L13.6858 183.431H13.4456H12.6031V186.833C12.6031 187.684 11.8432 188.393 10.8353 188.566V189.46C10.8353 189.649 10.6582 189.798 10.4338 189.826V190.649H10.2842V189.826C10.0598 189.794 9.88259 189.649 9.88259 189.46V188.566C8.87077 188.393 8.11486 187.684 8.11486 186.833V183.431H7.27233H7.03218L7.26446 182.64H7.27233V178.651H4.16208H3.68176L4.14633 177.486H4.16208V160.693H-0.397001V151.164H-10.8971C-14.2042 151.164 -16.8813 149.046 -16.8813 146.435H-14.212V143.34H133.147H255.569V142.907H355.853V147.703H365.29ZM351.886 175.32C352.562 174.933 352.987 174.372 352.987 173.749V173.131L355.865 173.509V170.186V169.521H357.876C357.764 173.964 356.762 178.193 355.037 182.035L350.287 179.945C350.951 178.468 351.488 176.921 351.886 175.32ZM342.599 171.773L346.302 172.257V173.749C346.302 174.919 347.798 175.868 349.644 175.868C349.797 175.868 349.948 175.861 350.095 175.848C349.753 177.035 349.33 178.188 348.831 179.3L341.292 175.984C341.893 174.658 342.337 173.246 342.599 171.773ZM336.073 173.688C337.162 173.327 337.904 172.604 337.904 171.773V170.19H340.703V171.525L341.001 171.564C340.763 172.883 340.366 174.148 339.824 175.339L336.073 173.688ZM330.487 173.696C330.954 173.848 331.484 173.934 332.046 173.934H334.491C334.526 173.934 334.561 173.934 334.596 173.933L334.644 173.932L339.475 176.057C338.671 177.615 337.63 179.028 336.387 180.244L330.165 174.022C330.276 173.917 330.383 173.808 330.487 173.696ZM328.632 171.286V171.773C328.632 172.163 328.796 172.53 329.083 172.847L329.056 172.873L329.035 172.892L326.484 170.34L328.632 171.286ZM328.119 170.19H328.632V170.416L328.119 170.19ZM323.042 170.19H323.061L320.716 172.535C320.409 172.193 320.138 171.816 319.916 171.405L323.042 170.19ZM319.433 170.19H320.839L319.59 170.674C319.53 170.516 319.478 170.354 319.433 170.19ZM317.754 171.389V170.981V170.19H317.79C317.868 170.555 317.974 170.909 318.102 171.253L317.754 171.389ZM300.295 176.783C300.99 177.003 301.743 177.16 302.538 177.246V177.309L300.734 178.011C300.578 177.606 300.431 177.197 300.295 176.783ZM292.249 170.194H295.829V170.985V172.21V179.191H296.715C297.814 179.191 298.746 178.735 299.066 178.103C299.125 178.265 299.185 178.426 299.247 178.586L294.407 180.465C293.779 178.843 293.278 177.159 292.913 175.423C293.085 175.364 293.195 175.187 293.167 175.001L292.666 171.739C292.64 171.564 292.499 171.435 292.329 171.415C292.295 171.01 292.268 170.603 292.249 170.194ZM302.538 178.165V181.767C301.971 180.8 301.465 179.794 301.025 178.753L302.538 178.165ZM300.959 182.219H300.731V184.365H302.307C302.931 185.265 303.608 186.127 304.332 186.946C304.386 187.197 304.595 187.416 304.896 187.565C305.024 187.702 305.154 187.838 305.286 187.973L301.682 191.576C301.667 191.525 301.641 191.476 301.603 191.433L299.416 188.959C299.347 188.88 299.252 188.837 299.154 188.83C298.03 187.39 297.022 185.854 296.147 184.237C296.24 184.126 296.266 183.966 296.201 183.825L294.936 181.12L299.542 179.331C299.959 180.325 300.432 181.288 300.959 182.219ZM307.323 187.728C309.309 189.579 311.582 191.12 314.071 192.28L317.388 184.742C315.694 183.93 314.149 182.858 312.801 181.58L311.81 182.572V184.365H310.017L308.4 185.981V186.814C308.4 187.247 307.946 187.612 307.323 187.728ZM308.4 184.855L308.89 184.365H308.4V184.855ZM311.036 182.219H310.002V178.189C310.65 179.206 311.399 180.155 312.234 181.021L311.036 182.219ZM304.317 184.418L304.277 184.365H304.317V184.418ZM311.284 177.216C312.428 177.071 313.485 176.77 314.4 176.352V177.62C314.4 177.931 314.543 178.221 314.79 178.465L313.368 179.887C312.584 179.073 311.884 178.178 311.284 177.216ZM317.754 175.5V172.248L318.425 171.987C318.735 172.601 319.128 173.164 319.59 173.665L317.754 175.5ZM315.47 178.911C315.868 179.085 316.35 179.187 316.869 179.187H317.754V176.627L320.157 174.224C320.592 174.605 321.066 174.939 321.578 175.215L318.036 183.266C316.526 182.536 315.143 181.584 313.935 180.446L315.47 178.911ZM355.865 168.721V168.611V163.5H360.833V172.027L359.343 171.827C359.439 170.781 359.488 169.722 359.488 168.651C359.488 168.426 359.484 168.197 359.48 167.971H357.884C357.886 168.06 357.888 168.149 357.891 168.239L357.891 168.24C357.895 168.376 357.9 168.513 357.9 168.651C357.9 168.81 357.895 168.967 357.889 169.124C357.888 169.185 357.886 169.246 357.884 169.307C357.882 169.365 357.881 169.423 357.88 169.482V168.721H355.865ZM10.8314 169.67H9.87865V171.761C9.87865 171.969 10.0912 172.139 10.355 172.139C10.6188 172.139 10.8314 171.969 10.8314 171.761V169.67ZM10.8314 179.88H9.87865V180.738C9.87865 180.947 10.0912 181.116 10.355 181.116C10.6188 181.116 10.8314 180.947 10.8314 180.738V179.88ZM8.82746 187.077H11.9102V185.467H8.82746V187.077ZM93.261 190.794H96.0288V186.562H93.261V190.794ZM95.1547 180.356C97.1744 180.018 98.6862 178.679 98.6862 177.076H98.6902V176.935H88.9382V177.076C88.9382 178.679 90.45 180.018 92.4697 180.356V181.809C92.4697 182.36 93.072 182.805 93.8122 182.805C94.5524 182.805 95.1547 182.36 95.1547 181.809V180.356ZM247.789 151.92L251.286 149.321H244.293L247.789 151.92ZM237.234 151.92L240.73 149.321H233.738L237.234 151.92ZM226.679 151.92L230.175 149.321H223.183L226.679 151.92ZM216.124 151.92L219.62 149.321H212.628L216.124 151.92ZM205.573 151.92L209.069 149.321H202.077L205.573 151.92ZM195.017 151.92L198.514 149.321H191.521L195.017 151.92ZM184.462 151.92L187.958 149.321H180.966L184.462 151.92ZM177.143 149.325V155.409H179.765L183.679 152.503L179.604 149.475L179.809 149.325H177.143ZM184.462 153.082L181.332 155.409H187.592L184.462 153.082ZM185.242 152.503L189.155 155.409H190.317L194.23 152.503L190.155 149.475L190.36 149.325H189.112L189.317 149.475L185.242 152.503ZM195.017 153.082L191.888 155.409H198.147L195.017 153.082ZM195.797 152.503L199.71 155.409H200.872L204.785 152.503L200.71 149.475L200.915 149.325H199.667L199.872 149.475L195.797 152.503ZM205.573 153.082L202.443 155.409H208.703L205.573 153.082ZM206.352 152.503L210.266 155.409H211.427L215.34 152.503L211.266 149.475L211.47 149.325H210.222L210.427 149.475L206.352 152.503ZM216.128 153.082L212.998 155.409H219.258L216.128 153.082ZM216.907 152.503L220.821 155.409H221.982L225.896 152.503L221.821 149.475L222.026 149.325H220.778L220.982 149.475L216.907 152.503ZM226.683 153.082L223.553 155.409H229.813L226.683 153.082ZM227.463 152.503L231.376 155.409H232.537L236.451 152.503L232.376 149.475L232.581 149.325H231.333L231.537 149.475L227.463 152.503ZM237.238 153.082L234.108 155.409H240.368L237.238 153.082ZM238.018 152.503L241.931 155.409H243.093L247.006 152.503L242.931 149.475L243.136 149.325H241.888L242.093 149.475L238.018 152.503ZM247.789 153.082L244.66 155.409H250.919L247.789 153.082ZM252.482 155.409H254.455V149.325H252.439L252.644 149.475L248.569 152.503L252.482 155.409ZM363.597 153.967H360.826V155.239C360.826 155.668 361.448 156.019 362.211 156.019C362.975 156.019 363.597 155.668 363.597 155.239V153.967ZM362.211 160.386C362.975 160.386 363.597 160.035 363.597 159.606V157.574H360.826V159.606C360.826 160.035 361.448 160.386 362.211 160.386ZM371.861 152.944H369.089V155.42C369.089 155.85 369.711 156.2 370.475 156.2C371.239 156.2 371.861 155.85 371.861 155.42V152.944ZM371.861 160.051V157.574H369.089V160.051C369.089 160.48 369.711 160.83 370.475 160.83C371.239 160.83 371.861 160.48 371.861 160.051ZM369.731 175.765C369.731 175.997 370.062 176.183 370.471 176.183C370.885 176.183 371.215 175.994 371.215 175.765V173.45H369.731V175.765ZM371.215 185.711V184.762H369.735V185.711C369.735 185.943 370.066 186.128 370.475 186.128C370.885 186.128 371.215 185.939 371.215 185.711ZM369.731 166.118C369.731 166.351 370.062 166.536 370.471 166.536C370.885 166.536 371.215 166.351 371.215 166.118V163.803H369.731V166.118ZM368.05 192.739H372.853V190.956H368.05V192.739ZM378.735 160.386C379.499 160.386 380.121 160.035 380.121 159.606V157.574H377.349V159.606C377.349 160.035 377.971 160.386 378.735 160.386ZM378.735 156.019C379.499 156.019 380.121 155.668 380.121 155.239V153.967H377.349V155.239C377.349 155.668 377.971 156.019 378.735 156.019ZM309.022 197.305C309.777 197.728 310.55 198.122 311.341 198.486L313.43 193.736C310.614 192.428 308.059 190.66 305.853 188.528L302.183 192.198C303.383 193.366 304.673 194.442 306.041 195.416C306.072 195.425 306.102 195.439 306.131 195.457L308.924 197.216C308.963 197.241 308.995 197.271 309.022 197.305ZM321.287 173.094L323.478 170.904L322.227 173.747C321.889 173.56 321.574 173.343 321.287 173.094ZM324.301 201.481C319.967 201.384 315.834 200.448 312.067 198.816L314.156 194.066C317.283 195.414 320.708 196.191 324.301 196.288V201.481ZM324.297 186.458V194.696C320.935 194.598 317.728 193.868 314.797 192.61L318.114 185.072C320.029 185.883 322.114 186.365 324.297 186.458ZM324.301 184.842C322.347 184.753 320.475 184.334 318.759 183.611L322.309 175.549C322.938 175.801 323.602 175.972 324.301 176.042V184.842ZM324.301 174.426C323.831 174.364 323.38 174.248 322.949 174.084L324.301 171.016V174.426ZM348.493 180.027C347.188 182.706 345.436 185.126 343.339 187.196L337.517 181.374C338.9 180.019 340.057 178.446 340.943 176.706L348.493 180.027ZM336.935 181.922L342.761 187.748C340.353 189.985 337.521 191.767 334.399 192.971L331.416 185.297C333.463 184.508 335.331 183.359 336.935 181.922ZM330.833 183.798L327.645 175.603C328.336 175.343 328.977 174.985 329.556 174.543L335.797 180.784C334.348 182.066 332.674 183.091 330.833 183.798ZM328.418 173.401C328.006 173.696 327.552 173.933 327.07 174.112L325.757 170.74L328.418 173.401ZM325.097 171.245L326.301 174.345C325.913 174.43 325.509 174.477 325.097 174.481V171.245ZM325.097 176.077C325.715 176.073 326.309 175.987 326.884 175.84L330.084 184.074C328.511 184.59 326.837 184.874 325.097 184.881V176.077ZM325.097 186.474C327.043 186.47 328.911 186.147 330.666 185.565L333.653 193.247C330.973 194.187 328.095 194.707 325.097 194.711V186.474ZM325.097 201.5V196.307C328.297 196.304 331.369 195.744 334.232 194.735L336.115 199.578C332.67 200.817 328.961 201.492 325.097 201.5ZM336.861 199.294L334.981 194.455C338.31 193.169 341.327 191.262 343.891 188.87L347.561 192.54C344.489 195.437 340.865 197.748 336.861 199.294ZM348.136 191.993L344.466 188.322C346.703 186.112 348.571 183.53 349.953 180.667L354.707 182.761C353.06 186.213 350.827 189.332 348.136 191.993ZM370.452 192.354C371.011 192.354 371.467 192.098 371.467 191.783C371.467 191.468 371.015 191.212 370.452 191.212C369.889 191.212 369.436 191.468 369.436 191.783C369.436 192.098 369.893 192.354 370.452 192.354ZM11.0205 186.215C11.0205 186.499 10.7291 186.731 10.3709 186.731C10.0087 186.731 9.71732 186.503 9.72125 186.215C9.72125 185.932 10.0126 185.699 10.3709 185.699C10.7291 185.699 11.0205 185.932 11.0205 186.215Z" clip-rule="evenodd" fill-rule="evenodd" opacity="0.3"></path>
</g>
</g>
</g>
<defs>
<linearGradient gradientUnits="userSpaceOnUse" y2="210.247" x2="188" y1="-0.69871" x1="188" id="paint0_linear_875_480">
<stop stop-color="#93CEB9"></stop>
<stop stop-color="#FEC2A2" offset="0.686635"></stop>
</linearGradient>
<linearGradient gradientUnits="userSpaceOnUse" y2="219.27" x2="188.313" y1="142.948" x1="188.313" id="paint1_linear_875_480">
<stop stop-color="#246B9F"></stop>
<stop stop-color="#6EB0C4" offset="0.709585"></stop>
</linearGradient>
<linearGradient gradientUnits="userSpaceOnUse" y2="57.5209" x2="59.5675" y1="-11.1593" x1="59.5675" id="paint2_linear_875_480">
<stop stop-color="white"></stop>
<stop stop-opacity="0" stop-color="white" offset="0.9904"></stop>
</linearGradient>
<clipPath id="clip0_875_480">
<rect fill="white" height="211" width="375"></rect>
</clipPath>
<clipPath id="clip1_875_480">
<rect transform="translate(0.322266)" fill="white" height="211.2" width="375.355"></rect>
</clipPath>
<clipPath id="clip2_875_480">
<rect transform="translate(-16.8815 -8.13281)" fill="white" height="227.403" width="429.782"></rect>
</clipPath>
</defs>
</svg>
