<svg xml:space="preserve" style="enable-background:new 0 0 752 486;" viewBox="0 0 752 486" y="0px" x="0px" xmlns:xlink="http://www.w3.org/1999/xlink" xmlns="http://www.w3.org/2000/svg" id="Layer_1" version="1.1">
<style type="text/css">
	.st0{fill:#EBF9FB;}
	.st1{fill-rule:evenodd;clip-rule:evenodd;fill:#8FC6CC;}
	.st2{fill-rule:evenodd;clip-rule:evenodd;fill:#7BB3B9;}
	.st3{fill:#C6F2F7;}
	.st4{fill:none;stroke:#C6F2F7;stroke-miterlimit:10;}
	.st5{fill:#7BB3B9;}
	.st6{font-family:'Garnett-Medium';}
	.st7{font-size:8.5px;}
	.st8{opacity:0.3;fill:#8FC6CC;enable-background:new    ;}
	.st9{filter:url(#Adobe_OpacityMaskFilter);}
	.st10{fill:url(#SVGID_1_);}
	.st11{mask:url(#SVGID_00000103972955783879167350000001007107618780203422_);fill:#C6F2F7;}
	.st12{filter:url(#Adobe_OpacityMaskFilter_00000095327940141979906020000012144139029931737011_);}
	.st13{fill:url(#SVGID_00000107554177867764963070000008427885679005046145_);}
	.st14{mask:url(#SVGID_00000033340855388051128330000002820085486243990408_);fill:#8FC6CC;}
	.st15{fill:#D4DBDF;}
	.st16{fill:#8FC6CC;}
	.st17{fill:#FFFFFF;}
	.st18{opacity:0.2;fill:#FFFFFF;enable-background:new    ;}
	.st19{opacity:0.5;fill:#FFFFFF;enable-background:new    ;}
	.st20{filter:url(#Adobe_OpacityMaskFilter_00000170997095397775167830000001523039809113759395_);}
	.st21{fill:url(#SVGID_00000145057463989323461130000006929152626982611630_);}
	.st22{mask:url(#SVGID_00000004522401794361151470000017318585015682939309_);fill:#8FC6CC;}
	.st23{enable-background:new    ;}
</style>
<rect height="486" width="752" class="st0"></rect>
<g>
	<g>
		<path d="M420.5,119c-2.3-9.8-6.7-23-14.7-29.7c-2.4-2-5.2-3.4-8.3-3.6c-2.9-0.2-5.5,0.8-7.8,2.6
			c-4.4,3.5-6.6,9.6-7.6,14.9c-0.6,3.4-0.6,7.2,0.1,10.6c0.6,2.9,1.8,5.7,4,7.7c2.7,2.5,6.2,3.1,9.8,2.8c5-0.4,10.1-2.5,14.5-4.8
			c0.6-0.3,0.9-1.1,0.5-1.7c-0.3-0.6-1.1-0.8-1.7-0.5c-4.1,2.1-8.9,4.2-13.5,4.5c-2.8,0.2-5.7-0.2-7.9-2.2c-1.8-1.7-2.8-4-3.3-6.4
			c-0.6-3.1-0.6-6.6,0-9.7c0.8-4.7,2.8-10.3,6.6-13.4c1.7-1.4,3.8-2.2,6-2c2.6,0.2,4.9,1.4,6.9,3.1c7.5,6.2,11.8,19,13.9,28.3
			c0.1,0.7,0.8,1.1,1.5,0.9C420.2,120.3,420.6,119.6,420.5,119L420.5,119L420.5,119z" class="st1"></path>
		<path d="M420.1,107.3c-1,0-2,0.1-2.9,0.4c0.7,2,1.4,4.1,2,6.3c1.4,0,2.7,0.6,3.6,1.6c0.9,0.9,1.4,2.2,1.4,3.7
			s-0.5,2.7-1.4,3.7s-2.2,1.6-3.6,1.6s-2.6-0.6-3.6-1.6c-0.9-0.9-1.4-2.2-1.4-3.7s0.5-2.7,1.4-3.7c0.3-0.3,0.7-0.7,1.1-0.9
			c-0.6-2.2-1.3-4.2-1.9-6.1c-1,0.5-1.9,1.2-2.7,2c-1.8,1.8-3,4.2-3.2,6.8c-0.1,1-0.1,2.3-0.1,3.4v74.6c0,3.1,0.7,5.5,2.8,7.5
			c2,2,4.4,2.8,7.5,2.8h26.5c3.1,0,5.7-0.9,7.8-2.9c2-2,2.5-4.3,2.5-7.4v-76.8c0-3.1-1.3-5.9-3.3-7.9s-4.9-3.3-8-3.3h-24.5
			L420.1,107.3L420.1,107.3z" class="st2"></path>
	</g>
	<g>
		<path d="M437.9,145.1c0,0.5-0.1,0.9-0.2,1.4l2.8,0.4c0.1-0.6,0.2-1.2,0.2-1.8c0-2.2-0.9-4.3-2.5-5.8
			c-1.6-1.4-3.6-2.2-5.9-2.2v1.7c-1.4-1.1-3.2-1.7-5.2-1.7v2.8c1.5,0,2.8,0.5,3.8,1.4s1.5,2.1,1.5,3.5c0,0.3,0,0.5-0.1,0.8l2.8,0.4
			c0.1-0.4,0.1-0.8,0.1-1.2c0-1.8-0.6-3.4-1.6-4.8c1,0.2,1.9,0.7,2.7,1.4C437.3,142.3,437.9,143.7,437.9,145.1L437.9,145.1z" class="st3"></path>
		<path d="M437.2,162.1l-9.6-4.9c-1.4-0.7-2.4-1.5-3-2.2c-0.5-0.8-0.8-1.8-0.8-3.1c0-0.4,0-0.9,0.1-1.3
			c0.1-0.4,0.2-0.9,0.3-1.2l2.4,0.7c-0.1,0.3-0.2,0.6-0.2,0.9c0,0.3-0.1,0.6-0.1,0.9c0,0.4,0,0.7,0.1,1s0.2,0.5,0.4,0.7
			c0,0.1,0.1,0.1,0.2,0.1c0.1,0.1,0.1,0.1,0.3,0.2l10-2.1v2.9l-6.9,1.2l6.9,3.3L437.2,162.1L437.2,162.1z" class="st3"></path>
		<path d="M433.8,171c0.3,0.1,0.6,0.1,1,0.1c0.8,0,1.4-0.2,1.9-0.7c0.5-0.4,0.7-1,0.7-1.7c0-2-1.2-2.8-1.2-2.8v-0.1
			l1,0.2v-2.9l-10-1.6v2.9l5.3,0.9c1,0.1,1.7,0.4,2.2,0.7s0.7,0.7,0.7,1.2c0,0.4-0.1,0.6-0.3,0.8c-0.2,0.2-0.5,0.3-1,0.3
			c-0.3,0-0.5,0-0.8-0.1c-0.1,0-0.1,0-0.2,0v2.6C433.4,170.9,433.6,171,433.8,171L433.8,171z" class="st3"></path>
		<polygon points="440.6,148.3 427.2,146.2 427.2,149 440.6,151.2" class="st3"></polygon>
	</g>
	<g>
		<path d="M425.2,182.3h15.3c1,0,1.8,0.8,1.8,1.8v12.3c0,1-0.8,1.8-1.8,1.8h-15.3c-1,0-1.8-0.8-1.8-1.8v-12.3
			C423.4,183.1,424.2,182.3,425.2,182.3z" class="st3"></path>
		<path d="M429.5,182.3v-1.8c0-0.7,0.5-1.2,1.2-1.2h4.3c0.7,0,1.2,0.6,1.2,1.2v1.8" class="st4"></path>
	</g>
	<text class="st5 st6 st7" transform="matrix(1 0 0 1 427.99 193.86)">1A</text>
</g>
<g>
	<g>
		<path d="M516.3,293.3l-75.1-43.2c-2.4-1.4-5.6-2.1-8.7-2.1h-38.1c-3.2,0-6.3,0.7-8.7,2.1L135.3,394.6
			c-2.4,1.4-3.6,3.2-3.6,5s1.2,3.6,3.6,5l75.1,43.2c2.4,1.4,5.6,2.1,8.7,2.1h38.1c3.2,0,6.3-0.7,8.7-2.1l250.3-144.5
			c2.4-1.4,3.6-3.2,3.6-5C519.9,296.5,518.7,294.7,516.3,293.3z" class="st5"></path>
		<g>
			<g>
				<path d="M206.6,182.2c1.6-2.7,3.8-5.1,6.2-6.5L463.2,31.2c2.4-1.4,4.6-1.5,6.2-0.6l52.4,30.3
					c1.6,0.9,2.6,2.9,2.6,5.7v221.8c0,2.8-1,5.9-2.6,8.6s-3.8,5.1-6.2,6.5L265.2,448c-2.4,1.4-4.6,1.5-6.2,0.6l-52.4-30.3
					c-1.6-0.9-2.6-2.9-2.6-5.7V190.8C204.1,188.1,205.1,185,206.6,182.2z" class="st3"></path>
				<path d="M259.1,212.5c1.6-2.7,3.8-5.1,6.2-6.5L515.6,61.5c2.4-1.4,4.6-1.5,6.2-0.6c1.6,0.9,2.6,2.9,2.6,5.7v221.8
					c0,2.8-1,5.9-2.6,8.6s-3.8,5.1-6.2,6.5L265.2,448c-2.4,1.4-4.6,1.5-6.2,0.6s-2.6-2.9-2.6-5.7V221.1
					C256.5,218.3,257.5,215.2,259.1,212.5z" class="st0"></path>
				<path d="M206.6,182.2c1.6-2.7,3.8-5.1,6.2-6.5L463.2,31.2c2.4-1.4,4.6-1.5,6.2-0.6l52.4,30.3
					c-1.6-0.9-3.8-0.8-6.2,0.6L265.2,206c-2.4,1.4-4.6,3.8-6.2,6.5s-2.6,5.8-2.6,8.6L204,190.8C204.1,188.1,205.1,185,206.6,182.2z" class="st8"></path>
				<defs>
					<filter height="272.9" width="61.2" y="175.7" x="204" filterUnits="userSpaceOnUse" id="Adobe_OpacityMaskFilter">
						<feColorMatrix values="1 0 0 0 0  0 1 0 0 0  0 0 1 0 0  0 0 0 1 0" type="matrix"></feColorMatrix>
					</filter>
				</defs>
				
					<mask id="SVGID_00000103972955783879167350000001007107618780203422_" height="272.9" width="61.2" y="175.7" x="204" maskUnits="userSpaceOnUse">
					<g class="st9">
						
							<linearGradient gradientTransform="matrix(-1 0 0 -1 349.5564 488)" y2="266.5868" x2="62.493" y1="254.0284" x1="69.7436" gradientUnits="userSpaceOnUse" id="SVGID_1_">
							<stop style="stop-color:#FFFFFF" offset="0"></stop>
							<stop style="stop-color:#000000" offset="1"></stop>
						</linearGradient>
						<path d="M206.6,182.2c1.6-2.7,3.8-5.1,6.2-6.5l52.4,30.3c-2.4,1.4-4.6,3.8-6.2,6.5s-2.6,5.8-2.6,8.6v221.8
							c0,2.8,1,4.7,2.6,5.7l-52.4-30.3c-1.6-0.9-2.6-2.9-2.6-5.7V190.8C204.1,188.1,205.1,185,206.6,182.2z" class="st10"></path>
					</g>
				</mask>
				<path d="M206.6,182.2c1.6-2.7,3.8-5.1,6.2-6.5l52.4,30.3c-2.4,1.4-4.6,3.8-6.2,6.5s-2.6,5.8-2.6,8.6v221.8
					c0,2.8,1,4.7,2.6,5.7l-52.4-30.3c-1.6-0.9-2.6-2.9-2.6-5.7V190.8C204.1,188.1,205.1,185,206.6,182.2z" class="st11"></path>
				<defs>
					
						<filter height="272.9" width="61.2" y="175.7" x="204" filterUnits="userSpaceOnUse" id="Adobe_OpacityMaskFilter_00000043425659754560491730000009806604319237566642_">
						<feColorMatrix values="1 0 0 0 0  0 1 0 0 0  0 0 1 0 0  0 0 0 1 0" type="matrix"></feColorMatrix>
					</filter>
				</defs>
				
					<mask id="SVGID_00000033340855388051128330000002820085486243990408_" height="272.9" width="61.2" y="175.7" x="204" maskUnits="userSpaceOnUse">
					<g style="filter:url(#Adobe_OpacityMaskFilter_00000043425659754560491730000009806604319237566642_);">
						
							<linearGradient gradientTransform="matrix(-1 0 0 -1 349.5564 488)" y2="266.5868" x2="62.493" y1="254.0284" x1="69.7436" gradientUnits="userSpaceOnUse" id="SVGID_00000145771881611355799360000009877019609137295038_">
							<stop style="stop-color:#FFFFFF" offset="0"></stop>
							<stop style="stop-color:#000000" offset="1"></stop>
						</linearGradient>
						<path d="M206.6,182.2
							c1.6-2.7,3.8-5.1,6.2-6.5l52.4,30.3c-2.4,1.4-4.6,3.8-6.2,6.5s-2.6,5.8-2.6,8.6v221.8c0,2.8,1,4.7,2.6,5.7l-52.4-30.3
							c-1.6-0.9-2.6-2.9-2.6-5.7V190.8C204.1,188.1,205.1,185,206.6,182.2z" style="fill:url(#SVGID_00000145771881611355799360000009877019609137295038_);"></path>
					</g>
				</mask>
				<path d="M206.6,182.2c1.6-2.7,3.8-5.1,6.2-6.5l52.4,30.3c-2.4,1.4-4.6,3.8-6.2,6.5s-2.6,5.8-2.6,8.6v221.8
					c0,2.8,1,4.7,2.6,5.7l-52.4-30.3c-1.6-0.9-2.6-2.9-2.6-5.7V190.8C204.1,188.1,205.1,185,206.6,182.2z" class="st14"></path>
				<path d="M262,448.7c1.1,0,2.3-0.4,3.6-1.1l250.3-144.5c2.2-1.3,4.3-3.5,5.9-6.3c1.6-2.8,2.5-5.7,2.5-8.3V66.7
					c0-2.4-0.8-4.2-2.2-5.1c-0.6-0.3-1.2-0.5-1.9-0.5c-1.1,0-2.3,0.4-3.6,1.1L266.2,206.8c-2.2,1.3-4.3,3.5-5.9,6.3
					s-2.5,5.7-2.5,8.3v221.8c0,2.4,0.8,4.2,2.2,5.1C260.6,448.5,261.3,448.7,262,448.7z" class="st3"></path>
				<path d="M226.4,193.7c1.6-2.7,3.8-5.1,6.2-6.5L483,42.6c2.4-1.4,4.6-1.5,6.2-0.6l0.8,0.4c-1.6-0.9-3.8-0.8-6.2,0.6
					L233.4,187.6c-2.4,1.4-4.6,3.8-6.2,6.5c-1.6,2.7-2.6,5.8-2.6,8.6v221.8c0,2.8,1,4.7,2.6,5.7l-0.8-0.4c-1.6-0.9-2.6-2.9-2.6-5.7
					V202.3C223.9,199.5,224.9,196.4,226.4,193.7z" class="st0"></path>
			</g>
			<g>
				<g>
					<polygon points="282.3,149 307.4,163.5 307.4,166 279.4,182.2 254.4,167.7 254.4,165.2" class="st15"></polygon>
					<polygon points="279.4,182.2 307.4,166 307.4,163.5 279.4,179.7" class="st16"></polygon>
					<polygon points="279.4,182.2 279.4,179.7 254.4,165.2 254.4,167.7" class="st16"></polygon>
					<polygon points="279.4,179.7 307.4,163.5 282.3,149 254.4,165.2" class="st17"></polygon>
					<polygon points="290.1,153.5 262.1,169.7 262.1,172.2 261.4,171.8 261.5,169.3 289.5,153.1" class="st16"></polygon>
				</g>
				<g>
					<polygon points="281.7,149.7 301.5,161.2 301.5,163.2 291.4,169 291.4,168.9 271.5,157.6 271.5,155.6" class="st15"></polygon>
					<polygon points="279.5,151.7 281.7,151.7 301.5,163.2 291.4,169 289.1,169 269.3,157.6" class="st8"></polygon>
					<polygon points="279.5,151.7 281.7,151.7 301.5,163.2 291.4,169 289.1,169 269.3,157.6" class="st8"></polygon>
					<polygon points="291.4,167 301.5,161.2 281.7,149.7 271.5,155.6" class="st17"></polygon>
					<polygon points="291.4,167 291.4,168.9 271.5,157.6 271.5,155.6" class="st16"></polygon>
					<polygon points="291.4,167 301.5,161.2 301.5,163.2 291.4,169" class="st16"></polygon>
				</g>
				<g>
					<polygon points="275.5,162.2 287.6,169.2 287.6,171.2 281.8,174.6 269.6,167.6 269.6,165.6" class="st15"></polygon>
					<polygon points="273.2,164.2 275.5,164.2 287.6,171.2 281.8,174.6 279.5,174.6 267.4,167.6" class="st8"></polygon>
					<polygon points="273.2,164.2 275.5,164.2 287.6,171.2 281.8,174.6 279.5,174.6 267.4,167.6" class="st8"></polygon>
					<polygon points="287.6,171.2 281.8,174.6 281.8,172.6 287.6,169.2" class="st16"></polygon>
					<polygon points="281.8,172.6 281.8,174.6 269.6,167.6 269.6,165.6" class="st16"></polygon>
					<polygon points="287.6,169.2 281.8,172.6 269.6,165.6 275.5,162.2" class="st17"></polygon>
				</g>
			</g>
			<g>
				<g>
					<polygon points="399.1,97.4 401.4,97.4 408.7,101.6 395.6,109.2 393.3,109.2 386,105" class="st18"></polygon>
					<g>
						<polygon points="401.4,96.5 408.7,100.7 408.7,101.6 395.6,109.2 388.3,105 388.3,104.1" class="st17"></polygon>
						<polygon points="388.3,104.1 395.6,108.3 395.6,109.2 388.3,105" class="st17"></polygon>
						<polygon points="401.4,96.5 408.7,100.7 395.6,108.3 388.3,104.1" class="st17"></polygon>
						<polygon points="395.6,108.3 408.7,100.7 408.7,101.6 395.6,109.2" class="st17"></polygon>
					</g>
					<polygon points="408.7,100.7 406.6,102 406.6,102 403,102 393.8,107.3 388.3,104.1 401.4,96.5" class="st18"></polygon>
				</g>
				<g>
					<path d="M399.2,94.3c0-1.2,0.4-2,1.1-2.4l2.2-1.2c0.7-0.4,1.6-0.3,2.6,0.3c1,0.6,1.9,1.6,2.6,2.7s1.1,2.4,1.1,3.6
						v3.4l-2.2,1.2l-7.3-4.2L399.2,94.3z" class="st17"></path>
					<path d="M399.2,97.7v-3.4c0-1.2,0.4-2,1.1-2.4s1.6-0.3,2.6,0.3c1,0.6,1.9,1.6,2.6,2.7s1.1,2.4,1.1,3.6v3.4
						L399.2,97.7z" class="st17"></path>
					<path d="M407.6,93.7c0.7,1.1,1.1,2.4,1.1,3.6l-2.2,1.2c0-1.2-0.4-2.5-1.1-3.6L407.6,93.7z" class="st19"></path>
					<path d="M402.5,90.7c0.7-0.4,1.6-0.3,2.6,0.3c1,0.6,1.9,1.6,2.6,2.7l-2.2,1.2c-0.7-1.1-1.6-2.1-2.6-2.7
						s-1.9-0.6-2.6-0.3L402.5,90.7z" class="st17"></path>
				</g>
				<g>
					<polygon points="338.8,132.1 341.2,132.1 348.5,136.3 335.4,143.9 333,143.9 325.7,139.7" class="st18"></polygon>
					<g>
						<polygon points="341.2,131.2 348.5,135.4 348.5,136.3 335.4,143.9 328.1,139.7 328.1,138.8" class="st17"></polygon>
						<polygon points="328.1,138.8 335.4,143.1 335.4,143.9 328.1,139.7" class="st17"></polygon>
						<polygon points="341.2,131.2 348.5,135.4 335.4,143.1 328.1,138.8" class="st17"></polygon>
						<polygon points="335.4,143.1 348.5,135.4 348.5,136.3 335.4,143.9" class="st17"></polygon>
					</g>
					<polygon points="348.5,135.4 346.3,136.7 346.3,136.7 342.8,136.7 333.6,142 328.1,138.8 341.2,131.2" class="st18"></polygon>
				</g>
				<g>
					<path d="M339,129.1c0-1.2,0.4-2,1.1-2.4l2.2-1.2c0.7-0.4,1.6-0.3,2.6,0.3c1,0.6,1.9,1.6,2.6,2.7s1.1,2.4,1.1,3.6
						v3.4l-2.2,1.2l-7.3-4.2L339,129.1z" class="st17"></path>
					<path d="M339,132.5v-3.4c0-1.2,0.4-2,1.1-2.4s1.6-0.3,2.6,0.3c1,0.6,1.9,1.6,2.6,2.7s1.1,2.4,1.1,3.6v3.4
						L339,132.5z" class="st17"></path>
					<path d="M347.4,128.4c0.7,1.1,1.1,2.4,1.1,3.6l-2.2,1.2c0-1.2-0.4-2.5-1.1-3.6L347.4,128.4z" class="st19"></path>
					<path d="M342.2,125.4c0.7-0.4,1.6-0.3,2.6,0.3c1,0.6,1.9,1.6,2.6,2.7l-2.2,1.2c-0.7-1.1-1.6-2.1-2.6-2.7
						s-1.9-0.6-2.6-0.3L342.2,125.4z" class="st17"></path>
				</g>
				<g>
					<path d="M330.9,103.7v30.8c0,0.9,0.3,2,0.9,2.9c0.5,0.9,1.3,1.7,2.1,2.2c0.8,0.5,1.6,0.5,2.1,0.2l8.8-5.1
						c0.5-0.3,0.9-1,0.9-1.9V106l45.6-26.3l-0.1,20c0,0.9,0.3,2,0.9,2.9c0.5,0.9,1.3,1.7,2.1,2.2c0.8,0.5,1.6,0.5,2.1,0.2l8.8-5.1
						c0.5-0.3,0.9-1,0.9-1.9V67.2c0-1.7-0.6-2.9-1.6-3.4l-5.9-3.4c-1-0.6-2.3-0.5-3.7,0.4l-58.4,33.7c-1.5,0.8-2.8,2.3-3.7,4
						C331.5,100.2,330.9,102.1,330.9,103.7z" class="st16"></path>
					<path d="M332.5,98.5c1-1.7,2.3-3.1,3.7-4l58.4-33.7c1.5-0.8,2.8-0.9,3.7-0.4l5.9,3.4c-1-0.6-2.3-0.5-3.7,0.4
						L342.1,98c-1.5,0.8-2.8,2.3-3.7,4c-1,1.7-1.6,3.5-1.6,5.2l-5.9-3.4C330.9,102.1,331.5,100.2,332.5,98.5z" class="st3"></path>
					<path d="M397.1,76.3l-0.1,26.9c0,0.9-0.3,1.6-0.9,1.9c-0.5,0.3-1.3,0.3-2.1-0.2c-0.8-0.5-1.6-1.3-2.1-2.2
						c-0.5-0.9-0.9-2-0.9-2.9l0.1-20L397.1,76.3z" class="st8"></path>
					<defs>
						
							<filter height="45.5" width="11.3" y="94.5" x="330.8" filterUnits="userSpaceOnUse" id="Adobe_OpacityMaskFilter_00000057857810499075919420000013666830877064447678_">
							<feColorMatrix values="1 0 0 0 0  0 1 0 0 0  0 0 1 0 0  0 0 0 1 0" type="matrix"></feColorMatrix>
						</filter>
					</defs>
					
						<mask id="SVGID_00000004522401794361151470000017318585015682939309_" height="45.5" width="11.3" y="94.5" x="330.8" maskUnits="userSpaceOnUse">
						<g style="filter:url(#Adobe_OpacityMaskFilter_00000057857810499075919420000013666830877064447678_);">
							
								<linearGradient gradientTransform="matrix(-1 0 0 -1 349.5564 488)" y2="385.1752" x2="5.2499" y1="377.9852" x1="9.4012" gradientUnits="userSpaceOnUse" id="SVGID_00000148646455734217142550000015760365674492101514_">
								<stop style="stop-color:#FFFFFF" offset="0"></stop>
								<stop style="stop-color:#000000" offset="1"></stop>
							</linearGradient>
							<path d="M332.5,100.4c1-1.7,2.3-3.1,3.7-4
								l5.9,3.4c-1.5,0.8-2.8,2.3-3.7,4c-1,1.7-1.6,3.5-1.6,5.2v28.9c0,0.9-0.3,1.6-0.9,1.9c-0.5,0.3-1.3,0.3-2.1-0.2
								c-0.8-0.5-1.6-1.3-2.1-2.2s-0.9-2-0.9-2.9v-28.9C330.9,104,331.5,102.1,332.5,100.4z" style="fill:url(#SVGID_00000148646455734217142550000015760365674492101514_);"></path>
						</g>
					</mask>
					<path d="M332.5,98.5c1-1.7,2.3-3.1,3.7-4l5.9,3.4c-1.5,0.8-2.8,2.3-3.7,4c-1,1.7-1.6,3.5-1.6,5.2v30.8
						c0,0.9-0.3,1.6-0.9,1.9c-0.5,0.3-1.3,0.3-2.1-0.2c-0.8-0.5-1.6-1.3-2.1-2.2s-0.9-2-0.9-2.9v-30.8
						C330.9,102.1,331.5,100.2,332.5,98.5z" class="st22"></path>
					<g>
						<path d="M400.6,64.3c0,0-23.1,13-46.7,26.6c-2.9,1.7-5.9,3.4-8.8,5.1c-0.7,0.4-1.4,0.8-2.1,1.2
							c-0.7,0.4-1.5,0.8-2.1,1.4c-1.3,1.1-2.3,2.4-3,3.8s-1.2,3-1.3,4.5c0,1.5,0,3,0,4.4c0,2.9,0,7.5,0.1,10
							c0.1,10,0.1,16.6,0.1,16.6s0.1-6.8,0.1-16.8c0-2.5,0-7.2,0.1-10c0-1.4,0-2.9,0-4.4c0.1-1.5,0.6-2.9,1.3-4.3
							c0.7-1.3,1.7-2.6,3-3.6c0.6-0.5,1.3-0.8,2-1.3c0.7-0.4,1.4-0.8,2.1-1.2c2.9-1.6,5.7-3.3,8.6-5C377.3,78,400.6,64.3,400.6,64.3
							z" class="st16"></path>
					</g>
				</g>
				<g>
					<path d="M328.1,135.4c0-1.2,0.4-2,1.1-2.4l2.2-1.2c0.7-0.4,1.6-0.3,2.6,0.3s1.9,1.6,2.6,2.7
						c0.7,1.1,1.1,2.4,1.1,3.6v3.4l-2.2,1.2l-7.3-4.2L328.1,135.4z" class="st17"></path>
					<path d="M328.1,138.8v-3.4c0-1.2,0.4-2,1.1-2.4s1.6-0.3,2.6,0.3s1.9,1.6,2.6,2.7c0.7,1.1,1.1,2.4,1.1,3.6v3.4
						L328.1,138.8z" class="st17"></path>
					<path d="M336.5,134.8c0.7,1.1,1.1,2.4,1.1,3.6l-2.2,1.2c0-1.2-0.4-2.5-1.1-3.6L336.5,134.8z" class="st19"></path>
					<path d="M331.3,131.8c0.7-0.4,1.6-0.3,2.6,0.3s1.9,1.6,2.6,2.7l-2.2,1.2c-0.7-1.1-1.6-2.1-2.6-2.7
						c-1-0.6-1.9-0.6-2.6-0.3L331.3,131.8z" class="st17"></path>
				</g>
				<g>
					<path d="M388.3,100.7c0-1.2,0.4-2,1.1-2.4l2.2-1.2c0.7-0.4,1.6-0.3,2.6,0.3c1,0.6,1.9,1.6,2.6,2.7
						s1.1,2.4,1.1,3.6v3.4l-2.2,1.2l-7.3-4.2L388.3,100.7z" class="st17"></path>
					<path d="M388.3,104.1v-3.4c0-1.2,0.4-2,1.1-2.4s1.6-0.3,2.6,0.3c1,0.6,1.9,1.6,2.6,2.7s1.1,2.4,1.1,3.6v3.4
						L388.3,104.1z" class="st17"></path>
					<path d="M396.7,100c0.7,1.1,1.1,2.4,1.1,3.6l-2.2,1.2c0-1.2-0.4-2.5-1.1-3.6L396.7,100z" class="st19"></path>
					<path d="M391.5,97.1c0.7-0.4,1.6-0.3,2.6,0.3c1,0.6,1.9,1.6,2.6,2.7l-2.2,1.2c-0.7-1.1-1.6-2.1-2.6-2.7
						s-1.9-0.6-2.6-0.3L391.5,97.1z" class="st17"></path>
				</g>
			</g>
			<g>
				<g>
					<polygon points="444.4,55.4 469.5,69.9 469.5,72.4 441.5,88.5 416.4,74 416.4,71.5" class="st15"></polygon>
					<polygon points="441.5,88.5 469.5,72.4 469.5,69.9 441.5,86" class="st16"></polygon>
					<polygon points="441.5,88.5 441.5,86 416.4,71.5 416.4,74" class="st16"></polygon>
					<polygon points="441.5,86 469.5,69.9 444.4,55.4 416.4,71.5" class="st17"></polygon>
					<polygon points="452.2,59.9 424.2,76 424.2,78.5 423.5,78.1 423.5,75.6 451.6,59.5" class="st16"></polygon>
				</g>
				<g>
					<polygon points="443.8,56.1 463.6,67.5 463.6,69.5 453.4,75.4 453.4,75.2 433.6,63.9 433.6,61.9" class="st15"></polygon>
					<polygon points="441.6,58.1 443.8,58.1 463.6,69.5 453.4,75.4 451.2,75.4 431.4,63.9" class="st8"></polygon>
					<polygon points="441.6,58.1 443.8,58.1 463.6,69.5 453.4,75.4 451.2,75.4 431.4,63.9" class="st8"></polygon>
					<polygon points="453.4,73.4 463.6,67.5 443.8,56.1 433.6,61.9" class="st17"></polygon>
					<polygon points="453.4,73.4 453.4,75.2 433.6,63.9 433.6,61.9" class="st16"></polygon>
					<polygon points="453.4,73.4 463.6,67.5 463.6,69.5 453.4,75.4" class="st16"></polygon>
				</g>
				<g>
					<polygon points="437.6,68.5 449.7,75.6 449.7,77.5 443.8,80.9 431.7,73.9 431.7,71.9" class="st15"></polygon>
					<polygon points="435.3,70.5 437.6,70.5 449.7,77.5 443.8,80.9 441.6,80.9 429.5,73.9" class="st8"></polygon>
					<polygon points="435.3,70.5 437.6,70.5 449.7,77.5 443.8,80.9 441.6,80.9 429.5,73.9" class="st8"></polygon>
					<polygon points="449.7,77.5 443.8,80.9 443.8,78.9 449.7,75.6" class="st16"></polygon>
					<polygon points="443.8,78.9 443.8,80.9 431.7,73.9 431.7,71.9" class="st16"></polygon>
					<polygon points="449.7,75.6 443.8,78.9 431.7,71.9 437.6,68.5" class="st17"></polygon>
				</g>
			</g>
		</g>
	</g>
	<g>
		<g>
			<path d="M422.2,117.2c-2.3-9.9-6.7-23-14.7-29.7c-2.4-2-5.2-3.4-8.3-3.6c-2.9-0.2-5.5,0.8-7.7,2.5
				c-4.4,3.5-6.6,9.6-7.6,15c-0.6,3.4-0.6,7.2,0.1,10.6c0.6,2.9,1.8,5.7,4,7.7c2.7,2.5,6.2,3.1,9.8,2.8c5-0.4,10.1-2.5,14.5-4.8
				c0.6-0.3,0.9-1.1,0.5-1.7c-0.3-0.6-1.1-0.9-1.7-0.5c-4.1,2.1-8.9,4.2-13.5,4.5c-2.8,0.2-5.7-0.2-7.9-2.2c-1.8-1.6-2.8-4-3.3-6.4
				c-0.6-3.1-0.6-6.6,0-9.7c0.8-4.7,2.8-10.3,6.6-13.4c1.7-1.4,3.8-2.1,6-2c2.6,0.2,4.9,1.4,6.9,3.1c7.5,6.2,11.8,19,13.9,28.3
				c0.2,0.7,0.8,1.1,1.5,0.9C421.9,118.5,422.3,117.8,422.2,117.2L422.2,117.2z" class="st1"></path>
			<path d="M421.8,105.5c-1,0-2,0.1-2.9,0.4c0.7,2,1.4,4.1,2,6.3c1.4,0,2.7,0.6,3.6,1.6c0.9,0.9,1.4,2.2,1.4,3.7
				c0,1.4-0.6,2.7-1.4,3.7c-0.9,1-2.2,1.6-3.6,1.6s-2.7-0.6-3.6-1.6c-0.9-0.9-1.4-2.2-1.4-3.7c0-1.4,0.6-2.7,1.4-3.7
				c0.3-0.3,0.7-0.7,1.1-0.9c-0.6-2.2-1.3-4.2-1.9-6.1c-1,0.5-1.9,1.2-2.7,2c-1.8,1.8-3,4.2-3.2,6.8c-0.1,1-0.1,2.3-0.1,3.4v74.6
				c0,3.1,0.7,5.5,2.8,7.5c2,2,4.4,2.8,7.5,2.8h26.5c3.1,0,5.7-0.9,7.8-2.9c2-2,2.5-4.3,2.5-7.4v-76.9c0-3.1-1.3-5.9-3.3-7.9
				s-4.9-3.3-7.9-3.3L421.8,105.5L421.8,105.5z" class="st2"></path>
		</g>
		<g>
			<path d="M439.6,143.3c0,0.5-0.1,0.9-0.2,1.4l2.8,0.4c0.1-0.6,0.2-1.2,0.2-1.8c0-2.2-0.9-4.3-2.5-5.8
				c-1.6-1.4-3.7-2.2-5.9-2.2v1.7c-1.4-1.1-3.2-1.7-5.2-1.7v2.8c1.4,0,2.8,0.5,3.8,1.4s1.5,2.1,1.5,3.5c0,0.3,0,0.5-0.1,0.8l2.8,0.4
				c0.1-0.4,0.1-0.8,0.1-1.2c0-1.8-0.6-3.4-1.7-4.8c1,0.2,1.9,0.7,2.7,1.3C439,140.5,439.6,141.8,439.6,143.3z" class="st3"></path>
			<path d="M438.9,160.3l-9.6-4.9c-1.4-0.7-2.4-1.5-3-2.2c-0.6-0.8-0.8-1.8-0.8-3.1c0-0.4,0-0.9,0.1-1.3
				c0.1-0.4,0.2-0.9,0.3-1.2l2.4,0.7c-0.1,0.3-0.2,0.6-0.3,0.9c-0.1,0.3-0.1,0.6-0.1,0.9c0,0.4,0,0.7,0.1,1s0.2,0.5,0.4,0.7
				c0,0,0.1,0.1,0.2,0.1c0.1,0.1,0.1,0.1,0.3,0.2l10-2.1v2.9L432,154l6.9,3.3V160.3z" class="st3"></path>
			<path d="M435.5,169.2c0.3,0,0.6,0.1,1,0.1c0.8,0,1.4-0.2,1.9-0.7c0.5-0.4,0.7-1,0.7-1.7c0-2-1.2-2.7-1.2-2.7v-0.1
				l1,0.2v-2.9l-10-1.6v2.9l5.3,0.8c1,0.1,1.7,0.4,2.2,0.7s0.7,0.7,0.7,1.2c0,0.4-0.1,0.6-0.3,0.8c-0.2,0.2-0.5,0.3-1,0.3
				c-0.3,0-0.5,0-0.8-0.1c-0.1,0-0.1,0-0.2,0v2.6C435.1,169.1,435.3,169.2,435.5,169.2z" class="st3"></path>
			<polygon points="442.3,146.5 428.9,144.4 428.9,147.2 442.3,149.4" class="st3"></polygon>
		</g>
		<g>
			<path d="M426.9,180.5h15.3c1,0,1.8,0.8,1.8,1.8v12.3c0,1-0.8,1.8-1.8,1.8h-15.3c-1,0-1.8-0.8-1.8-1.8v-12.3
				C425.1,181.3,425.9,180.5,426.9,180.5z" class="st3"></path>
			<path d="M431.2,180.5v-1.8c0-0.7,0.5-1.2,1.2-1.2h4.3c0.7,0,1.2,0.5,1.2,1.2v1.8" class="st4"></path>
		</g>
		<g class="st23">
			<path d="M429.8,187.1v-0.8h1c0.3,0,0.4,0,0.5-0.1c0.1-0.1,0.1-0.2,0.1-0.4l0-0.3h0.9v6.6h-1.1v-4.9H429.8z" class="st5"></path>
			<path d="M434.4,192.1h-1.1l2.2-6.6h1.4l2.4,6.6h-1.2l-0.5-1.5h-2.6L434.4,192.1z M436.2,186.5l-1,3.2h2.1
				L436.2,186.5z" class="st5"></path>
		</g>
	</g>
</g>
</svg>
