<svg xmlns="http://www.w3.org/2000/svg" fill="none" viewBox="0 0 375 211" height="211" width="375">
<g clip-path="url(#clip0_885_685)">
<path fill="url(#paint0_radial_885_685)" d="M375.088 -0.393066H-1.33569V210.223H375.088V-0.393066Z"></path>
<g opacity="0.1">
<path fill="white" d="M186.873 55.8864C197.213 55.8857 207.321 58.9513 215.919 64.6956C224.517 70.4399 231.218 78.6049 235.176 88.1579C239.133 97.711 240.169 108.223 238.152 118.365C236.135 128.506 231.155 137.822 223.844 145.134C216.532 152.445 207.216 157.425 197.075 159.442C186.933 161.459 176.421 160.423 166.868 156.466C157.315 152.508 149.15 145.807 143.406 137.209C137.661 128.611 134.596 118.503 134.596 108.163C134.597 94.2984 140.105 81.0023 149.909 71.1988C159.712 61.3953 173.008 55.8874 186.873 55.8864ZM186.873 22.8629C165.761 22.878 145.407 30.7344 129.76 44.9079C114.114 59.0815 104.29 78.5617 102.194 99.5692C100.098 120.577 105.88 141.614 118.418 158.599C130.956 175.585 149.357 187.307 170.049 191.493C190.742 195.678 212.252 192.029 230.406 181.252C248.56 170.474 262.063 153.338 268.297 133.168C274.53 112.997 273.049 91.2303 264.141 72.0899C255.233 52.9495 239.533 37.8003 220.087 29.5814C209.581 25.129 198.283 22.8438 186.873 22.8629Z" opacity="0.7"></path>
</g>
<g opacity="0.2">
<path fill="white" d="M186.873 55.8864C197.213 55.8857 207.321 58.9513 215.919 64.6956C224.517 70.4399 231.218 78.6049 235.176 88.1579C239.133 97.711 240.169 108.223 238.152 118.365C236.135 128.506 231.155 137.822 223.844 145.134C216.532 152.445 207.216 157.425 197.075 159.442C186.933 161.459 176.421 160.423 166.868 156.466C157.315 152.508 149.15 145.807 143.406 137.209C137.661 128.611 134.596 118.503 134.596 108.163C134.597 94.2984 140.105 81.0023 149.909 71.1988C159.712 61.3954 173.008 55.8874 186.873 55.8864ZM186.873 48.5479C173.119 48.5551 159.79 53.3166 149.145 62.0258C138.5 70.735 131.193 82.8563 128.462 96.3361C125.731 109.816 127.743 123.826 134.159 135.991C140.574 148.157 150.998 157.731 163.664 163.092C164.817 163.581 165.977 164.03 167.147 164.438L167.513 164.559L167.88 164.68L168.247 164.798L168.614 164.915L168.981 165.025L169.348 165.139L169.715 165.246L170.064 165.352L170.431 165.458L170.797 165.557L171.164 165.656C179.366 167.921 187.958 168.404 196.361 167.072C204.765 165.741 212.787 162.627 219.887 157.939C226.988 153.251 233.003 147.098 237.529 139.892C242.054 132.687 244.985 124.596 246.125 116.165C247.265 107.733 246.587 99.1544 244.136 91.0062C241.686 82.858 237.521 75.3286 231.919 68.9236C226.318 62.5187 219.411 57.3866 211.662 53.8721C203.914 50.3577 195.502 48.5423 186.994 48.5479H186.873Z" opacity="0.9"></path>
</g>
<path fill="#3C6977" d="M233.072 207.361C232.735 204.301 230.724 201.7 228.563 199.509C216.388 187.151 198.372 183.045 181.424 179.365C152.069 173.005 122.803 166.272 93.6252 159.165C86.228 157.364 78.8197 155.54 71.272 154.516C54.3933 152.23 37.1477 153.995 20.3828 150.979C14.2441 149.878 5.1076 146.521 -1.36133 148.752V210.763H232.738C233.082 209.664 233.196 208.506 233.072 207.361Z"></path>
<path fill="url(#paint1_linear_885_685)" d="M186.876 160.439C215.748 160.439 239.152 137.034 239.152 108.163C239.152 79.2916 215.748 55.8867 186.876 55.8867C158.005 55.8867 134.6 79.2916 134.6 108.163C134.6 137.034 158.005 160.439 186.876 160.439Z"></path>
<path fill="url(#paint2_linear_885_685)" d="M-1.33936 -3.56326V117.688C-1.33936 118.341 -1.01646 119.772 -1.01646 120.425H214.407C214.796 120.425 215.104 120.59 215.508 120.59C216.166 117.718 216.178 114.735 215.544 111.858C214.909 108.98 213.644 106.279 211.838 103.95C210.872 102.655 209.648 101.574 208.242 100.776C207.175 100.259 206.056 99.8585 204.903 99.5801C201.289 98.571 197.623 97.4519 194.031 98.538C194.137 96.3132 193.86 94.0867 193.213 91.9553C192.976 91.0813 192.59 90.2547 192.072 89.5116C191.063 88.165 189.441 87.4348 187.852 86.8844C185.691 86.1505 183.335 85.6332 181.13 86.2386C180.859 86.312 180.326 86.2386 180.44 85.9891C180.684 85.4173 180.854 84.8168 180.947 84.2022C182.161 76.9957 177.204 69.7636 170.651 66.5236C165.767 64.1092 160.204 63.5551 154.829 63.9367C152.535 64.1019 149.978 64.0395 147.857 64.8247C145.421 65.7163 143.281 67.2831 140.812 68.1271C138.926 68.7729 139.15 68.2371 137.781 66.4832C136.795 65.1818 135.703 63.9644 134.516 62.8433C132.534 61.0087 130.112 59.585 127.456 59.207C126.266 59.0706 125.066 59.0424 123.871 59.1227C122.469 59.174 121.163 59.4125 119.761 59.4639C121.299 51.575 122.697 43.4328 121.13 35.5512C119.563 27.6696 114.309 20.0008 106.578 17.8433C103.916 17.1634 101.152 16.9843 98.4246 17.3149C91.8015 17.9901 85.1675 21.0062 82.0523 26.8917C79.1077 23.7902 75.0874 21.9337 70.817 21.7034C66.601 21.4942 62.1244 22.617 58.9358 25.3727C61.431 17.0177 54.2428 8.21879 46.1227 7.18405C41.2352 6.56027 37.2798 8.35088 32.939 10.1892C31.8639 6.99325 32.6748 4.1202 29.5523 1.5774C25.406 -1.77999 21.7734 -5.61438 16.5447 -6.73351C10.6885 -7.98474 4.6489 -3.56326 -1.33936 -3.56326Z" opacity="0.29"></path>
<path fill="url(#paint3_linear_885_685)" d="M-115.215 -9.59171V158.942C-115.215 159.844 -114.771 161.837 -114.771 162.743H184.642C185.185 162.743 185.61 162.974 186.153 162.974C187.065 158.983 187.079 154.839 186.194 150.841C185.31 146.844 183.549 143.092 181.038 139.858C179.655 138.104 178.022 136.497 176.044 135.455C174.561 134.736 173.005 134.178 171.403 133.793C166.38 132.391 161.283 130.835 156.289 132.343C156.438 129.25 156.053 126.155 155.152 123.192C154.825 121.975 154.29 120.825 153.57 119.791C152.168 117.919 149.901 116.903 147.699 116.143C144.694 115.109 141.417 114.4 138.354 115.241C137.987 115.343 137.253 115.241 137.4 114.896C137.737 114.102 137.973 113.269 138.1 112.415C139.788 102.398 132.901 92.3444 123.79 87.8312C114.474 83.2263 100.549 82.4704 90.9026 86.591C86.0811 88.6495 81.8761 92.6343 78.0784 87.7652C76.7135 85.9524 75.2003 84.2562 73.5542 82.6942C70.8023 80.1698 67.4412 78.17 63.7426 77.6417C62.0882 77.457 60.4208 77.419 58.7597 77.5279C56.8113 77.6013 54.995 77.9315 53.0467 78.0013C55.1822 67.0375 57.1379 55.7214 54.951 44.7649C52.7641 33.8085 45.5246 23.1603 34.7626 20.1625C31.0934 19.1387 27.2186 19.0617 23.4319 19.4286C14.2294 20.3679 5.00482 24.5656 0.682411 32.7334C-3.41017 28.4292 -8.99259 25.8513 -14.923 25.5269C-20.7939 25.2334 -27.0096 26.7965 -31.4348 30.6456C-27.9636 19.036 -37.9551 6.79528 -49.2454 5.36426C-56.0336 4.49831 -61.5302 6.98608 -67.5661 9.54357C-69.0595 5.10374 -67.933 1.10423 -72.2738 -2.42561C-78.0382 -7.11494 -83.0872 -12.4427 -90.3523 -13.9985C-98.4981 -15.7414 -106.893 -9.59171 -115.215 -9.59171Z" opacity="0.29"></path>
<path fill="url(#paint4_linear_885_685)" d="M410.629 7.99863V110.837C410.629 111.388 410.353 112.606 410.353 113.156H227.664C227.334 113.156 227.073 113.299 226.739 113.299C226.182 110.862 226.173 108.332 226.713 105.89C227.253 103.449 228.328 101.159 229.862 99.1838C230.681 98.0848 231.719 97.1677 232.911 96.4905C233.815 96.0533 234.764 95.7138 235.74 95.4778C238.807 94.6229 241.915 93.6726 244.964 94.5935C244.868 92.7068 245.098 90.8176 245.643 89.0089C245.843 88.2673 246.169 87.5659 246.608 86.9358C247.463 85.7946 248.839 85.1745 250.186 84.7085C252.02 84.0774 254.02 83.6444 255.888 84.1581C256.119 84.2205 256.57 84.1581 256.471 83.949C256.264 83.4645 256.121 82.9551 256.046 82.4336C255.015 76.3205 259.216 70.1855 264.775 67.4409C268.917 65.3898 273.636 64.9201 278.197 65.2393C280.138 65.3751 282.307 65.3237 284.119 65.9732C286.185 66.7327 287.998 68.061 290.093 68.7728C291.696 69.3196 291.506 68.8646 292.661 67.3785C293.498 66.2741 294.425 65.2408 295.432 64.289C297.112 62.7479 299.163 61.5297 301.42 61.2068C302.43 61.0936 303.448 61.0703 304.462 61.1371C305.651 61.1811 306.759 61.3829 307.948 61.427C306.641 54.7342 305.449 47.8286 306.784 41.1469C308.12 34.4651 312.541 27.9632 319.109 26.1322C321.366 25.554 323.71 25.4022 326.022 25.6845C331.64 26.2569 337.269 28.8144 339.907 33.8046C342.408 31.1724 345.821 29.5969 349.447 29.4015C353.025 29.2254 356.822 30.1757 359.527 32.5241C357.406 25.4424 363.504 17.9791 370.395 17.1131C374.538 16.5847 377.891 18.1038 381.575 19.6816C382.485 16.9737 381.799 14.5446 384.448 12.3797C387.963 9.51771 391.053 6.26673 395.478 5.31639C400.424 4.24496 405.547 7.99863 410.629 7.99863Z" opacity="0.29"></path>
<path fill="url(#paint5_linear_885_685)" d="M507.211 2.88366V145.824C507.211 146.591 506.844 148.282 506.844 149.049H252.879C252.417 149.049 252.057 149.244 251.595 149.244C250.817 145.858 250.802 142.342 251.549 138.95C252.297 135.557 253.789 132.373 255.917 129.628C257.056 128.101 258.499 126.826 260.155 125.885C261.413 125.275 262.733 124.803 264.092 124.476C268.352 123.287 272.675 121.966 276.909 123.247C276.783 120.624 277.109 117.999 277.874 115.486C278.151 114.453 278.605 113.476 279.217 112.599C280.406 111.014 282.314 110.151 284.189 109.505C286.739 108.629 289.517 108.038 292.115 108.742C292.434 108.83 293.061 108.742 292.925 108.449C292.637 107.775 292.437 107.067 292.331 106.343C290.896 97.8482 296.734 89.3208 304.465 85.5047C312.365 81.597 324.177 80.9585 332.352 84.4517C336.439 86.1982 340.006 89.5886 343.224 85.4497C344.387 83.9145 345.676 82.4785 347.077 81.1567C349.41 79.0138 352.261 77.3186 355.399 76.8709C356.802 76.7143 358.217 76.6824 359.626 76.7755C361.277 76.8342 362.818 77.1168 364.469 77.1755C362.656 67.8775 361.002 58.2787 362.855 48.9881C364.708 39.6975 370.861 30.6637 379.986 28.1173C383.094 27.2513 386.382 27.1706 389.596 27.4972C397.404 28.2934 405.224 31.8453 408.897 38.7839C412.368 35.1313 417.104 32.9443 422.135 32.6708C427.107 32.4213 432.384 33.7459 436.145 37.0116C433.209 27.1633 441.674 16.7902 451.251 15.572C457.008 14.8382 461.672 16.9443 466.79 19.1129C468.056 15.3482 467.102 11.9578 470.783 8.96365C475.67 4.98616 479.956 0.465609 486.113 -0.851661C493.033 -2.33038 500.152 2.88366 507.211 2.88366Z" opacity="0.29"></path>
<path fill="url(#paint6_linear_885_685)" d="M374.739 210.231V110.757H-1.33936L-0.994444 158.01V159.386C2.90967 159.863 6.79176 160.431 10.6628 160.813C15.6567 161.936 48.8233 164.093 43.4405 170.078C42.1599 171.505 51.5129 173.901 53.6631 175.002C61.9116 178.95 71.5068 177.875 80.3387 178.671C96.6817 179.592 106.427 184.003 119.618 189.654C125.547 190.508 131.38 191.936 137.033 193.917C148.231 196.618 158.681 192.684 169.803 192.325C183.482 192.835 192.85 195.741 204.727 199.256C215.944 202.43 228.662 205.31 239.105 211.6L374.739 210.231Z"></path>
<path fill="url(#paint7_linear_885_685)" d="M-23.4908 110.827H377.66C382.595 110.827 382.797 122.766 377.884 123.24L148.066 145.285C146.467 145.437 144.856 145.408 143.263 145.2L-23.7953 123.229C-28.6608 122.59 -28.3709 110.827 -23.4908 110.827Z" opacity="0.2"></path>
<path fill="url(#paint8_linear_885_685)" d="M134.538 110.753C134.684 113.365 135.961 114.921 138.867 115.398C143.021 116.216 147.288 116.275 151.504 116.499C161.467 116.928 171.469 116.818 181.424 117.233C182.525 117.6 178.154 117.574 177.736 117.6C168.405 117.794 159.063 117.882 149.751 118.488C144.713 119.145 133.918 118.543 139.66 126.421C140.258 127.011 140.537 127.977 139.576 128.34C136.273 129.778 132.531 129.708 128.997 130.031C123.126 130.398 117.255 130.534 111.355 130.655C107.051 130.956 102.057 130.435 98.1018 131.183C108.479 131.837 118.965 131.514 129.36 132.207C158.403 133.029 129.533 142.228 163.914 143.193C175.38 143.714 186.935 143.615 198.376 144.052C188.781 144.437 179.138 144.389 169.535 144.785C163.525 145.398 155.456 144.503 150.239 147.64C149.45 148.679 150.15 149.644 150.605 150.961C152.099 154.245 153.445 153.632 154.939 156.912C156.443 160.494 155.086 163.301 158.036 166.291C160.843 168.265 164.578 167.759 167.679 168.896C170.225 171.035 164.211 171.652 163.015 172.397C160.659 173.061 160.428 177.879 163.228 177.647C166.24 177.647 166.802 175.96 167.631 173.978C168.677 172.389 169.862 170.863 170.933 169.304C173.825 166.757 178.782 165.895 181.049 161.704C180.683 160.031 178.151 160.068 177.189 158.787C175.428 155.823 181.457 156.153 183.112 155.654C185.605 155.315 188.036 154.617 190.329 153.581C192.443 152.792 195.488 149.625 197.029 147.846C203.34 144.752 210.807 145.541 217.636 144.782C219.672 144.683 219.995 143.498 217.691 143.281C213.699 142.698 209.285 143.164 205.527 141.593C204.104 139.447 219.104 134.321 205.957 132.692C194.017 131.415 181.959 131.668 169.968 131.338C167.873 131.275 165.65 131.308 163.576 131.158C180.037 130.424 196.816 131.238 213.233 129.019C222.688 127.305 221.305 126.784 227.943 121.353C232.911 119.537 238.389 119.585 243.614 119.2C250.689 118.899 257.774 118.748 264.852 118.598C268.081 118.352 272.172 118.814 274.935 118.187C266.397 117.703 257.789 117.849 249.25 117.42H248.982C247.386 117.189 235.256 117.347 235.773 115.303C237.608 114.202 240.639 113.905 239.13 110.793L134.538 110.753Z" opacity="0.77"></path>
<path fill="url(#paint9_linear_885_685)" d="M196.229 167.62H305.005C306.344 167.62 306.403 169.285 305.067 169.352L242.748 172.437C242.314 172.463 241.879 172.463 241.446 172.437L196.148 169.374C194.827 169.26 194.905 167.62 196.229 167.62Z" opacity="0.5"></path>
<path fill="url(#paint10_linear_885_685)" d="M98.7878 161.881H152.264C152.921 161.881 152.95 162.703 152.293 162.732L121.655 164.248C121.442 164.259 121.229 164.259 121.016 164.248L98.7474 162.739C98.098 162.688 98.1383 161.881 98.7878 161.881Z" opacity="0.5"></path>
<path fill="url(#paint11_linear_885_685)" d="M79.9388 128.597H125.9C126.469 128.597 126.491 129.301 125.926 129.331L99.6061 130.629C99.4228 130.64 99.239 130.64 99.0557 130.629L79.9168 129.334C79.3481 129.29 79.3811 128.597 79.9388 128.597Z" opacity="0.25"></path>
<path fill="url(#paint12_linear_885_685)" d="M45.4146 115.079H78.7426C79.1536 115.079 79.1719 115.593 78.761 115.611L59.6807 116.554C59.5487 116.561 59.4164 116.561 59.2845 116.554L45.4036 115.615C44.9853 115.582 45.0073 115.079 45.4146 115.079Z" opacity="0.25"></path>
<path fill="url(#paint13_linear_885_685)" d="M372.509 110.716H250.12C248.615 110.716 248.549 111.645 250.05 111.681L320.166 113.395C320.654 113.395 321.146 113.395 321.634 113.395L372.6 111.689C374.086 111.63 373.998 110.716 372.509 110.716Z" opacity="0.7"></path>
<path fill="white" d="M237.879 213.812L232.126 211.178C230.236 210.323 228.387 209.56 226.46 208.895C222.615 207.549 218.568 206.514 214.487 205.402L202.276 202.1L196.17 200.449L193.125 199.631C192.131 199.366 191.132 199.113 190.127 198.897C186.086 197.981 181.999 197.282 177.883 196.805C175.817 196.556 173.74 196.347 171.645 196.163C169.643 196.028 167.633 196.051 165.635 196.233C163.547 196.387 161.382 196.523 159.25 196.6C157.118 196.677 154.975 196.684 152.836 196.651C150.697 196.618 148.569 196.537 146.411 196.376C144.233 196.225 142.066 195.934 139.924 195.506C137.816 195.03 135.734 194.446 133.686 193.756C132.688 193.444 131.709 193.151 130.733 192.897C129.756 192.644 128.791 192.453 127.771 192.285C125.746 191.947 123.596 191.698 121.416 191.136C119.303 190.557 117.241 189.808 115.248 188.898C113.285 188.036 111.406 187.173 109.487 186.425C107.568 185.676 105.602 185.005 103.617 184.407C99.6271 183.221 95.567 182.287 91.4603 181.611C87.3433 180.914 83.1897 180.444 78.9847 180.029C74.7797 179.615 70.5711 179.2 66.3624 178.532C64.2562 178.198 62.1538 177.798 60.0733 177.292C59.0349 177.035 57.9965 176.764 56.9691 176.452C55.9417 176.14 54.94 175.828 53.9272 175.498C51.8863 174.842 49.8814 174.078 47.9206 173.212C46.9311 172.764 45.9649 172.267 45.0256 171.722C44.5559 171.447 44.0899 171.157 43.6349 170.849C43.5534 170.79 43.4689 170.737 43.3817 170.687C43.301 170.643 43.1983 170.596 43.0699 170.537C42.7285 170.396 42.4163 170.193 42.1489 169.939C42.0674 169.857 42.0028 169.761 41.9588 169.654C41.9147 169.548 41.892 169.434 41.892 169.319C41.892 169.203 41.9147 169.089 41.9588 168.983C42.0028 168.877 42.0674 168.78 42.1489 168.699C42.2764 168.576 42.4371 168.493 42.6112 168.46C43.0551 168.389 43.5057 168.369 43.9542 168.401C44.3724 168.423 44.7577 168.471 45.1246 168.504L44.8678 168.522C44.8046 168.534 44.746 168.563 44.699 168.607C44.6652 168.633 44.6386 168.667 44.622 168.706C44.622 168.75 44.622 168.739 44.622 168.739C44.6205 168.746 44.6205 168.754 44.622 168.761C44.5865 168.721 44.5443 168.687 44.4972 168.662C44.2854 168.552 44.0628 168.465 43.8331 168.401L42.9488 168.141C41.7709 167.792 40.5858 167.469 39.3969 167.154C37.0241 166.528 34.6317 165.96 32.2198 165.451C27.4057 164.427 22.5403 163.617 17.6564 162.963C12.7726 162.31 7.83746 161.632 2.97934 160.872C0.535604 160.527 -1.96317 160.329 -4.42159 159.804C-5.66339 159.557 -6.87506 159.176 -8.03582 158.67C-8.62542 158.41 -9.16642 158.052 -9.63563 157.61C-9.87857 157.395 -10.0909 157.148 -10.2667 156.876C-10.4379 156.59 -10.5221 156.259 -10.5089 155.926C-10.4274 156.213 -10.2831 156.479 -10.0864 156.703C-9.88967 156.928 -9.64546 157.106 -9.37144 157.225C-8.8504 157.504 -8.24864 157.669 -7.72394 157.94C-6.60039 158.403 -5.4306 158.745 -4.23445 158.96C-1.84575 159.434 0.612659 159.588 3.1041 159.881C8.01726 160.564 12.9011 161.162 17.8179 161.716C22.7347 162.27 27.6516 163.026 32.528 163.976C34.9742 164.448 37.3996 164.982 39.8042 165.576C41.0126 165.872 42.2161 166.185 43.4148 166.515L44.3137 166.765C44.6756 166.845 45.0266 166.969 45.3595 167.132C45.5839 167.252 45.7852 167.411 45.9539 167.601C46.0016 167.66 46.0383 167.704 46.0897 167.778C46.1376 167.848 46.1793 167.923 46.2144 168.001C46.2796 168.147 46.3228 168.302 46.3428 168.46C46.3887 168.778 46.3416 169.103 46.2071 169.396C46.1188 169.575 45.9938 169.734 45.8402 169.862C45.673 170.004 45.4743 170.105 45.2604 170.155C45.1801 170.166 45.0986 170.166 45.0182 170.155C44.3409 170.06 43.6543 170.05 42.9745 170.126L43.4331 168.636C43.5555 168.738 43.6945 168.817 43.8441 168.871C43.9578 168.919 44.0972 168.981 44.2477 169.058C44.3981 169.135 44.5853 169.256 44.6697 169.308C45.0916 169.586 45.5283 169.847 45.9686 170.097C46.8625 170.595 47.7809 171.048 48.7205 171.454C50.6316 172.261 52.5839 172.967 54.5694 173.568C55.5637 173.872 56.5765 174.18 57.5745 174.456C58.5725 174.731 59.5779 174.984 60.587 175.219C62.6087 175.674 64.6635 176.03 66.7257 176.32C70.8573 176.903 75.0403 177.241 79.2452 177.589C83.4502 177.938 87.6846 178.323 91.9006 178.984C96.1305 179.601 100.317 180.486 104.435 181.633C106.497 182.216 108.544 182.873 110.559 183.625C112.573 184.377 114.551 185.24 116.463 186.043C118.32 186.855 120.239 187.518 122.201 188.028C124.117 188.487 126.172 188.7 128.307 189.015C129.375 189.173 130.476 189.382 131.551 189.632C132.626 189.881 133.664 190.186 134.684 190.487C136.642 191.109 138.629 191.631 140.64 192.053C144.588 192.787 148.741 192.905 152.906 192.919C154.988 192.919 157.067 192.868 159.144 192.765C161.228 192.666 163.268 192.505 165.382 192.314C167.581 192.081 169.796 192.022 172.005 192.138C174.12 192.29 176.243 192.473 178.371 192.688C182.642 193.113 186.887 193.767 191.088 194.648C192.142 194.868 193.191 195.114 194.24 195.382L197.315 196.156L203.414 197.756L215.68 200.852C219.753 201.894 223.899 202.874 228.045 204.243C230.115 204.922 232.181 205.736 234.147 206.584L239.938 209.119L239.982 209.138C240.321 209.25 240.633 209.431 240.898 209.671C241.163 209.91 241.375 210.202 241.52 210.528C241.666 210.854 241.742 211.207 241.744 211.564C241.746 211.922 241.673 212.275 241.53 212.603C241.387 212.93 241.178 213.224 240.915 213.466C240.652 213.708 240.342 213.892 240.004 214.008C239.666 214.123 239.308 214.166 238.952 214.135C238.596 214.104 238.251 213.999 237.938 213.827L237.879 213.812Z"></path>
<g opacity="0.6">
<path fill="white" d="M241.214 207.398C239.341 206.444 237.423 205.568 235.461 204.771C233.494 203.993 231.506 203.259 229.498 202.595C225.462 201.263 221.345 200.129 217.206 199.058L210.969 197.465L207.85 196.654L204.745 195.811C200.61 194.688 196.482 193.587 192.321 192.677C188.166 191.75 183.965 191.041 179.736 190.552C177.622 190.31 175.49 190.105 173.406 189.998C171.318 189.998 169.176 190.064 167.051 190.193C162.798 190.446 158.52 190.89 154.209 191.011C149.897 191.132 145.505 190.908 141.245 189.91H141.19C135.633 188.165 129.95 186.854 124.19 185.988C124.148 185.981 124.106 185.97 124.065 185.955C119.662 184.293 115.259 182.605 110.816 181.133C108.588 180.4 106.347 179.717 104.083 179.119C101.819 178.521 99.54 177.992 97.2357 177.563C94.9314 177.134 92.6197 176.767 90.2897 176.495L88.5468 176.29L86.7893 176.125C85.6188 176.018 84.4483 175.879 83.2814 175.787C78.6104 175.395 73.8844 175.266 69.1841 174.624C66.8245 174.323 64.4931 173.832 62.2124 173.156C61.6437 172.98 61.0786 172.789 60.5172 172.584C59.9558 172.379 59.3908 172.129 58.8771 171.938C57.7763 171.549 56.6572 171.204 55.5344 170.863C54.4116 170.522 53.2814 170.159 52.1623 169.762C51.6009 169.56 51.0615 169.351 50.4891 169.095C50.2028 168.967 49.9268 168.817 49.6635 168.647C49.5038 168.548 49.3612 168.424 49.2416 168.28C49.1466 168.157 49.095 168.006 49.0948 167.851C49.0984 167.766 49.1191 167.682 49.1557 167.605C49.1923 167.528 49.2439 167.459 49.3076 167.403L49.4801 167.253C49.5241 167.208 49.5681 167.168 49.6085 167.12C49.6833 167.043 49.7453 166.954 49.792 166.856C49.8293 166.776 49.8442 166.686 49.8352 166.598C49.8261 166.509 49.7935 166.425 49.7406 166.354C49.4076 165.948 48.9806 165.629 48.4967 165.425C47.4487 164.937 46.3595 164.543 45.242 164.247C42.9928 163.62 40.6885 163.147 38.3805 162.732C36.0725 162.317 33.7425 161.943 31.4089 161.602C29.0752 161.261 26.7489 160.941 24.4373 160.629L20.9331 160.156C19.7663 159.987 18.6031 159.841 17.4289 159.602H17.451C13.2973 159.118 9.1694 158.472 5.03045 157.925C3.99939 157.786 2.95731 157.665 1.92624 157.518C0.895178 157.371 -0.146896 157.257 -1.18163 157.089C-2.22005 156.934 -3.24284 156.689 -4.23814 156.355C-4.73923 156.188 -5.21283 155.948 -5.64347 155.643C-5.8635 155.496 -6.04854 155.303 -6.1855 155.076C-6.32246 154.85 -6.40799 154.596 -6.43604 154.333C-6.39597 154.59 -6.30078 154.835 -6.157 155.052C-6.01322 155.268 -5.82427 155.451 -5.60311 155.588C-5.16965 155.873 -4.69597 156.092 -4.19778 156.237C-3.19876 156.529 -2.17594 156.731 -1.14127 156.843C-0.106534 156.971 0.931871 157.059 1.97395 157.158C3.01602 157.257 4.04709 157.39 5.08549 157.525C9.23544 158.043 13.367 158.659 17.5133 159.114H17.5353C18.6728 159.334 19.847 159.481 21.0102 159.635L24.5106 160.083C26.848 160.376 29.1853 160.677 31.519 161.004C33.8526 161.33 36.1826 161.683 38.4906 162.086C40.7986 162.49 43.1359 162.945 45.4255 163.554C46.588 163.85 47.7215 164.251 48.8123 164.75C49.0936 164.887 49.3646 165.044 49.6232 165.22C49.9112 165.408 50.1604 165.649 50.357 165.932C50.4676 166.102 50.5378 166.295 50.5625 166.497C50.5845 166.706 50.5503 166.918 50.4634 167.109C50.3859 167.279 50.2832 167.436 50.1589 167.575C50.1002 167.641 50.0378 167.7 49.9791 167.759L49.8837 167.84L49.8176 167.898C49.8176 167.898 49.8176 167.898 49.8176 167.829C49.8176 167.759 49.8176 167.781 49.8176 167.807C49.8854 167.887 49.966 167.955 50.0561 168.008C50.29 168.156 50.5354 168.285 50.79 168.394C51.311 168.629 51.8541 168.83 52.4045 169.025C53.5053 169.392 54.6281 169.759 55.7545 170.093C56.881 170.426 58.0075 170.76 59.1413 171.157C59.732 171.373 60.2421 171.601 60.7888 171.791C61.3355 171.982 61.8895 172.158 62.4436 172.338C64.6849 172.986 66.9745 173.454 69.2905 173.736C73.9321 174.334 78.6398 174.43 83.3511 174.789C84.5363 174.874 85.7032 175.002 86.8773 175.101L88.6386 175.255L90.4035 175.45C92.7555 175.707 95.0965 176.059 97.4265 176.477C99.7565 176.895 102.068 177.42 104.365 177.996C106.662 178.572 108.926 179.262 111.179 179.981C115.677 181.449 120.095 183.093 124.513 184.722L124.385 184.689C130.21 185.527 135.963 186.814 141.59 188.538H141.531C145.644 189.452 149.89 189.639 154.131 189.488C158.373 189.338 162.633 188.868 166.934 188.575C169.091 188.432 171.23 188.329 173.428 188.333C175.63 188.428 177.765 188.619 179.912 188.85C184.204 189.313 188.468 190 192.688 190.908C196.912 191.796 201.076 192.879 205.226 193.972L208.33 194.79L211.438 195.568L217.676 197.117C221.841 198.163 226.005 199.274 230.122 200.599C232.181 201.259 234.221 201.993 236.243 202.778C238.264 203.564 240.249 204.47 242.201 205.446L241.214 207.398Z" opacity="0.6"></path>
</g>
<path fill="#3C6977" d="M342.549 73.2497C342.549 73.2497 347.796 73.5983 347.796 68.1787C347.796 62.7592 343.76 63.1041 343.76 63.1041V61.009H340.96V57.8607H339.037C333.966 57.8607 333.266 47.5427 328.029 47.5427V44.9192C324.184 44.9192 307.221 36.1753 307.221 30.576V26.9067C303.919 26.9067 301.853 23.8319 301.805 21.733C302.686 21.1153 303.347 20.2336 303.694 19.2153C304.04 18.197 304.054 17.0949 303.733 16.0683C303.412 15.0417 302.773 14.1438 301.908 13.5043C301.043 12.8648 299.997 12.5169 298.922 12.5108C297.846 12.5048 296.796 12.8409 295.924 13.4706C295.052 14.1004 294.403 14.991 294.07 16.014C293.738 17.0369 293.739 18.1391 294.074 19.1612C294.409 20.1833 295.061 21.0724 295.934 21.7C295.909 23.7952 293.817 26.9067 290.515 26.9067V30.576C290.515 36.1753 273.552 44.9192 269.706 44.9192V47.5427C264.459 47.5427 263.758 57.8607 258.699 57.8607H256.776V61.009H253.972V63.0931C253.972 63.0931 249.936 62.7445 249.936 68.1677C249.936 73.5909 255.183 73.2497 255.183 73.2497L253.782 177.479L253.532 221.404L342.556 220.325L342.549 73.2497Z"></path>
<g opacity="0.4" style="mix-blend-mode:soft-light">
<path fill="black" d="M315.132 58.2607H256.809V61.3686H315.132V58.2607Z"></path>
</g>
<path fill="url(#paint14_linear_885_685)" d="M295.986 133.294L255.018 92.3738V73.6128H295.986V133.294Z" opacity="0.5" style="mix-blend-mode:soft-light"></path>
<g opacity="0.4" style="mix-blend-mode:soft-light">
<path fill="black" d="M307.228 27.2661H290.632V30.5171H307.228V27.2661Z"></path>
</g>
<g opacity="0.4" style="mix-blend-mode:soft-light">
<path fill="black" d="M328.037 45.2383H269.714V47.9095H328.037V45.2383Z"></path>
</g>
<path fill="#0C4456" d="M274.043 115.42L270.521 114.371V86.2681L274.043 87.3212V115.42Z"></path>
<path fill="#11485A" d="M298.921 12.5596C298.055 12.5596 297.354 14.8309 297.354 17.6305C297.313 19.0316 297.534 20.4281 298.007 21.7474C298.007 23.8463 297.354 26.9541 296.334 26.9541V30.6234C296.334 36.2191 291.098 44.9629 289.909 44.9629V47.5865C288.291 47.5865 288.075 57.9045 286.508 57.9045H285.917V61.0527H285.051V63.1516C285.051 63.1516 283.804 62.803 283.804 68.2298C283.804 73.6567 285.422 73.3008 285.422 73.3008L284.989 221.455H344.347L342.563 73.3008C342.563 73.3008 347.811 73.6493 347.811 68.2298C347.811 62.8103 343.774 63.1589 343.774 63.1589V61.0601H340.975V57.9118H339.052C333.981 57.9118 333.28 47.5938 328.044 47.5938V44.9666C324.199 44.9666 307.232 36.2227 307.232 30.6271V26.9578C303.952 26.9578 301.864 23.883 301.816 21.7878C302.699 21.1693 303.362 20.2855 303.709 19.2645C304.056 18.2436 304.068 17.1388 303.744 16.1105C303.42 15.0821 302.777 14.1838 301.907 13.546C301.038 12.9081 299.988 12.5638 298.91 12.5632"></path>
<path fill="#023C4F" d="M331.086 179.915H299.681V80.0303L331.086 79.4102V179.915Z"></path>
<path fill="url(#paint15_linear_885_685)" d="M331.086 184.23L318.625 183.904V79.6671L331.086 79.3662V184.23Z"></path>
<path fill="#3C6977" d="M331.093 167.737V137.209L342.835 133.686L377.594 142.092L377.396 194.446L331.093 167.737Z"></path>
<path fill="#11485A" d="M82.6468 204.448C75.3523 206.194 75.5981 213.166 76.1228 213.276C87.1306 216.032 96.1974 222.725 105.958 227.388L107.26 228.041C108.559 228.694 109.852 229.357 111.139 230.03C111.616 230.221 112.096 230.397 112.577 230.595C113.058 230.793 113.538 230.962 114.045 231.146L114.881 231.487C122.954 234.789 130.292 237.358 134.828 238.044C146.19 239.727 157.589 241.146 169.025 242.3C188.825 244.304 208.684 245.508 228.603 245.914C248.637 246.322 268.734 245.914 288.644 248.156C301.314 249.576 313.844 252.057 326.47 253.825C351.876 257.379 377.604 258.036 403.158 255.785L402.975 215.423C402.975 213.548 402.905 211.511 401.723 210.058C400.736 208.844 399.155 208.293 397.687 207.794C385.857 203.828 373.984 199.85 361.728 197.48C356.467 196.46 351.131 195.737 346.013 194.148C340.96 192.581 336.208 190.2 331.479 187.83C321.227 182.693 304.19 169.45 292.724 171.186C284.457 172.437 277.841 178.822 270.796 183.548C270.382 183.827 269.967 184.098 269.549 184.362C269.53 184.373 94.693 201.557 82.6468 204.448Z"></path>
<path fill="#3C6977" d="M351.528 221.767C351.528 221.767 323.509 198.65 302.488 189.98C297.431 187.888 289.278 184.476 286.049 179.919C283.936 176.947 284.582 172.32 284.582 168.544C284.582 161.543 284.64 154.516 284.64 147.515L296.448 144.253L377.623 173.872L377.392 221.767H351.528Z"></path>
<path fill="url(#paint16_linear_885_685)" d="M377.594 142.093L342.934 133.477L331.196 137L377.587 150.635L377.594 142.093Z"></path>
<path fill="url(#paint17_linear_885_685)" d="M377.627 170.819L299.681 143.285L285.217 147.516L377.627 183.522V170.819Z"></path>
<path fill="#11485A" d="M285.323 173.538C285.323 173.538 283.206 162.776 275.515 159.701C275.515 159.701 281.496 173.028 281.668 175.42C281.668 175.42 272.271 163.631 263.557 162.262C263.557 162.262 273.809 173.861 275.346 177.372C275.346 177.372 262.533 165.682 247.155 165.168C247.155 165.168 266.632 178.495 270.048 182.414C270.048 182.414 263.388 177.798 256.552 179.508C256.552 179.508 272.099 185.68 274.165 189.085H285.338L285.323 173.538Z"></path>
<path fill="#11485A" d="M129.639 49.9862C129.158 50.1147 132.145 46.5371 135.594 49.9862C135.594 49.9862 137.796 47.6342 140.456 49.9862C140.456 49.9862 135.594 50.2981 135.048 52.6501C135.048 52.6501 133.73 48.8891 129.639 49.9862Z"></path>
<path fill="#11485A" d="M141.373 55.8643C141.007 55.9633 143.333 53.171 146.026 55.8643C146.026 55.8643 147.74 54.0296 149.82 55.8643C149.82 55.8643 146.026 56.1101 145.597 57.9447C145.597 57.9557 144.558 55.0203 141.373 55.8643Z"></path>
<path fill="white" d="M184.11 136.016C185.031 127.005 191.382 126.289 191.382 126.289L187.746 136.016H184.11Z"></path>
<path fill="white" d="M115.124 146.455C116.555 132.46 126.414 131.349 126.414 131.349L120.771 146.455H115.124Z"></path>
<path fill="white" d="M76.7209 134.394C77.6419 125.383 83.9898 124.667 83.9898 124.667L80.3535 134.394H76.7209Z"></path>
<g opacity="0.4">
<path fill="url(#paint18_linear_885_685)" d="M77.1099 134.369C76.9594 134.497 76.4127 134.002 76.2623 134.141C76.1118 134.28 76.442 134.956 76.2953 135.084C76.1485 135.212 75.5137 134.791 75.367 134.919C75.2202 135.047 75.5504 135.73 75.4036 135.858C75.2569 135.987 74.6221 135.572 74.4753 135.7C74.3285 135.829 74.6698 136.511 74.523 136.643C74.3762 136.776 73.7378 136.365 73.5947 136.497C73.4516 136.629 73.7965 137.304 73.6534 137.436C73.5103 137.568 72.8608 137.165 72.7214 137.3C72.582 137.436 72.9305 138.104 72.7911 138.24C72.6517 138.375 71.9949 137.979 71.8555 138.115C71.716 138.251 72.0793 138.918 71.9435 139.051C71.8078 139.183 71.1436 138.805 71.0078 138.94C70.8721 139.076 71.2427 139.74 71.1069 139.88C70.9712 140.019 70.3033 139.649 70.1676 139.788C70.0318 139.927 70.4208 140.584 70.2887 140.724C70.1566 140.863 69.4778 140.511 69.3493 140.654C69.2209 140.797 69.6172 141.443 69.4888 141.586C69.3603 141.729 68.6742 141.395 68.5494 141.542C68.4247 141.689 68.843 142.32 68.7219 142.467C68.6008 142.613 67.9 142.309 67.7789 142.467C67.6578 142.624 68.1055 143.234 67.9917 143.384C67.878 143.534 67.1588 143.267 67.0487 143.417C66.9386 143.567 67.4156 144.151 67.3129 144.323C67.2102 144.496 66.4763 144.265 66.3772 144.422C66.2782 144.58 66.8102 145.138 66.7221 145.299C66.6341 145.461 65.8782 145.347 65.8048 145.512C65.7314 145.677 66.3369 146.147 66.2855 146.316C66.2341 146.484 65.4672 146.573 65.4489 146.745C65.4232 146.976 66.1607 147.112 66.1828 147.288C66.2341 147.519 65.7057 148.022 65.8158 148.136C66.0397 148.381 66.1461 148.011 66.4066 147.868C66.6671 147.725 67.0597 148.235 67.2762 148.007C67.4927 147.78 66.9753 147.273 67.1918 147.053C67.4083 146.833 67.9257 147.347 68.1532 147.127C68.3806 146.906 67.8486 146.393 68.0651 146.169C68.2816 145.945 68.7989 146.462 69.0228 146.242C69.2466 146.022 68.7219 145.508 68.9384 145.288C69.1549 145.068 69.6722 145.582 69.8961 145.362C70.1199 145.142 69.5915 144.628 69.8117 144.404C70.0318 144.18 70.5455 144.701 70.7693 144.481C70.9932 144.261 70.4685 143.747 70.685 143.523C70.9014 143.3 71.4188 143.817 71.6426 143.597C71.8665 143.377 71.3418 142.863 71.5582 142.639C71.7747 142.415 72.2921 142.933 72.5159 142.712C72.7397 142.492 72.215 141.979 72.4315 141.755C72.648 141.531 73.1654 142.052 73.3929 141.828C73.6204 141.604 73.0883 141.094 73.3085 140.87C73.5286 140.647 74.0423 141.168 74.2662 140.948C74.49 140.727 73.9653 140.214 74.1818 139.986C74.3983 139.759 74.9156 140.283 75.1431 140.063C75.3706 139.843 74.8386 139.329 75.0587 139.102C75.2789 138.874 75.7926 139.399 76.0164 139.179C76.2402 138.959 75.7119 138.445 75.932 138.221C76.1522 137.997 76.6659 138.515 76.8897 138.295C77.1135 138.075 76.5851 137.561 76.8053 137.337C77.0255 137.113 77.5392 137.631 77.7667 137.41C77.9941 137.19 77.4621 136.677 77.6823 136.453C77.9024 136.229 78.4161 136.746 78.6399 136.526C78.8638 136.306 78.3391 135.792 78.5592 135.565C78.7794 135.337 79.2931 135.858 79.5169 135.638C79.7407 135.418 79.216 134.904 79.4362 134.68C79.6563 134.457 80.17 134.974 80.3975 134.75C80.625 134.526 80.0966 134.082 80.2801 133.829C80.3131 133.785 80.5186 133.679 80.4636 133.679C80.4085 133.679 80.4085 134.413 80.3535 134.413C80.2985 134.413 80.2985 133.679 80.2397 133.679C80.181 133.679 80.1847 134.413 80.1297 134.413C80.0746 134.413 80.0746 133.679 80.0159 133.679C79.9572 133.679 79.9609 134.413 79.9058 134.413C79.8508 134.413 79.8471 133.679 79.7921 133.679C79.7371 133.679 79.7334 134.413 79.6783 134.413C79.6233 134.413 79.6233 133.679 79.5646 133.679C79.5059 133.679 79.5096 134.413 79.4509 134.413C79.3921 134.413 79.3958 133.679 79.3371 133.679C79.2784 133.679 79.2821 134.413 79.2234 134.413C79.1646 134.413 79.1683 133.679 79.1096 133.679C79.0509 133.679 79.0546 134.413 78.9995 134.413C78.9445 134.413 78.9408 133.679 78.8858 133.679C78.8307 133.679 78.8271 134.413 78.772 134.413C78.717 134.413 78.7133 133.679 78.6583 133.679C78.6033 133.679 78.5996 134.413 78.5445 134.413C78.4895 134.413 78.4858 133.679 78.4271 133.679C78.3684 133.679 78.3721 134.413 78.3134 134.413C78.2547 134.413 78.2583 133.679 78.1996 133.679C78.1409 133.679 78.1446 134.413 78.0859 134.413C78.0272 134.413 78.0308 133.679 77.9721 133.679C77.9134 133.679 77.9171 134.413 77.8584 134.413C77.7997 134.413 77.8033 133.679 77.7483 133.679C77.6933 133.679 77.6896 134.413 77.6309 134.413C77.5722 134.413 77.5759 133.679 77.5171 133.679C77.4584 133.679 77.4584 134.413 77.4034 134.413C77.3484 134.413 77.3447 133.679 77.2896 133.679C77.2346 133.679 77.2309 134.413 77.1722 134.413C77.1135 134.413 76.6952 133.965 76.6916 134.024C76.6916 134.181 77.1649 134.343 77.1099 134.369Z" opacity="0.4"></path>
</g>
<g opacity="0.4">
<path fill="url(#paint19_linear_885_685)" d="M184.66 135.803C184.601 135.968 183.944 135.744 183.886 135.906C183.827 136.067 184.462 136.478 184.407 136.64C184.352 136.801 183.599 136.739 183.544 136.9C183.489 137.062 184.132 137.462 184.08 137.634C184.029 137.807 183.273 137.748 183.222 137.913C183.17 138.078 183.823 138.46 183.776 138.625C183.728 138.79 182.972 138.757 182.924 138.922C182.877 139.087 183.541 139.45 183.497 139.616C183.453 139.781 182.697 139.773 182.656 139.938C182.616 140.104 183.284 140.452 183.247 140.617C183.211 140.782 182.451 140.801 182.418 140.984C182.385 141.168 183.064 141.472 183.031 141.641C182.998 141.81 182.242 141.854 182.212 142.008C182.183 142.162 182.88 142.47 182.855 142.639C182.829 142.808 182.077 142.889 182.055 143.057C182.033 143.226 182.741 143.49 182.726 143.659C182.712 143.828 181.959 143.945 181.948 144.114C181.937 144.283 182.66 144.507 182.653 144.676C182.645 144.844 181.919 145.009 181.919 145.178C181.919 145.347 182.653 145.519 182.653 145.688C182.653 145.857 181.937 146.085 181.952 146.253C181.967 146.422 182.715 146.525 182.737 146.694C182.759 146.862 182.066 147.163 182.099 147.325C182.132 147.486 182.884 147.508 182.928 147.67C182.972 147.831 182.326 148.227 182.381 148.381C182.436 148.536 183.185 148.44 183.255 148.591C183.324 148.741 182.759 149.251 182.844 149.391C182.928 149.53 183.64 149.288 183.739 149.416C183.838 149.545 183.412 150.176 183.526 150.29C183.64 150.403 184.26 149.985 184.399 150.08C184.539 150.176 184.319 150.906 184.451 150.976C184.737 151.122 184.741 150.763 184.741 150.763C184.785 150.524 185.508 150.664 185.552 150.425C185.596 150.187 184.876 150.058 184.924 149.809C184.972 149.559 185.691 149.71 185.735 149.471C185.779 149.233 185.06 149.104 185.108 148.855C185.155 148.605 185.874 148.756 185.918 148.517C185.962 148.279 185.247 148.15 185.291 147.901C185.335 147.651 186.058 147.802 186.102 147.563C186.146 147.325 185.43 147.196 185.474 146.95C185.519 146.705 186.241 146.848 186.289 146.609C186.337 146.371 185.614 146.242 185.658 145.993C185.702 145.743 186.425 145.894 186.473 145.655C186.52 145.417 185.797 145.288 185.845 145.039C185.893 144.789 186.608 144.94 186.656 144.701C186.704 144.463 185.981 144.334 186.029 144.085C186.076 143.835 186.795 143.986 186.839 143.747C186.883 143.509 186.164 143.38 186.212 143.131C186.26 142.881 186.979 143.028 187.023 142.79C187.067 142.551 186.351 142.423 186.395 142.173C186.439 141.924 187.162 142.074 187.21 141.835C187.258 141.597 186.535 141.469 186.579 141.215C186.623 140.962 187.346 141.116 187.394 140.878C187.441 140.639 186.718 140.511 186.766 140.261C186.814 140.012 187.533 140.162 187.577 139.924C187.621 139.685 186.902 139.557 186.95 139.307C186.997 139.058 187.716 139.205 187.76 138.966C187.804 138.728 187.089 138.599 187.133 138.35C187.177 138.1 187.9 138.251 187.948 138.008C187.995 137.766 187.272 137.642 187.32 137.392C187.368 137.142 188.087 137.293 188.131 137.054C188.175 136.816 187.456 136.687 187.504 136.434C187.551 136.181 188.27 136.332 188.318 136.093C188.366 135.855 187.691 135.803 187.683 135.557C187.683 135.502 187.992 135.19 187.937 135.19C187.882 135.19 187.882 135.924 187.826 135.924C187.771 135.924 187.768 135.19 187.713 135.19C187.658 135.19 187.658 135.924 187.603 135.924C187.548 135.924 187.544 135.19 187.489 135.19C187.434 135.19 187.434 135.924 187.379 135.924C187.324 135.924 187.32 135.19 187.265 135.19C187.21 135.19 187.206 135.924 187.151 135.924C187.096 135.924 187.096 135.19 187.038 135.19C186.979 135.19 186.983 135.924 186.924 135.924C186.865 135.924 186.869 135.19 186.81 135.19C186.751 135.19 186.755 135.924 186.696 135.924C186.638 135.924 186.641 135.19 186.583 135.19C186.524 135.19 186.528 135.924 186.473 135.924C186.417 135.924 186.414 135.19 186.359 135.19C186.304 135.19 186.3 135.924 186.245 135.924C186.19 135.924 186.186 135.19 186.131 135.19C186.076 135.19 186.073 135.924 186.018 135.924C185.962 135.924 185.959 135.19 185.9 135.19C185.841 135.19 185.845 135.924 185.786 135.924C185.728 135.924 185.731 135.19 185.673 135.19C185.614 135.19 185.618 135.924 185.559 135.924C185.5 135.924 185.504 135.19 185.445 135.19C185.386 135.19 185.39 135.924 185.331 135.924C185.273 135.924 185.276 135.19 185.218 135.19C185.159 135.19 185.163 135.924 185.104 135.924C185.045 135.924 185.049 135.19 184.99 135.19C184.931 135.19 184.931 135.924 184.876 135.924C184.821 135.924 184.818 135.19 184.763 135.19C184.708 135.19 184.704 135.924 184.645 135.924C184.587 135.924 184.161 135.598 184.176 135.653C184.212 135.781 184.704 135.763 184.66 135.803Z" opacity="0.4"></path>
</g>
<g opacity="0.4">
<path fill="url(#paint20_linear_885_685)" d="M114.925 146.753C114.775 146.892 114.239 146.422 114.096 146.558C113.953 146.694 114.313 147.365 114.169 147.505C114.026 147.644 113.37 147.259 113.23 147.398C113.091 147.538 113.458 148.202 113.318 148.341C113.179 148.481 112.511 148.11 112.375 148.25C112.239 148.389 112.621 149.05 112.485 149.193C112.349 149.336 111.674 148.98 111.539 149.123C111.403 149.266 111.803 149.919 111.671 150.062C111.539 150.205 110.852 149.872 110.724 150.018C110.596 150.165 111.006 150.804 110.878 150.95C110.75 151.097 110.056 150.782 109.931 150.95C109.807 151.119 110.243 151.728 110.119 151.882C109.994 152.036 109.289 151.743 109.172 151.882C109.054 152.022 109.509 152.649 109.396 152.807C109.282 152.965 108.559 152.708 108.449 152.866C108.339 153.023 108.816 153.6 108.721 153.776C108.625 153.952 107.88 153.728 107.778 153.893C107.675 154.058 108.207 154.609 108.111 154.777C108.016 154.946 107.271 154.796 107.187 154.968C107.102 155.141 107.678 155.643 107.601 155.819C107.524 155.996 106.765 155.937 106.702 156.117C106.64 156.296 107.282 156.715 107.238 156.898C107.194 157.082 106.431 157.162 106.405 157.35C106.38 157.537 107.099 157.801 107.099 157.988C107.099 158.175 106.398 158.476 106.435 158.659C106.471 158.843 107.231 158.843 107.304 159.026C107.378 159.21 106.853 159.76 106.967 159.907C107.08 160.054 107.767 159.731 107.91 159.863C108.053 159.995 107.785 160.703 107.95 160.802C108.115 160.901 108.647 160.355 108.82 160.435C108.992 160.516 108.966 161.276 109.135 161.323C109.48 161.422 109.524 160.876 109.524 160.876C109.7 160.645 110.284 161.092 110.456 160.876C110.629 160.659 110.049 160.204 110.221 159.977C110.394 159.749 110.981 160.19 111.153 159.977C111.326 159.764 110.746 159.302 110.918 159.074C111.091 158.847 111.678 159.291 111.85 159.074C112.023 158.858 111.443 158.399 111.616 158.171C111.788 157.944 112.375 158.388 112.548 158.171C112.72 157.955 112.137 157.496 112.313 157.269C112.489 157.041 113.072 157.485 113.245 157.269C113.417 157.052 112.837 156.594 113.01 156.366C113.182 156.139 113.769 156.583 113.942 156.366C114.114 156.15 113.535 155.695 113.707 155.467C113.88 155.24 114.467 155.68 114.639 155.467C114.812 155.254 114.232 154.792 114.408 154.565C114.584 154.337 115.164 154.781 115.34 154.565C115.516 154.348 114.929 153.893 115.105 153.662C115.281 153.431 115.861 153.878 116.037 153.662C116.213 153.445 115.63 152.99 115.802 152.759C115.975 152.528 116.562 152.976 116.734 152.759C116.907 152.543 116.327 152.084 116.503 151.853C116.679 151.622 117.259 152.069 117.435 151.853C117.611 151.636 117.024 151.178 117.2 150.95C117.376 150.723 117.956 151.167 118.132 150.95C118.308 150.734 117.721 150.279 117.897 150.048C118.074 149.816 118.657 150.264 118.829 150.048C119.002 149.831 118.422 149.372 118.595 149.145C118.767 148.918 119.354 149.361 119.53 149.145C119.706 148.929 119.123 148.47 119.295 148.239C119.468 148.008 120.055 148.455 120.231 148.239C120.407 148.022 119.82 147.564 119.996 147.332C120.172 147.101 120.756 147.545 120.932 147.332C121.108 147.12 120.565 146.804 120.646 146.529C120.675 146.437 120.895 146.279 120.8 146.279C120.704 146.279 120.701 147.013 120.605 147.013C120.51 147.013 120.506 146.279 120.411 146.279C120.315 146.279 120.315 147.013 120.216 147.013C120.117 147.013 120.121 146.279 120.022 146.279C119.923 146.279 119.926 147.013 119.831 147.013C119.736 147.013 119.732 146.279 119.637 146.279C119.541 146.279 119.541 147.013 119.442 147.013C119.343 147.013 119.347 146.279 119.251 146.279C119.156 146.279 119.152 147.013 119.057 147.013C118.961 147.013 118.961 146.279 118.862 146.279C118.763 146.279 118.767 147.013 118.672 147.013C118.576 147.013 118.576 146.279 118.477 146.279C118.378 146.279 118.382 147.013 118.286 147.013C118.191 147.013 118.191 146.279 118.092 146.279C117.993 146.279 117.996 147.013 117.901 147.013C117.806 147.013 117.802 146.279 117.707 146.279C117.611 146.279 117.608 147.013 117.512 147.013C117.417 147.013 117.417 146.279 117.318 146.279C117.219 146.279 117.222 147.013 117.123 147.013C117.024 147.013 117.028 146.279 116.932 146.279C116.837 146.279 116.833 147.013 116.738 147.013C116.642 147.013 116.639 146.279 116.543 146.279C116.448 146.279 116.444 147.013 116.349 147.013C116.254 147.013 116.25 146.279 116.154 146.279C116.059 146.279 116.059 147.013 115.96 147.013C115.861 147.013 115.865 146.279 115.766 146.279C115.666 146.279 115.67 147.013 115.571 147.013C115.472 147.013 115.472 146.279 115.377 146.279C115.281 146.279 115.278 147.013 115.178 147.013C115.079 147.013 114.709 146.386 114.661 146.474C114.577 146.386 115.017 146.701 114.925 146.753Z" opacity="0.4"></path>
</g>
</g>
<defs>
<radialGradient gradientTransform="translate(186.876 104.915) scale(212.224)" gradientUnits="userSpaceOnUse" r="1" cy="0" cx="0" id="paint0_radial_885_685">
<stop stop-color="#C6EDD3"></stop>
<stop stop-color="#5E99AD" offset="1"></stop>
</radialGradient>
<linearGradient gradientUnits="userSpaceOnUse" y2="126.047" x2="236.012" y1="90.2788" x1="137.737" id="paint1_linear_885_685">
<stop stop-color="white"></stop>
<stop stop-opacity="0" stop-color="white" offset="0.99"></stop>
</linearGradient>
<linearGradient gradientUnits="userSpaceOnUse" y2="112.037" x2="107.334" y1="19.2009" x1="107.334" id="paint2_linear_885_685">
<stop stop-color="white"></stop>
<stop stop-opacity="0" stop-color="white" offset="1"></stop>
</linearGradient>
<linearGradient gradientUnits="userSpaceOnUse" y2="73170.3" x2="29843.4" y1="10824.8" x1="29843.4" id="paint3_linear_885_685">
<stop stop-color="white"></stop>
<stop stop-opacity="0" stop-color="white" offset="1"></stop>
</linearGradient>
<linearGradient gradientUnits="userSpaceOnUse" y2="31382.5" x2="1.71359e+06" y1="8169.13" x1="1.71359e+06" id="paint4_linear_885_685">
<stop stop-color="white"></stop>
<stop stop-opacity="0" stop-color="white" offset="1"></stop>
</linearGradient>
<linearGradient gradientUnits="userSpaceOnUse" y2="57183.6" x2="2.42564e+06" y1="12335.9" x1="2.42564e+06" id="paint5_linear_885_685">
<stop stop-color="white"></stop>
<stop stop-opacity="0" stop-color="white" offset="1"></stop>
</linearGradient>
<linearGradient gradientUnits="userSpaceOnUse" y2="161.18" x2="374.739" y1="161.18" x1="-1.33936" id="paint6_linear_885_685">
<stop stop-color="#81EFEF"></stop>
<stop stop-color="#6AB99F" offset="1"></stop>
</linearGradient>
<linearGradient gradientUnits="userSpaceOnUse" y2="12210" x2="425574" y1="12210" x1="-29814.2" id="paint7_linear_885_685">
<stop stop-color="white"></stop>
<stop stop-opacity="0" stop-color="white" offset="0.99"></stop>
</linearGradient>
<linearGradient gradientUnits="userSpaceOnUse" y2="164.376" x2="219.848" y1="84.9359" x1="153.192" id="paint8_linear_885_685">
<stop stop-color="white" offset="0.01"></stop>
<stop stop-opacity="0" stop-color="white" offset="1"></stop>
</linearGradient>
<linearGradient gradientUnits="userSpaceOnUse" y2="2414.14" x2="92816.3" y1="2414.14" x1="59331.5" id="paint9_linear_885_685">
<stop stop-color="white"></stop>
<stop stop-opacity="0" stop-color="white" offset="0.99"></stop>
</linearGradient>
<linearGradient gradientUnits="userSpaceOnUse" y2="1219.82" x2="22869.7" y1="1219.82" x1="14777.1" id="paint10_linear_885_685">
<stop stop-color="white"></stop>
<stop stop-opacity="0" stop-color="white" offset="0.99"></stop>
</linearGradient>
<linearGradient gradientUnits="userSpaceOnUse" y2="851.737" x2="16277.3" y1="851.737" x1="10299" id="paint11_linear_885_685">
<stop stop-color="white"></stop>
<stop stop-opacity="0" stop-color="white" offset="0.99"></stop>
</linearGradient>
<linearGradient gradientUnits="userSpaceOnUse" y2="583.972" x2="7414.59" y1="583.972" x1="4271.18" id="paint12_linear_885_685">
<stop stop-color="white"></stop>
<stop stop-opacity="0" stop-color="white" offset="0.99"></stop>
</linearGradient>
<linearGradient gradientUnits="userSpaceOnUse" y2="931.563" x2="1.01481e+06" y1="931.563" x1="1.05719e+06" id="paint13_linear_885_685">
<stop stop-color="white"></stop>
<stop stop-opacity="0" stop-color="white" offset="0.99"></stop>
</linearGradient>
<linearGradient gradientUnits="userSpaceOnUse" y2="129.07" x2="277.21" y1="75.5612" x1="275.229" id="paint14_linear_885_685">
<stop></stop>
<stop stop-opacity="0" offset="1"></stop>
</linearGradient>
<linearGradient gradientUnits="userSpaceOnUse" y2="131.797" x2="331.086" y1="131.797" x1="318.625" id="paint15_linear_885_685">
<stop stop-color="#023C4F"></stop>
<stop stop-color="#1A4E5F" offset="0.38"></stop>
<stop stop-color="#3C6977" offset="1"></stop>
</linearGradient>
<linearGradient gradientUnits="userSpaceOnUse" y2="142.056" x2="377.594" y1="142.056" x1="331.196" id="paint16_linear_885_685">
<stop stop-color="#467382"></stop>
<stop stop-color="#3C6977" offset="1"></stop>
</linearGradient>
<linearGradient gradientUnits="userSpaceOnUse" y2="29292.5" x2="115546" y1="17446.9" x1="103694" id="paint17_linear_885_685">
<stop stop-color="#467382"></stop>
<stop stop-color="#3C6977" offset="1"></stop>
</linearGradient>
<linearGradient gradientUnits="userSpaceOnUse" y2="150.081" x2="81.7986" y1="136.591" x1="81.7986" id="paint18_linear_885_685">
<stop stop-color="white"></stop>
<stop stop-opacity="0" stop-color="white" offset="1"></stop>
</linearGradient>
<linearGradient gradientUnits="userSpaceOnUse" y2="-19703.9" x2="-3051.41" y1="-20342.3" x1="-3051.41" id="paint19_linear_885_685">
<stop stop-color="white"></stop>
<stop stop-opacity="0" stop-color="white" offset="1"></stop>
</linearGradient>
<linearGradient gradientUnits="userSpaceOnUse" y2="1446.24" x2="-38436.1" y1="863.718" x1="-38436.1" id="paint20_linear_885_685">
<stop stop-color="white"></stop>
<stop stop-opacity="0" stop-color="white" offset="1"></stop>
</linearGradient>
<clipPath id="clip0_885_685">
<rect fill="white" height="211" width="375"></rect>
</clipPath>
</defs>
</svg>
