<svg xmlns="http://www.w3.org/2000/svg" fill="none" viewBox="0 0 375 211" height="211" width="375">
<g clip-path="url(#clip0_1580_2146)">
<path fill="url(#paint0_linear_1580_2146)" d="M375.71 0H-0.467285V210.968H375.71V0Z"></path>
<path fill="url(#paint1_linear_1580_2146)" d="M265.867 89.5585C255.541 89.6579 245.211 89.5585 234.885 89.5585H44.3523C24.3364 89.5585 4.41243 92.6424 -11.8204 77.7823C-20.5753 69.7708 -26.0218 57.9467 -25.3373 46.1005C-24.6528 34.2543 -17.4288 22.7467 -6.59469 17.9C1.96518 14.0728 11.9934 14.5107 20.8771 17.51C36.4475 22.7688 51.1789 35.4467 62.3626 47.2008C63.6948 48.5993 65.0086 50.0492 66.6205 51.1128C68.0959 52.0317 69.6892 52.746 71.3567 53.2362C78.2753 55.481 85.709 56.4231 92.0535 59.967C95.1116 61.6709 97.8386 63.9415 100.985 65.4651C105.662 67.732 110.973 68.2288 116.151 68.6888C124.383 69.4248 132.634 70.1608 140.899 69.9916C147.645 69.8591 154.427 69.1378 161.11 70.0762C167.366 70.9594 173.335 73.2742 179.316 75.3534C207.137 85.0218 236.415 89.827 265.867 89.5585Z" opacity="0.8"></path>
<path fill="url(#paint2_linear_1580_2146)" d="M212.999 120.041H212.024V114.189H208.808L203.84 111.576V109.041H202V111.771H195.375V108.459H189.3V111.679H181.792V109.239H180.523V111.775L175.941 114.605H172.331V120.261H170.185V112.64C170.185 112.64 169.405 106.689 163.359 106.689V102.398H161.313V106.792C161.313 106.792 154.777 107.473 154.777 111.083V118.3H150.681V114.888L142.879 112.257L134.588 114.793V118.009H130.492V116.449H127.861V112.842L124.251 109.331H120.155V101.813L119.084 99.5719L118.204 101.618V104.739C118.204 104.739 104.161 105.129 104.161 104.739V94.2064L102.406 86.7947L100.845 93.912V114.292L95.774 109.906H84.5572V99.767L83.5819 98.1072V93.8163L82.2166 92.5503L81.1457 93.7206V98.1072L80.3656 100.058V106.594H78.8052L76.5604 103.668L73.344 106.792H72.4608L72.8508 99.5756L71.8756 97.9159V93.6212L70.5103 92.3553L69.4431 93.5439V97.9306L68.6629 99.881V110.218H49.5486L44.9632 114.314V120.041C44.9632 120.041 42.9134 120.331 42.9134 120.041V108.835H28.5795V120.041H25.8489V98.8874C25.8489 98.8874 25.8489 96.4512 24.1892 96.4512C22.5294 96.4512 22.2387 97.9232 22.2387 98.5967V108.445H20.3987V98.4017C20.3987 98.4017 20.4944 96.3518 18.8383 96.3518C17.1823 96.3518 17.0829 97.7172 17.0829 98.4017V108.739H1.17395L-2.04243 112.64H-5.75195V158.174H210.913C210.913 158.174 211.995 120.041 212.999 120.041Z"></path>
<path fill="url(#paint3_linear_1580_2146)" d="M303.15 136.24C332.793 136.24 356.824 112.21 356.824 82.5663C356.824 52.923 332.793 28.8923 303.15 28.8923C273.507 28.8923 249.476 52.923 249.476 82.5663C249.476 112.21 273.507 136.24 303.15 136.24Z"></path>
<path fill="url(#paint4_linear_1580_2146)" d="M180.692 65.4171C188.369 65.487 196.053 65.4171 203.733 65.4171H345.416C360.302 65.4171 375.118 67.7061 387.188 56.6622C393.702 50.7078 397.754 41.9124 397.242 33.1097C396.731 24.3069 391.354 15.7434 383.302 12.1332C376.939 9.28482 369.48 9.60867 362.874 11.8388C351.308 15.7507 340.37 25.1791 332.035 33.9266C331.045 34.9681 330.07 36.0464 328.87 36.8376C327.773 37.519 326.588 38.0477 325.348 38.409C320.196 40.0797 314.676 40.7789 309.955 43.4139C307.684 44.6835 305.653 46.3579 303.312 47.5061C299.834 49.1916 295.886 49.5596 292.036 49.9019C285.913 50.4465 279.774 51.0059 273.636 50.8697C268.62 50.7703 263.575 50.2331 258.606 50.9323C253.944 51.5873 249.513 53.3133 245.068 54.8589C224.374 62.0459 202.597 65.6174 180.692 65.4171Z" opacity="0.8"></path>
<path fill="url(#paint5_linear_1580_2146)" d="M-5.75195 156.274H-4.77673V150.423H-1.55666L3.4188 147.788V145.253H5.25884V147.983H11.883V144.671H17.9478V147.891H25.4588V145.433H26.7247V147.969L31.3101 150.798H34.924V156.473H37.0694V148.863C37.0694 148.863 37.8496 142.912 43.896 142.912V138.621H45.9458V143.011C45.9458 143.011 52.4816 143.692 52.4816 147.302V154.519H56.5775V151.104L64.3793 148.473L72.6668 151.008V154.225H76.7628V152.664H79.3977V149.058L83.0042 145.547H87.1001V138.036L88.1747 135.795L89.0506 137.841V140.962C89.0506 140.962 103.097 141.352 103.097 140.962V130.429L104.845 123.018L106.406 130.139V150.519L111.47 146.132H122.683V135.99L123.658 134.33V130.039L125.023 128.773L126.098 129.943V134.33L126.878 136.281V142.816H128.438L130.68 139.891L133.9 143.011H134.776L134.385 135.795L135.361 134.135V129.844L136.726 128.578L137.801 129.748V134.135L138.581 136.086V146.423H157.695L162.28 150.519V156.274C162.28 156.274 164.327 156.569 164.327 156.274V145.065H178.679V156.282H181.391V135.129C181.391 135.129 181.391 132.693 183.047 132.693C184.703 132.693 184.998 134.165 184.998 134.838V144.686H186.838V134.625C186.838 134.625 186.738 132.575 188.398 132.575C190.058 132.575 190.153 133.94 190.153 134.625V144.962H206.051L209.268 148.863H212.974V210.596H-3.66167C-3.66167 210.596 -4.74361 156.274 -5.75195 156.274Z"></path>
<path fill="url(#paint6_linear_1580_2146)" d="M386.287 127.198H385.312V121.347H382.091L377.12 118.712V116.176H375.28V118.907H368.656V115.595H362.587V118.815H355.091V116.36H353.821V118.896L349.239 121.726H345.629V127.401H343.484V119.787C343.484 119.787 342.704 113.836 336.657 113.836V109.545H334.607V113.935C334.607 113.935 328.075 114.616 328.075 118.226V125.443H323.968V122.031L316.167 119.397L307.875 121.932V125.152H303.779V123.592H301.148V119.982L297.538 116.471H293.442V108.96L292.367 106.719L291.492 108.765V111.885C291.492 111.885 277.448 112.276 277.448 111.885V101.353L275.693 93.9414L274.129 101.062V121.446L269.058 117.056H257.845V106.914L256.869 105.254V100.963L255.504 99.6971L254.433 100.867V105.254L253.653 107.204V113.74H252.093L249.848 110.815L246.631 113.935H245.752L246.16 106.719L245.185 105.059V100.768L243.82 99.502L242.749 100.672V105.059L241.969 107.009V117.347H222.832L218.251 121.446V127.198C218.251 127.198 216.201 127.493 216.201 127.198V115.992H201.849V127.209H199.118V106.034C199.118 106.034 199.118 103.598 197.458 103.598C195.799 103.598 195.508 105.07 195.508 105.743V115.591H193.668V105.548C193.668 105.548 193.763 103.499 192.107 103.499C190.451 103.499 190.352 104.864 190.352 105.548V115.886H174.454L171.234 119.787H167.536V165.305H384.196C384.196 165.305 385.267 127.198 386.287 127.198Z"></path>
<path fill="url(#paint7_linear_1580_2146)" d="M167.536 156.274H168.511V150.423H171.731L176.703 147.788V145.253H178.543V147.983H185.167V144.671H191.213V147.891H198.724V145.433H199.99V147.969L204.576 150.798H208.182V156.473H210.327V148.863C210.327 148.863 211.108 142.912 217.154 142.912V138.621H219.204V143.011C219.204 143.011 225.736 143.692 225.736 147.302V154.519H229.832V151.104L237.634 148.473L245.925 151.008V154.225H250.021V152.664H252.656V149.058L256.262 145.547H260.358V138.036L261.433 135.795L262.309 137.841V140.962C262.309 140.962 276.352 141.352 276.352 140.962V130.429L278.107 123.018L279.668 130.139V150.519L284.739 146.132H295.956V135.99L296.931 134.33V130.039L298.296 128.773L299.371 129.943V134.33L300.151 136.281V142.816H301.73L303.971 139.891L307.191 143.011H308.067L307.677 135.795L308.652 134.135V129.844L310.017 128.578L311.092 129.748V134.135L311.872 136.086V146.423H330.986L335.586 150.519V156.274C335.586 156.274 337.636 156.569 337.636 156.274V145.065H351.988V156.282H354.719V135.129C354.719 135.129 354.719 132.693 356.375 132.693C358.031 132.693 358.326 134.165 358.326 134.838V144.686H360.166V134.625C360.166 134.625 360.066 132.575 361.726 132.575C363.386 132.575 363.481 133.94 363.481 134.625V144.962H379.379L382.599 148.863H386.305V212.554H169.615C169.615 212.554 168.544 156.274 167.536 156.274Z"></path>
<path fill="#631414" d="M223.189 78.5034V100.904H222.545V85.5986C222.543 84.102 221.948 82.6672 220.89 81.609C219.832 80.5507 218.397 79.9553 216.9 79.9534H216.841C216.1 79.9534 215.366 80.0994 214.681 80.3832C213.997 80.6669 213.375 81.0828 212.851 81.607C212.327 82.1313 211.911 82.7537 211.628 83.4385C211.345 84.1234 211.199 84.8574 211.2 85.5986V100.904H210.552V78.5034L215.984 75.2797C216.243 75.1251 216.539 75.0435 216.841 75.0435C217.143 75.0435 217.439 75.1251 217.699 75.2797L223.189 78.5034Z"></path>
<path fill="#C63634" d="M223.189 77.0312V99.4319H222.545V84.1264C222.543 82.6298 221.948 81.1951 220.89 80.1368C219.832 79.0785 218.397 78.4831 216.9 78.4812H216.841C216.1 78.4812 215.366 78.6272 214.681 78.911C213.997 79.1947 213.375 79.6106 212.851 80.1349C212.327 80.6591 211.911 81.2815 211.628 81.9664C211.345 82.6513 211.199 83.3853 211.2 84.1264V99.4319H210.552V77.0312L215.984 73.8075C216.243 73.6529 216.539 73.5713 216.841 73.5713C217.143 73.5713 217.439 73.6529 217.699 73.8075L223.189 77.0312Z"></path>
<path fill="#631414" d="M169.832 78.5033V100.904H169.188V85.5985C169.187 84.1022 168.592 82.6675 167.535 81.6091C166.477 80.5507 165.043 79.9552 163.546 79.9533H163.484C161.987 79.9533 160.551 80.548 159.492 81.6067C158.433 82.6654 157.839 84.1013 157.839 85.5985V100.904H157.191V78.5033L162.623 75.2796C162.883 75.125 163.18 75.0435 163.482 75.0435C163.784 75.0435 164.081 75.125 164.341 75.2796L169.832 78.5033Z"></path>
<path fill="#C63634" d="M169.832 77.0314V99.432H169.188V84.1266C169.187 82.6303 168.592 81.1955 167.535 80.1372C166.477 79.0788 165.043 78.4833 163.546 78.4813H163.484C161.987 78.4813 160.551 79.0761 159.492 80.1348C158.433 81.1935 157.839 82.6294 157.839 84.1266V99.432H157.191V77.0314L162.623 73.8076C162.883 73.6531 163.18 73.5715 163.482 73.5715C163.784 73.5715 164.081 73.6531 164.341 73.8076L169.832 77.0314Z"></path>
<path fill="#631414" d="M228.375 32.5798C230.442 32.5798 232.117 30.9041 232.117 28.8371C232.117 26.7701 230.442 25.0945 228.375 25.0945C226.308 25.0945 224.632 26.7701 224.632 28.8371C224.632 30.9041 226.308 32.5798 228.375 32.5798Z"></path>
<path fill="#A02222" d="M227.204 31.9835H229.276L228.242 27.0522L227.204 31.9835Z"></path>
<path fill="#A02222" d="M227.414 31.9836L226.792 32.2302C226.209 31.9577 225.706 31.5396 225.332 31.0162C224.957 30.4928 224.724 29.8817 224.654 29.2419L227.23 31.818L227.414 31.9836Z"></path>
<path fill="#A02222" d="M232.114 28.9512C232.106 29.2898 232.05 29.6256 231.948 29.9485L231.749 30.4563C231.359 31.2534 230.699 31.8868 229.887 32.2448L229.078 31.9615L229.251 31.7885L232.114 28.9512Z"></path>
<path fill="#A02222" d="M228.345 32.6167C229.296 32.6167 230.067 32.4173 230.067 32.1714C230.067 31.9254 229.296 31.7261 228.345 31.7261C227.394 31.7261 226.623 31.9254 226.623 32.1714C226.623 32.4173 227.394 32.6167 228.345 32.6167Z"></path>
<path fill="#A02222" d="M226.207 42.7625H230.487L230.071 32.1602H226.623L226.207 42.7625Z"></path>
<path fill="#631414" d="M229.497 42.7588C229.607 42.662 229.705 42.552 229.788 42.4313C229.873 42.3129 229.926 42.1748 229.942 42.0301C229.936 41.8773 229.889 41.729 229.807 41.5998C229.725 41.4707 229.61 41.3653 229.475 41.2941C229.217 41.1322 228.919 41.0365 228.676 40.8562C228.306 40.5594 228.06 40.1358 227.985 39.6675C227.911 39.2039 227.895 38.733 227.937 38.2654C228.03 36.3223 228.123 34.3792 228.216 32.4362C228.25 32.1882 228.223 31.9358 228.139 31.7002C227.981 31.3321 227.591 31.1629 227.282 30.9273C226.255 30.1472 226.034 28.6972 226.108 27.4092C226.104 27.0255 226.185 26.6457 226.343 26.2962C226.501 25.9466 226.734 25.6357 227.024 25.3851L226.914 25.3594C226.249 25.6289 225.677 26.0839 225.264 26.67C224.851 27.2562 224.616 27.9487 224.586 28.6649C224.556 29.3811 224.733 30.0909 225.095 30.7093C225.458 31.3278 225.991 31.8289 226.63 32.1528L226.203 42.7588H229.497Z" opacity="0.3"></path>
<path fill="#631414" d="M228.338 61.0746C231.354 61.0746 233.799 60.4403 233.799 59.6578C233.799 58.8753 231.354 58.241 228.338 58.241C225.322 58.241 222.877 58.8753 222.877 59.6578C222.877 60.4403 225.322 61.0746 228.338 61.0746Z"></path>
<path fill="#631414" d="M221.563 93.2347H235.131L233.81 59.6172H222.884L221.563 93.2347Z"></path>
<path fill="#C63634" d="M228.342 42.9501C229.929 42.9501 231.216 42.6173 231.216 42.2068C231.216 41.7962 229.929 41.4634 228.342 41.4634C226.754 41.4634 225.467 41.7962 225.467 42.2068C225.467 42.6173 226.754 42.9501 228.342 42.9501Z"></path>
<path fill="#C63634" d="M224.779 59.8713H231.919L231.223 42.1885H225.471L224.779 59.8713Z"></path>
<path fill="#A02222" d="M231.882 59.8307H224.757L225.32 45.4968L225.449 42.2252C225.449 41.9823 225.905 41.7652 226.608 41.629C226.96 41.5652 227.315 41.5222 227.672 41.5002C227.878 41.5002 228.095 41.5002 228.32 41.5002C228.544 41.5002 228.658 41.5002 228.82 41.5002C229.24 41.5173 229.659 41.5665 230.071 41.6474C230.73 41.7763 231.175 41.9823 231.175 42.2105L231.396 47.8005V47.9625L231.882 59.8307Z"></path>
<g opacity="0.3">
<path fill="#631414" d="M228.419 41.4634L228.095 41.5333V41.5664L228.5 41.4671L228.419 41.4634Z" opacity="0.3"></path>
<path fill="#631414" d="M230.601 59.492C230.778 59.3911 230.923 59.2433 231.021 59.0651C231.076 58.8664 231.061 58.6548 230.979 58.4654C230.898 58.276 230.754 58.1202 230.572 58.0237C230.226 57.7992 229.81 57.7072 229.468 57.5048C228.869 57.1241 228.444 56.5223 228.286 55.8303C228.135 55.1445 228.073 54.4418 228.102 53.7401C228.102 49.6822 228.102 45.6243 228.102 41.5664L227.944 41.6032C227.964 41.5634 227.972 41.5185 227.966 41.4744C226.605 41.5259 225.556 41.824 225.515 42.1883L224.816 59.8747H229.968C230.186 59.7592 230.398 59.6315 230.601 59.492Z" opacity="0.3"></path>
</g>
<path fill="#631414" d="M228.816 41.4745L228.213 49.6111L227.668 41.4818C227.874 41.4818 228.091 41.4818 228.316 41.4818C228.54 41.4818 228.654 41.4671 228.816 41.4745Z"></path>
<path fill="#631414" d="M231.47 50.0894L230.068 41.6252C230.726 41.754 231.172 41.9601 231.172 42.1883L231.392 47.7783V47.9403L231.47 50.0894Z"></path>
<path fill="#631414" d="M226.604 41.6106L225.184 50.1189L225.305 45.4857L225.434 42.2141C225.445 41.9639 225.92 41.7468 226.604 41.6106Z"></path>
<path fill="#631414" d="M222.88 59.6872C222.88 59.6872 222.88 59.6652 222.88 59.6541C222.88 58.8739 225.327 58.241 228.341 58.241C231.355 58.241 233.714 58.8519 233.799 59.6136H233.817L235.12 93.2348H221.559L222.88 59.6872Z"></path>
<path fill="#A02222" d="M213.338 210.802H243.36L234.542 76.623H222.155L213.338 210.802Z"></path>
<path fill="#A02222" d="M228.345 77.8117C231.768 77.8117 234.542 77.2795 234.542 76.623C234.542 75.9665 231.768 75.4343 228.345 75.4343C224.923 75.4343 222.148 75.9665 222.148 76.623C222.148 77.2795 224.923 77.8117 228.345 77.8117Z"></path>
<path fill="#631414" d="M222.262 84.4799L223.237 84.7228L223.41 80.9838C223.437 80.3741 223.388 79.7634 223.263 79.1659L223.079 78.2974L222.814 79.0334C222.613 79.6085 222.495 80.2096 222.464 80.8182L222.262 84.4799Z"></path>
<path fill="#631414" d="M223.072 87.1367L222.873 91.4572L221.831 91.1811L222.067 86.8828L223.072 87.1367Z"></path>
<path fill="#631414" d="M222.737 94.4419L222.509 99.3548L221.405 99.042L221.673 94.1511L222.737 94.4419Z"></path>
<path fill="#631414" d="M222.35 102.762L222.089 108.4L220.897 108.032L221.21 102.424L222.35 102.762Z"></path>
<path fill="#631414" d="M221.934 111.76L221.636 118.241L220.356 117.833L220.724 111.389L221.934 111.76Z"></path>
<path fill="#631414" d="M221.427 122.782L221.059 130.378L219.675 129.888L220.091 122.341L221.427 122.782Z"></path>
<path fill="#631414" d="M220.79 136.527L220.37 145.646L218.851 145.058L219.351 135.997L220.79 136.527Z"></path>
<path fill="#631414" d="M234.252 84.638L233.276 84.8809L233.103 81.1309C233.077 80.5139 233.127 79.8959 233.251 79.2909L233.435 78.4187L233.7 79.1547C233.909 79.7284 234.033 80.3298 234.068 80.9396L234.252 84.638Z"></path>
<path fill="#631414" d="M233.442 87.2879L233.645 91.6193L234.686 91.3433L234.45 87.0303L233.442 87.2879Z"></path>
<path fill="#631414" d="M233.781 94.6259L234.009 99.5572L235.113 99.2407L234.841 94.3389L233.781 94.6259Z"></path>
<path fill="#631414" d="M234.167 102.976L234.428 108.632L235.624 108.264L235.312 102.637L234.167 102.976Z"></path>
<path fill="#631414" d="M234.612 112.577L234.914 119.135L236.202 118.716L235.834 112.195L234.612 112.577Z"></path>
<path fill="#631414" d="M235.12 123.721L235.488 131.449L236.883 130.952L236.46 123.305L235.12 123.721Z"></path>
<path fill="#631414" d="M235.735 136.866L236.158 146.026L237.696 145.433L237.192 136.336L235.735 136.866Z"></path>
<path fill="#631414" d="M226.991 84.9069H229.261L229.232 80.6233C229.22 79.9725 229.033 79.3369 228.691 78.7832L228.172 77.9294L227.65 78.7427C227.265 79.3116 227.048 79.9773 227.024 80.6637L226.991 84.9069Z"></path>
<path fill="#631414" d="M229.276 86.7983L229.32 91.5493H226.914L226.969 86.7983H229.276Z"></path>
<path fill="#631414" d="M229.346 94.1401L229.394 99.5499H226.818L226.88 94.1401H229.346Z"></path>
<path fill="#631414" d="M229.42 102.516L229.479 108.732H226.715L226.788 102.516H229.42Z"></path>
<path fill="#631414" d="M229.508 112.158L229.574 119.374H226.594L226.674 112.158H229.508Z"></path>
<path fill="#631414" d="M229.6 123.375L229.677 131.861H226.439L226.535 123.375H229.6Z"></path>
<path fill="#631414" d="M229.733 136.601L229.825 146.717H226.288L226.406 136.601H229.733Z"></path>
<path fill="#A02222" d="M218.295 137.252C219.193 138.676 222.884 140.767 227.558 142.379C233.225 144.333 238.193 144.848 238.649 143.523C238.651 143.494 238.651 143.464 238.649 143.435H238.69L239.794 159.969H217.345L218.295 137.252Z"></path>
<path fill="#631414" d="M224.253 170.774L226.075 171.878L226.189 151.1C226.189 150.254 225.821 149.57 225.335 149.57C224.86 149.57 224.463 150.254 224.448 151.1L224.253 170.774Z"></path>
<path fill="#631414" d="M238.031 177.277L240.048 178.491L239.036 156.19C238.995 155.307 238.568 154.596 238.083 154.596C237.593 154.596 237.225 155.307 237.262 156.19L238.031 177.277Z"></path>
<path fill="#631414" d="M230.991 173.954L232.905 175.113L232.537 153.621C232.537 152.756 232.117 152.057 231.635 152.057C231.153 152.057 230.77 152.756 230.778 153.621L230.991 173.954Z"></path>
<path fill="#631414" d="M217.868 166.855L219.59 167.907L219.991 147.924C220.017 147.1 219.66 146.452 219.189 146.452C218.718 146.452 218.31 147.118 218.277 147.924L217.868 166.855Z"></path>
<path fill="#A02222" d="M229.295 58.2667L228.146 73.7635L227.112 58.2814C227.506 58.2557 227.915 58.2446 228.338 58.2446C228.665 58.2446 228.985 58.252 229.295 58.2667Z"></path>
<path fill="#A02222" d="M234.344 74.6762L231.676 58.5427C232.927 58.793 233.744 59.1794 233.792 59.621H233.81L234.226 70.2196L234.344 74.6762Z"></path>
<path fill="#A02222" d="M225.077 58.5278L222.398 74.7533L222.615 66.4658V66.3738L222.877 59.6907C222.877 59.6907 222.877 59.6687 222.877 59.6613C222.873 59.1939 223.738 58.7818 225.077 58.5278Z"></path>
<path fill="#631414" d="M229.526 210.806L228.389 58.2593H228.319C225.375 58.2593 222.95 58.8702 222.866 59.632L222.203 76.472C222.162 76.5195 222.138 76.5788 222.133 76.6413L213.301 210.821L229.526 210.806Z" opacity="0.3"></path>
<path fill="#631414" d="M220.271 143.567C220.659 143.567 220.974 143.252 220.974 142.864C220.974 142.476 220.659 142.161 220.271 142.161C219.883 142.161 219.568 142.476 219.568 142.864C219.568 143.252 219.883 143.567 220.271 143.567Z"></path>
<path fill="#631414" d="M225.876 146.611C226.264 146.611 226.579 146.296 226.579 145.908C226.579 145.52 226.264 145.205 225.876 145.205C225.488 145.205 225.173 145.52 225.173 145.908C225.173 146.296 225.488 146.611 225.876 146.611Z"></path>
<path fill="#631414" d="M231.558 149.028C231.946 149.028 232.261 148.714 232.261 148.325C232.261 147.937 231.946 147.623 231.558 147.623C231.17 147.623 230.855 147.937 230.855 148.325C230.855 148.714 231.17 149.028 231.558 149.028Z"></path>
<path fill="#631414" d="M237.601 151.075C237.989 151.075 238.303 150.76 238.303 150.372C238.303 149.984 237.989 149.669 237.601 149.669C237.212 149.669 236.898 149.984 236.898 150.372C236.898 150.76 237.212 151.075 237.601 151.075Z"></path>
<path fill="#631414" d="M201.16 98.6594V138.975H199.998V111.437C199.998 108.745 198.93 106.163 197.028 104.257C195.127 102.352 192.547 101.278 189.855 101.272H189.745C188.408 101.268 187.083 101.528 185.846 102.037C184.61 102.547 183.486 103.295 182.539 104.239C181.592 105.183 180.84 106.305 180.328 107.54C179.815 108.775 179.551 110.099 179.551 111.437V138.975H178.388V98.6594L188.159 92.8485C188.627 92.5713 189.161 92.425 189.704 92.425C190.248 92.425 190.782 92.5713 191.25 92.8485L201.16 98.6594Z"></path>
<path fill="#C63634" d="M201.16 96.4511V136.766H199.998V109.228C199.998 106.536 198.93 103.954 197.028 102.049C195.127 100.143 192.547 99.0698 189.855 99.064H189.745C188.408 99.0601 187.083 99.3202 185.846 99.8292C184.61 100.338 183.486 101.086 182.539 102.031C181.592 102.975 180.84 104.097 180.328 105.332C179.815 106.567 179.551 107.891 179.551 109.228V136.766H178.388V96.4511L188.159 90.6403C188.627 90.3631 189.161 90.2168 189.704 90.2168C190.248 90.2168 190.782 90.3631 191.25 90.6403L201.16 96.4511Z"></path>
<path fill="#631414" d="M151.251 32.7858C153.318 32.7858 154.994 31.1102 154.994 29.0432C154.994 26.9762 153.318 25.3005 151.251 25.3005C149.184 25.3005 147.509 26.9762 147.509 29.0432C147.509 31.1102 149.184 32.7858 151.251 32.7858Z"></path>
<path fill="#C63634" d="M152.421 32.1896H150.35L151.387 27.2583L152.421 32.1896Z"></path>
<path fill="#C63634" d="M154.972 29.448C154.907 30.0916 154.676 30.7072 154.301 31.2344C153.926 31.7615 153.42 32.182 152.834 32.4546L152.212 32.2081L152.385 32.0351L154.972 29.448Z"></path>
<path fill="#C63634" d="M150.559 32.1895L149.75 32.4729C148.948 32.1123 148.298 31.4838 147.91 30.6954L147.696 30.1581C147.596 29.8388 147.541 29.5067 147.534 29.1719L150.409 32.0313L150.559 32.1895Z"></path>
<path fill="#C63634" d="M151.284 32.8227C152.236 32.8227 153.007 32.6233 153.007 32.3774C153.007 32.1315 152.236 31.9321 151.284 31.9321C150.333 31.9321 149.562 32.1315 149.562 32.3774C149.562 32.6233 150.333 32.8227 151.284 32.8227Z"></path>
<path fill="#A02222" d="M153.423 42.9722H149.139L149.558 32.3662H153.003L153.423 42.9722Z"></path>
<path fill="#490B0B" d="M152.433 42.9908C152.543 42.8928 152.64 42.7816 152.723 42.6596C152.808 42.5412 152.861 42.4032 152.878 42.2585C152.87 42.1059 152.823 41.958 152.741 41.8291C152.659 41.7001 152.545 41.5945 152.41 41.5224C152.153 41.3605 151.858 41.2648 151.612 41.0845C151.242 40.7877 150.995 40.3641 150.92 39.8958C150.847 39.4334 150.831 38.9638 150.872 38.4974C150.965 36.5543 151.059 34.61 151.152 32.6645C151.185 32.4165 151.158 32.1642 151.075 31.9285C150.916 31.5605 150.526 31.3912 150.217 31.1557C149.19 30.3755 148.97 28.9255 149.047 27.6412C149.039 27.2561 149.115 26.8739 149.271 26.5216C149.427 26.1693 149.658 25.8555 149.948 25.6024L149.838 25.5767C149.174 25.8462 148.601 26.3012 148.188 26.8873C147.776 27.4734 147.54 28.166 147.51 28.8822C147.481 29.5984 147.657 30.3081 148.02 30.9266C148.382 31.5451 148.915 32.0462 149.555 32.3701L149.139 42.9687L152.433 42.9908Z" opacity="0.3"></path>
<path fill="#631414" d="M151.292 61.2807C154.308 61.2807 156.753 60.6463 156.753 59.8638C156.753 59.0814 154.308 58.447 151.292 58.447C148.276 58.447 145.83 59.0814 145.83 59.8638C145.83 60.6463 148.276 61.2807 151.292 61.2807Z"></path>
<path fill="#631414" d="M158.067 93.4408H144.495L145.819 59.8232H156.746L158.067 93.4408Z"></path>
<path fill="#A02222" d="M154.869 60.0552H147.744L148.212 48.1612L148.44 42.4092C148.465 42.1774 148.896 41.975 149.544 41.8425C149.956 41.7618 150.375 41.7126 150.795 41.6953C150.957 41.6953 151.122 41.6953 151.295 41.6953C151.468 41.6953 151.737 41.6953 151.943 41.6953C152.3 41.7172 152.655 41.7602 153.007 41.8241C153.71 41.9603 154.166 42.1921 154.166 42.4203L154.291 45.6072V45.7029L154.869 60.0552Z"></path>
<path fill="#631414" d="M151.95 41.6879L151.406 49.8172L150.802 41.6805C150.964 41.6805 151.13 41.6805 151.303 41.6805C151.476 41.6805 151.752 41.6768 151.95 41.6879Z"></path>
<path fill="#631414" d="M149.558 41.8279L148.156 50.2921L148.211 48.1392L148.44 42.3873C148.473 42.1628 148.903 41.9604 149.558 41.8279Z"></path>
<path fill="#631414" d="M154.427 50.34L153.021 41.8169C153.724 41.9531 154.181 42.1849 154.181 42.4131L154.306 45.6V45.7031L154.427 50.34Z"></path>
<g opacity="0.3">
<path fill="#490B0B" d="M151.325 41.6731L151.001 41.743V41.7725L151.409 41.6731H151.325Z" opacity="0.3"></path>
<path fill="#490B0B" d="M153.511 59.6871C153.686 59.5856 153.83 59.4379 153.927 59.2602C153.982 59.0614 153.967 58.8499 153.885 58.6605C153.804 58.4711 153.66 58.3152 153.478 58.2188C153.132 57.9943 152.716 57.9023 152.374 57.6999C151.776 57.318 151.352 56.7167 151.192 56.0254C151.042 55.3394 150.981 54.6368 151.012 53.9351C151.012 49.8772 151.012 45.8193 151.012 41.7614L150.854 41.8019C150.873 41.7607 150.881 41.7148 150.876 41.6694C149.518 41.721 148.465 42.0374 148.425 42.3834L147.729 60.0698H152.881C153.099 59.9554 153.309 59.8276 153.511 59.6871Z" opacity="0.3"></path>
</g>
<path fill="#631414" d="M156.735 59.897C156.735 59.897 156.735 59.897 156.735 59.8675C156.735 59.0837 154.287 58.4507 151.27 58.4507C148.252 58.4507 145.9 59.0616 145.816 59.827H145.797L144.476 93.4409H158.045L156.735 59.897Z"></path>
<path fill="#A02222" d="M166.292 211.008H136.27L145.087 76.8328H157.474L166.292 211.008Z"></path>
<path fill="#A02222" d="M151.284 78.0214C154.707 78.0214 157.482 77.4892 157.482 76.8327C157.482 76.1762 154.707 75.644 151.284 75.644C147.862 75.644 145.087 76.1762 145.087 76.8327C145.087 77.4892 147.862 78.0214 151.284 78.0214Z"></path>
<path fill="#631414" d="M157.36 84.686L156.385 84.9288L156.216 81.1899C156.187 80.5801 156.236 79.9692 156.363 79.3719L156.543 78.5034L156.808 79.2394C157.018 79.8131 157.142 80.4145 157.176 81.0243L157.36 84.686Z"></path>
<path fill="#631414" d="M156.551 87.3467L156.749 91.6634L157.794 91.3911L157.555 87.0891L156.551 87.3467Z"></path>
<path fill="#631414" d="M156.889 94.6479L157.117 99.5608L158.221 99.248L157.953 94.3608L156.889 94.6479Z"></path>
<path fill="#631414" d="M157.272 102.969L157.533 108.607L158.725 108.239L158.416 102.63L157.272 102.969Z"></path>
<path fill="#631414" d="M157.688 111.966L157.99 118.447L159.267 118.031L158.899 111.587L157.688 111.966Z"></path>
<path fill="#631414" d="M158.207 122.985L158.556 130.58L159.944 130.091L159.524 122.543L158.207 122.985Z"></path>
<path fill="#631414" d="M158.836 136.733L159.255 145.853L160.775 145.264L160.275 136.207L158.836 136.733Z"></path>
<path fill="#631414" d="M145.37 84.8443L146.349 85.0872L146.519 81.3372C146.549 80.7201 146.499 80.1016 146.371 79.4972L146.191 78.625L145.926 79.361C145.717 79.9347 145.593 80.5361 145.558 81.1459L145.37 84.8443Z"></path>
<path fill="#631414" d="M146.184 87.5086L145.981 91.84L144.936 91.564L145.175 87.2546L146.184 87.5086Z"></path>
<path fill="#631414" d="M145.845 94.8357L145.617 99.7633L144.513 99.4468L144.782 94.5449L145.845 94.8357Z"></path>
<path fill="#631414" d="M145.459 103.182L145.198 108.838L144.001 108.47L144.314 102.844L145.459 103.182Z"></path>
<path fill="#631414" d="M145.014 112.783L144.712 119.341L143.424 118.922L143.792 112.401L145.014 112.783Z"></path>
<path fill="#631414" d="M144.498 123.945L144.13 131.64L142.75 131.143L143.173 123.496L144.498 123.945Z"></path>
<path fill="#631414" d="M143.891 137.076L143.486 146.232L141.963 145.639L142.467 136.542L143.891 137.076Z"></path>
<path fill="#631414" d="M152.635 85.1129H150.364L150.405 80.833C150.416 80.182 150.603 79.5462 150.946 78.9929L151.465 78.1392L151.983 78.9561C152.364 79.5283 152.574 80.1973 152.587 80.8845L152.635 85.1129Z"></path>
<path fill="#631414" d="M150.346 87.0081L150.305 91.7554H152.712L152.657 87.0081H150.346Z"></path>
<path fill="#631414" d="M150.28 94.3499L150.232 99.7559H152.808L152.745 94.3499H150.28Z"></path>
<path fill="#631414" d="M150.202 102.722L150.147 108.938H152.907L152.837 102.722H150.202Z"></path>
<path fill="#631414" d="M150.11 112.364L150.044 119.58H153.029L152.944 112.364H150.11Z"></path>
<path fill="#631414" d="M150.011 123.584L149.934 132.067H153.176L153.077 123.584H150.011Z"></path>
<path fill="#631414" d="M149.893 136.8L149.798 146.905H153.345L153.231 136.789L149.893 136.8Z"></path>
<path fill="#A02222" d="M161.327 137.458C160.433 138.886 156.742 140.973 152.068 142.585C146.401 144.542 141.433 145.054 140.976 143.729C140.967 143.7 140.96 143.671 140.954 143.641H140.914L139.81 160.175H162.258L161.327 137.458Z"></path>
<path fill="#631414" d="M155.373 170.98L153.533 172.084L153.422 151.321C153.422 150.475 153.79 149.794 154.273 149.794C154.751 149.794 155.148 150.475 155.159 151.321L155.373 170.98Z"></path>
<path fill="#631414" d="M141.595 177.486L139.578 178.697L140.59 156.4C140.631 155.516 141.057 154.802 141.543 154.802C142.029 154.802 142.397 155.516 142.364 156.4L141.595 177.486Z"></path>
<path fill="#631414" d="M148.638 174.16L146.721 175.319L147.089 153.827C147.089 152.962 147.509 152.267 147.991 152.267C148.473 152.267 148.856 152.962 148.844 153.827L148.638 174.16Z"></path>
<path fill="#631414" d="M161.758 167.064L160.047 168.113L159.649 148.13C159.62 147.306 159.98 146.658 160.448 146.658C160.919 146.658 161.331 147.321 161.364 148.13L161.758 167.064Z"></path>
<path fill="#A02222" d="M152.514 58.4875L151.479 73.9696L150.331 58.4728C150.644 58.4728 150.961 58.4507 151.288 58.4507C151.711 58.4507 152.12 58.4617 152.514 58.4875Z"></path>
<path fill="#A02222" d="M147.95 58.7488L145.282 74.8859L145.4 70.422L145.816 59.827H145.834C145.882 59.3854 146.699 58.999 147.95 58.7488Z"></path>
<path fill="#A02222" d="M157.228 74.963L154.549 58.7339C155.888 58.9878 156.757 59.4 156.757 59.8674C156.757 59.8674 156.757 59.8894 156.757 59.9005L157.018 66.5835V66.6792L157.228 74.963Z"></path>
<path fill="#631414" d="M159.358 143.773C159.747 143.773 160.061 143.459 160.061 143.071C160.061 142.682 159.747 142.368 159.358 142.368C158.97 142.368 158.656 142.682 158.656 143.071C158.656 143.459 158.97 143.773 159.358 143.773Z"></path>
<path fill="#490B0B" d="M152.502 211.012L151.365 58.4653H151.295C148.333 58.4653 145.926 59.0762 145.841 59.8417H145.823L145.161 76.678C145.12 76.7256 145.095 76.7849 145.091 76.8473L136.259 211.027L152.502 211.012Z" opacity="0.3"></path>
<path fill="#631414" d="M153.75 146.817C154.138 146.817 154.453 146.502 154.453 146.114C154.453 145.726 154.138 145.411 153.75 145.411C153.362 145.411 153.047 145.726 153.047 146.114C153.047 146.502 153.362 146.817 153.75 146.817Z"></path>
<path fill="#631414" d="M148.072 149.235C148.46 149.235 148.775 148.92 148.775 148.532C148.775 148.144 148.46 147.829 148.072 147.829C147.683 147.829 147.369 148.144 147.369 148.532C147.369 148.92 147.683 149.235 148.072 149.235Z"></path>
<path fill="#631414" d="M142.025 151.281C142.413 151.281 142.728 150.966 142.728 150.578C142.728 150.19 142.413 149.875 142.025 149.875C141.637 149.875 141.322 150.19 141.322 150.578C141.322 150.966 141.637 151.281 142.025 151.281Z"></path>
<path fill="#631414" d="M169.976 14.2604C172.262 14.2604 174.116 12.4068 174.116 10.1203C174.116 7.83381 172.262 5.98022 169.976 5.98022C167.689 5.98022 165.835 7.83381 165.835 10.1203C165.835 12.4068 167.689 14.2604 169.976 14.2604Z"></path>
<path fill="#C63634" d="M171.271 13.6016H168.978L170.126 8.14404L171.271 13.6016Z"></path>
<path fill="#C63634" d="M174.09 10.573C174.013 11.2814 173.756 11.9582 173.342 12.5383C172.928 13.1184 172.372 13.5822 171.727 13.8851L171.039 13.6127L171.23 13.4214L174.09 10.573Z"></path>
<path fill="#C63634" d="M169.21 13.6052L168.316 13.918C167.396 13.5132 166.653 12.789 166.226 11.8793L166.038 11.4082C165.917 11.0345 165.85 10.6454 165.839 10.2527L169.019 13.4139L169.21 13.6052Z"></path>
<path fill="#C63634" d="M170.012 14.3046C171.065 14.3046 171.919 14.0838 171.919 13.8115C171.919 13.5391 171.065 13.3184 170.012 13.3184C168.959 13.3184 168.106 13.5391 168.106 13.8115C168.106 14.0838 168.959 14.3046 170.012 14.3046Z"></path>
<path fill="#C63634" d="M172.375 25.5324H167.639L168.099 13.7966H171.915L172.375 25.5324Z"></path>
<path fill="#490B0B" d="M171.282 25.5545C171.405 25.4462 171.514 25.3225 171.606 25.1865C171.699 25.0549 171.758 24.9016 171.775 24.7412C171.767 24.5727 171.714 24.4094 171.623 24.2674C171.532 24.1253 171.406 24.0096 171.256 23.9315C170.973 23.7512 170.645 23.6445 170.373 23.4458C169.972 23.12 169.702 22.6597 169.615 22.1504C169.534 21.6381 169.515 21.1179 169.56 20.6011L169.869 14.1462C169.9 13.8783 169.871 13.6066 169.784 13.3513C169.607 12.9576 169.177 12.7552 168.835 12.4939C167.698 11.6327 167.451 10.0282 167.539 8.60402C167.527 8.17459 167.61 7.74775 167.781 7.35398C167.953 6.96021 168.21 6.60921 168.533 6.32605L168.411 6.30029C167.677 6.59948 167.044 7.1034 166.588 7.75206C166.132 8.40072 165.872 9.16677 165.839 9.95899C165.806 10.7512 166.002 11.5362 166.402 12.2205C166.803 12.9048 167.392 13.4595 168.099 13.8187L167.639 25.5471L171.282 25.5545Z" opacity="0.3"></path>
<path fill="#631414" d="M170.02 45.7985C173.359 45.7985 176.066 45.0966 176.066 44.2308C176.066 43.365 173.359 42.6631 170.02 42.6631C166.68 42.6631 163.973 43.365 163.973 44.2308C163.973 45.0966 166.68 45.7985 170.02 45.7985Z"></path>
<path fill="#631414" d="M177.516 81.3924H162.498L163.962 44.1868H176.055L177.516 81.3924Z"></path>
<path fill="#C63634" d="M173.192 24.9436C173.17 25.1754 172.769 25.3852 172.147 25.5324C171.653 25.642 171.151 25.7073 170.645 25.7274C170.443 25.7274 170.229 25.7274 170.012 25.7274H169.604C169.028 25.7131 168.455 25.6453 167.893 25.525C167.241 25.3741 166.833 25.157 166.833 24.9104C166.831 24.902 166.831 24.8932 166.833 24.8847C166.858 24.6271 167.352 24.3952 168.099 24.2517C168.554 24.1661 169.015 24.1157 169.479 24.1008C169.652 24.1008 169.828 24.1008 170.009 24.1008C170.262 24.1008 170.513 24.1008 170.745 24.1266C171.143 24.1452 171.539 24.1932 171.93 24.2701C172.666 24.4136 173.155 24.6381 173.181 24.8994L173.192 24.9436Z"></path>
<path fill="#C63634" d="M173.957 44.4664H166.056L166.693 28.2226L166.825 24.8921H173.188L173.192 24.9399L173.402 30.2908L173.405 30.3864L173.957 44.4664Z"></path>
<path fill="#631414" d="M170.752 24.1231L170.7 24.8959L170.645 25.7276L170.152 33.1135L169.604 25.7533L169.541 24.9106L169.482 24.1267C169.655 24.1267 169.832 24.1267 170.012 24.1267C170.266 24.0973 170.516 24.1047 170.752 24.1231Z"></path>
<path fill="#631414" d="M168.102 24.2627L167.999 24.8957L167.893 25.536L166.553 33.6322L166.693 28.2151L166.825 24.8846C166.862 24.6381 167.355 24.4062 168.102 24.2627Z"></path>
<path fill="#631414" d="M173.49 33.6874L172.147 25.5323L172.04 24.8957L171.937 24.2664C172.673 24.4099 173.162 24.6344 173.188 24.8957V24.9435L173.398 30.2943V30.39L173.49 33.6874Z"></path>
<g opacity="0.3">
<path fill="#490B0B" d="M170.056 24.0972L169.688 24.1744V24.2076L170.137 24.0972H170.056Z" opacity="0.3"></path>
<path fill="#490B0B" d="M172.474 44.0468C172.67 43.9354 172.831 43.7708 172.938 43.572C173.122 43.1562 172.824 42.6704 172.441 42.4202C172.058 42.1699 171.598 42.0742 171.201 41.8461C170.542 41.4271 170.073 40.7666 169.894 40.006C169.726 39.2467 169.658 38.4684 169.692 37.6913C169.692 33.2016 169.692 28.7107 169.692 24.2185L169.515 24.2627C169.538 24.2184 169.547 24.1685 169.541 24.1191C168.036 24.1743 166.873 24.4871 166.829 24.9067L166.06 44.481H171.746C171.998 44.3522 172.241 44.2072 172.474 44.0468Z" opacity="0.3"></path>
</g>
<path fill="#631414" d="M177.516 81.3997H162.498L163.502 55.8489L163.959 44.1977H163.981C164.032 43.712 164.937 43.2814 166.317 43.0017C167.188 42.8355 168.07 42.7346 168.956 42.7H171.374C172.128 42.7412 172.879 42.8309 173.622 42.9686C175.094 43.2556 176.062 43.7046 176.062 44.2272C176.064 44.2394 176.064 44.2518 176.062 44.264L176.346 51.4585V51.5321L177.516 81.3997Z"></path>
<path fill="#C63634" d="M186.62 211.512H153.393L163.153 63.0103H176.861L186.62 211.512Z"></path>
<path fill="#C63634" d="M170.012 64.3241C173.801 64.3241 176.872 63.7343 176.872 63.0067C176.872 62.2791 173.801 61.6892 170.012 61.6892C166.224 61.6892 163.153 62.2791 163.153 63.0067C163.153 63.7343 166.224 64.3241 170.012 64.3241Z"></path>
<path fill="#631414" d="M176.736 71.7026L175.657 71.9713L175.47 67.8312C175.439 67.1572 175.493 66.4821 175.632 65.8218L175.834 64.8577L176.125 65.6636C176.35 66.2987 176.481 66.9632 176.515 67.6361L176.736 71.7026Z"></path>
<path fill="#631414" d="M175.841 74.6466L176.062 79.4307L177.218 79.1289L176.953 74.3706L175.841 74.6466Z"></path>
<path fill="#631414" d="M176.213 82.7281L176.467 88.1636L177.696 87.8177L177.398 82.408L176.213 82.7281Z"></path>
<path fill="#631414" d="M176.64 91.9393L176.931 98.177L178.248 97.7759L177.906 91.5713L176.64 91.9393Z"></path>
<path fill="#631414" d="M177.1 101.894L177.431 109.066L178.848 108.606L178.447 101.474L177.1 101.894Z"></path>
<path fill="#631414" d="M177.663 114.093L178.053 122.499L179.588 121.958L179.124 113.604L177.663 114.093Z"></path>
<path fill="#631414" d="M178.37 129.307L178.833 139.398L180.515 138.746L179.96 128.722L178.37 129.307Z"></path>
<path fill="#631414" d="M163.469 71.8756L164.547 72.1442L164.739 67.9931C164.768 67.3167 164.713 66.6394 164.577 65.9764L164.374 65.0122L164.08 65.8181C163.856 66.4511 163.725 67.1129 163.69 67.7833L163.469 71.8756Z"></path>
<path fill="#631414" d="M164.363 74.8269L164.143 79.611L162.987 79.3056L163.252 74.5215L164.363 74.8269Z"></path>
<path fill="#631414" d="M163.992 82.9343L163.727 88.3918L162.494 88.0238L162.792 82.5994L163.992 82.9343Z"></path>
<path fill="#631414" d="M163.565 92.1713L163.274 98.4274L161.953 98.0263L162.295 91.7996L163.565 92.1713Z"></path>
<path fill="#631414" d="M163.072 102.799L162.737 110.06L161.312 109.593L161.71 102.376L163.072 102.799Z"></path>
<path fill="#631414" d="M162.501 115.15L162.107 123.669L160.565 123.121L161.033 114.656L162.501 115.15Z"></path>
<path fill="#631414" d="M161.828 129.682L161.36 139.817L159.679 139.177L160.238 129.112L161.828 129.682Z"></path>
<path fill="#631414" d="M171.506 72.1774H168.993L169.037 67.4374C169.048 66.716 169.256 66.0112 169.637 65.3987L170.211 64.4529L170.789 65.3545C171.206 65.9908 171.436 66.7318 171.451 67.4926L171.506 72.1774Z"></path>
<path fill="#631414" d="M168.974 74.2712L168.927 79.5264H171.591L171.532 74.2712H168.974Z"></path>
<path fill="#631414" d="M168.901 82.397L168.846 88.3918H171.694L171.624 82.408L168.901 82.397Z"></path>
<path fill="#631414" d="M168.816 91.6633L168.754 98.5414H171.823L171.746 91.6633H168.816Z"></path>
<path fill="#631414" d="M168.717 102.336L168.643 110.321H171.955L171.863 102.336H168.717Z"></path>
<path fill="#631414" d="M168.603 114.752L168.511 124.14H172.099L171.988 114.752H168.603Z"></path>
<path fill="#631414" d="M168.47 129.38L168.367 140.575H172.294L172.165 129.38H168.47Z"></path>
<path fill="#C63634" d="M181.13 130.109C180.136 131.688 176.051 133.999 170.881 135.784C164.606 137.948 159.105 138.514 158.604 137.05C158.592 137.024 158.582 136.997 158.575 136.969H158.527L157.294 155.266H182.138L181.13 130.109Z"></path>
<path fill="#631414" d="M174.535 167.208L172.518 168.437L172.393 145.437C172.393 144.502 172.809 143.748 173.335 143.748C173.865 143.748 174.303 144.502 174.318 145.437L174.535 167.208Z"></path>
<path fill="#631414" d="M159.285 174.406L157.055 175.749L158.159 151.071C158.203 150.092 158.678 149.304 159.215 149.304C159.756 149.304 160.161 150.092 160.124 151.071L159.285 174.406Z"></path>
<path fill="#631414" d="M167.079 170.73L164.959 172.011L165.361 148.223C165.379 147.266 165.824 146.497 166.358 146.497C166.892 146.497 167.315 147.266 167.304 148.223L167.079 170.73Z"></path>
<path fill="#631414" d="M181.605 162.873L179.695 164.036L179.253 141.919C179.224 141.006 179.621 140.274 180.14 140.274C180.659 140.274 181.111 141.01 181.152 141.919L181.605 162.873Z"></path>
<path fill="#C63634" d="M171.374 42.7037L170.229 59.8381L168.956 42.689L171.374 42.7037Z"></path>
<path fill="#C63634" d="M166.303 42.9944L163.359 60.8538L163.491 55.8415L163.947 44.1904H163.97C164.032 43.7046 164.937 43.2741 166.303 42.9944Z"></path>
<path fill="#C63634" d="M176.607 60.942L173.641 42.9758C175.113 43.2629 176.081 43.7118 176.081 44.2344C176.082 44.2466 176.082 44.259 176.081 44.2712L176.364 51.4658V51.5394L176.607 60.942Z"></path>
<path fill="#631414" d="M178.948 137.094C179.376 137.094 179.724 136.746 179.724 136.318C179.724 135.889 179.376 135.541 178.948 135.541C178.519 135.541 178.171 135.889 178.171 136.318C178.171 136.746 178.519 137.094 178.948 137.094Z"></path>
<path fill="#490B0B" d="M171.359 211.513L170.101 42.6816H170.023C166.744 42.6816 164.08 43.3588 163.988 44.2015H163.966L163.23 62.8374C163.185 62.8904 163.158 62.956 163.153 63.0251L153.393 211.513H171.359Z" opacity="0.3"></path>
<path fill="#631414" d="M172.743 140.465C173.172 140.465 173.519 140.117 173.519 139.688C173.519 139.26 173.172 138.912 172.743 138.912C172.314 138.912 171.966 139.26 171.966 139.688C171.966 140.117 172.314 140.465 172.743 140.465Z"></path>
<path fill="#631414" d="M166.454 143.14C166.882 143.14 167.23 142.793 167.23 142.364C167.23 141.935 166.882 141.587 166.454 141.587C166.025 141.587 165.677 141.935 165.677 142.364C165.677 142.793 166.025 143.14 166.454 143.14Z"></path>
<path fill="#631414" d="M159.767 145.407C160.196 145.407 160.543 145.06 160.543 144.631C160.543 144.202 160.196 143.854 159.767 143.854C159.338 143.854 158.99 144.202 158.99 144.631C158.99 145.06 159.338 145.407 159.767 145.407Z"></path>
<path fill="#631414" d="M209.58 45.7985C212.92 45.7985 215.627 45.0966 215.627 44.2308C215.627 43.365 212.92 42.6631 209.58 42.6631C206.241 42.6631 203.534 43.365 203.534 44.2308C203.534 45.0966 206.241 45.7985 209.58 45.7985Z"></path>
<path fill="#631414" d="M202.08 81.3924H217.099L215.638 44.1868H203.545L202.08 81.3924Z"></path>
<path fill="#631414" d="M209.544 14.2604C211.83 14.2604 213.684 12.4068 213.684 10.1203C213.684 7.83381 211.83 5.98022 209.544 5.98022C207.257 5.98022 205.404 7.83381 205.404 10.1203C205.404 12.4068 207.257 14.2604 209.544 14.2604Z"></path>
<path fill="#C63634" d="M210.839 13.6016H208.546L209.695 8.14404L210.839 13.6016Z"></path>
<path fill="#C63634" d="M213.658 10.5691C213.582 11.2782 213.325 11.9557 212.91 12.536C212.495 13.1163 211.938 13.5796 211.292 13.8812L210.607 13.6088L210.799 13.4175L213.658 10.5691Z"></path>
<path fill="#C63634" d="M208.778 13.6016L207.884 13.9144C206.962 13.5118 206.219 12.7869 205.794 11.8756L205.606 11.4046C205.485 11.0308 205.418 10.6417 205.407 10.249L208.587 13.4102L208.778 13.6016Z"></path>
<path fill="#C63634" d="M209.58 14.3046C210.633 14.3046 211.487 14.0838 211.487 13.8115C211.487 13.5391 210.633 13.3184 209.58 13.3184C208.528 13.3184 207.674 13.5391 207.674 13.8115C207.674 14.0838 208.528 14.3046 209.58 14.3046Z"></path>
<path fill="#C63634" d="M211.943 25.5324H207.207L207.667 13.7966H211.483L211.943 25.5324Z"></path>
<path fill="#490B0B" d="M210.85 25.5546C210.973 25.4463 211.082 25.3226 211.174 25.1866C211.267 25.055 211.326 24.9017 211.343 24.7413C211.334 24.573 211.281 24.41 211.191 24.2681C211.1 24.1262 210.973 24.0103 210.824 23.9317C210.541 23.7514 210.213 23.6446 209.941 23.4459C209.538 23.1216 209.267 22.6609 209.179 22.1505C209.097 21.6384 209.078 21.1179 209.124 20.6012L209.433 14.1464C209.465 13.8781 209.435 13.6061 209.345 13.3515C209.172 12.9577 208.741 12.7553 208.399 12.494C207.262 11.6329 207.015 10.0283 207.1 8.60416C207.155 7.70254 207.394 6.92972 208.101 6.34827L207.98 6.32251C207.244 6.62051 206.61 7.12397 206.153 7.77272C205.696 8.42148 205.435 9.1881 205.402 9.98099C205.369 10.7739 205.565 11.5595 205.967 12.244C206.368 12.9285 206.959 13.4828 207.667 13.8409L207.203 25.5693L210.85 25.5546Z" opacity="0.3"></path>
<path fill="#C63634" d="M209.584 25.7422C211.34 25.7422 212.764 25.3731 212.764 24.9178C212.764 24.4626 211.34 24.0935 209.584 24.0935C207.828 24.0935 206.405 24.4626 206.405 24.9178C206.405 25.3731 207.828 25.7422 209.584 25.7422Z"></path>
<path fill="#C63634" d="M205.639 44.4701H213.54L212.771 24.8958H206.408L205.639 44.4701Z"></path>
<path fill="#631414" d="M210.096 24.1045L209.43 33.1097L208.844 24.1156C209.073 24.1156 209.312 24.0935 209.555 24.0935C209.798 24.0935 209.93 24.0972 210.096 24.1045Z"></path>
<path fill="#631414" d="M213.04 33.6432L211.494 24.2664C212.23 24.4099 212.698 24.6344 212.723 24.892L212.962 30.9531V31.0561L213.04 33.6432Z"></path>
<path fill="#631414" d="M207.659 24.2554L206.103 33.6874L206.235 28.6972L206.382 24.9362C206.379 24.6455 206.883 24.4063 207.659 24.2554Z"></path>
<g opacity="0.3">
<path fill="#490B0B" d="M209.669 24.0972L209.301 24.1744V24.2076L209.753 24.0972H209.669Z" opacity="0.3"></path>
<path fill="#490B0B" d="M212.087 44.0468C212.282 43.9343 212.442 43.77 212.55 43.572C212.731 43.1562 212.432 42.6704 212.053 42.4202C211.674 42.1699 211.211 42.0742 210.813 41.8461C210.154 41.4271 209.685 40.7666 209.507 40.006C209.338 39.2467 209.27 38.4684 209.304 37.6913C209.304 33.2016 209.304 28.7107 209.304 24.2185L209.131 24.2627C209.152 24.2179 209.161 24.1684 209.157 24.1191C207.652 24.1743 206.486 24.4871 206.441 24.9067L205.68 44.47H211.369C211.616 44.3427 211.856 44.2014 212.087 44.0468Z" opacity="0.3"></path>
</g>
<path fill="#631414" d="M203.538 44.2676C203.538 44.2676 203.538 44.2455 203.538 44.2308C203.538 43.366 206.246 42.6667 209.584 42.6667C212.867 42.6667 215.531 43.3439 215.623 44.1866L217.088 81.3996H202.08L203.538 44.2676Z"></path>
<path fill="#C63634" d="M192.976 211.512H226.203L216.447 63.0103H202.736L192.976 211.512Z"></path>
<path fill="#C63634" d="M209.588 64.3241C213.376 64.3241 216.447 63.7343 216.447 63.0067C216.447 62.2791 213.376 61.6892 209.588 61.6892C205.799 61.6892 202.728 62.2791 202.728 63.0067C202.728 63.7343 205.799 64.3241 209.588 64.3241Z"></path>
<path fill="#631414" d="M202.857 71.7026L203.935 71.9713L204.127 67.8312C204.156 67.1573 204.102 66.4824 203.965 65.8218L203.762 64.8577L203.468 65.6636C203.249 66.2994 203.125 66.9641 203.1 67.6361L202.857 71.7026Z"></path>
<path fill="#631414" d="M203.755 74.6466L203.53 79.4307L202.379 79.1289L202.64 74.3706L203.755 74.6466Z"></path>
<path fill="#631414" d="M203.38 82.7281L203.129 88.1636L201.896 87.8177L202.195 82.408L203.38 82.7281Z"></path>
<path fill="#631414" d="M202.953 91.9393L202.666 98.177L201.344 97.7759L201.69 91.5713L202.953 91.9393Z"></path>
<path fill="#631414" d="M202.493 101.894L202.161 109.066L200.748 108.606L201.142 101.474L202.493 101.894Z"></path>
<path fill="#631414" d="M201.93 114.093L201.54 122.499L200.009 121.958L200.469 113.604L201.93 114.093Z"></path>
<path fill="#631414" d="M201.227 129.307L200.759 139.398L199.081 138.746L199.633 128.722L201.227 129.307Z"></path>
<path fill="#631414" d="M216.127 71.8756L215.045 72.1442L214.858 67.9931C214.825 67.3167 214.879 66.6389 215.02 65.9764L215.222 65.0122L215.513 65.8181C215.741 66.4549 215.873 67.1223 215.903 67.798L216.127 71.8756Z"></path>
<path fill="#631414" d="M215.248 74.8269L215.469 79.611L216.624 79.3056L216.363 74.5215L215.248 74.8269Z"></path>
<path fill="#631414" d="M215.616 82.9343L215.866 88.3882L217.103 88.0201L216.801 82.5957L215.616 82.9343Z"></path>
<path fill="#631414" d="M216.032 92.1713L216.322 98.4274L217.643 98.0263L217.298 91.7996L216.032 92.1713Z"></path>
<path fill="#631414" d="M216.521 102.799L216.86 110.06L218.284 109.593L217.883 102.376L216.521 102.799Z"></path>
<path fill="#631414" d="M217.088 115.15L217.478 123.669L219.024 123.121L218.556 114.656L217.088 115.15Z"></path>
<path fill="#631414" d="M217.765 129.682L218.232 139.817L219.918 139.162L219.362 129.097L217.765 129.682Z"></path>
<path fill="#631414" d="M208.086 72.1775H210.6L210.556 67.4376C210.546 66.7159 210.339 66.0106 209.956 65.3988L209.386 64.4714L208.808 65.3731C208.387 66.0079 208.156 66.7496 208.142 67.5112L208.086 72.1775Z"></path>
<path fill="#631414" d="M210.618 74.2712L210.666 79.5264H208.002L208.064 74.2712H210.618Z"></path>
<path fill="#631414" d="M210.696 82.397L210.747 88.3808H207.888L207.954 82.397H210.696Z"></path>
<path fill="#631414" d="M210.78 91.6633L210.843 98.5414H207.785L207.862 91.6633H210.78Z"></path>
<path fill="#631414" d="M210.876 102.336L210.95 110.321H207.637L207.729 102.336H210.876Z"></path>
<path fill="#631414" d="M210.99 114.752L211.074 124.14H207.49L207.597 114.752H210.99Z"></path>
<path fill="#631414" d="M211.122 129.38L211.225 140.575H207.302L207.431 129.38H211.122Z"></path>
<path fill="#C63634" d="M198.467 130.109C199.46 131.688 203.541 133.999 208.716 135.784C214.972 137.948 220.492 138.514 220.992 137.05C221.002 137.017 221.009 136.984 221.014 136.95H221.059L222.291 155.248H197.447L198.467 130.109Z"></path>
<path fill="#631414" d="M205.058 167.208L207.078 168.437L207.2 145.437C207.2 144.502 206.787 143.748 206.257 143.748C205.731 143.748 205.29 144.502 205.275 145.437L205.058 167.208Z"></path>
<path fill="#631414" d="M220.308 174.406L222.542 175.749L221.419 151.071C221.375 150.092 220.904 149.304 220.363 149.304C219.826 149.304 219.417 150.092 219.454 151.071L220.308 174.406Z"></path>
<path fill="#631414" d="M212.517 170.73L214.637 172.011L214.236 148.223C214.236 147.266 213.768 146.497 213.235 146.497C212.701 146.497 212.278 147.266 212.289 148.223L212.517 170.73Z"></path>
<path fill="#631414" d="M197.992 162.873L199.902 164.036L200.34 141.919C200.373 141.006 199.972 140.274 199.457 140.274C198.934 140.274 198.481 141.01 198.445 141.919L197.992 162.873Z"></path>
<path fill="#C63634" d="M210.64 42.6925L209.36 59.8417L208.215 42.7072C208.649 42.6815 209.102 42.6667 209.569 42.6667C209.941 42.6667 210.294 42.6741 210.64 42.6925Z"></path>
<path fill="#C63634" d="M216.227 60.8538L213.283 42.9944C214.666 43.2704 215.572 43.701 215.623 44.1867L216.087 55.9409V56.0292L216.227 60.8538Z"></path>
<path fill="#C63634" d="M205.974 42.9722L203.004 60.9383L203.251 51.5909L203.538 44.2676C203.538 44.2676 203.538 44.2455 203.538 44.2308C203.534 43.7155 204.491 43.2592 205.974 42.9722Z"></path>
<path fill="#490B0B" d="M210.894 211.513L209.636 42.6816H209.558C206.279 42.6816 203.615 43.3588 203.523 44.2015H203.501L202.765 62.8374C202.72 62.8904 202.693 62.956 202.688 63.0251L192.928 211.513H210.894Z" opacity="0.3"></path>
<path fill="#631414" d="M200.649 137.094C201.078 137.094 201.425 136.746 201.425 136.318C201.425 135.889 201.078 135.541 200.649 135.541C200.22 135.541 199.872 135.889 199.872 136.318C199.872 136.746 200.22 137.094 200.649 137.094Z"></path>
<path fill="#631414" d="M206.857 140.465C207.286 140.465 207.634 140.117 207.634 139.688C207.634 139.26 207.286 138.912 206.857 138.912C206.428 138.912 206.081 139.26 206.081 139.688C206.081 140.117 206.428 140.465 206.857 140.465Z"></path>
<path fill="#631414" d="M213.143 143.14C213.572 143.14 213.919 142.793 213.919 142.364C213.919 141.935 213.572 141.587 213.143 141.587C212.714 141.587 212.366 141.935 212.366 142.364C212.366 142.793 212.714 143.14 213.143 143.14Z"></path>
<path fill="#631414" d="M219.833 145.407C220.262 145.407 220.61 145.06 220.61 144.631C220.61 144.202 220.262 143.854 219.833 143.854C219.404 143.854 219.057 144.202 219.057 144.631C219.057 145.06 219.404 145.407 219.833 145.407Z"></path>
<path fill="#631414" d="M192.464 135.195L223.778 149.268L222.733 192.28L202.551 203.431L192.464 135.195Z"></path>
<path fill="#631414" d="M186.963 135.195L155.645 149.268L156.694 192.28L176.872 203.431L186.963 135.195Z"></path>
<path fill="#490B0B" d="M209.93 199.354L202.551 203.431L192.464 135.195L198.168 137.76L209.93 199.354Z"></path>
<path fill="#490B0B" d="M186.963 135.195L176.872 203.431L169.298 199.247L181.019 137.867L186.963 135.195Z"></path>
<path fill="#490B0B" d="M181.019 137.867L186.963 135.195L176.872 203.431L169.298 199.247L181.019 137.867Z"></path>
<path fill="#490B0B" d="M209.93 199.354L202.551 203.431L192.464 135.195L198.168 137.76L209.93 199.354Z"></path>
<path fill="#631414" d="M189.564 114.988C191.509 114.988 193.086 114.579 193.086 114.075C193.086 113.571 191.509 113.162 189.564 113.162C187.619 113.162 186.043 113.571 186.043 114.075C186.043 114.579 187.619 114.988 189.564 114.988Z"></path>
<path fill="#631414" d="M186.911 135.725H192.251C192.472 135.725 192.69 135.681 192.893 135.594C193.097 135.508 193.28 135.381 193.433 135.222C193.586 135.063 193.705 134.875 193.784 134.668C193.862 134.462 193.898 134.242 193.889 134.021L193.153 115.621C193.136 115.197 192.957 114.797 192.651 114.503C192.346 114.209 191.939 114.045 191.515 114.046H187.621C187.198 114.046 186.791 114.21 186.486 114.504C186.181 114.798 186.001 115.198 185.984 115.621L185.248 134.021C185.239 134.244 185.275 134.466 185.355 134.674C185.435 134.882 185.557 135.072 185.712 135.232C185.868 135.391 186.055 135.517 186.261 135.602C186.467 135.687 186.688 135.729 186.911 135.725Z"></path>
<path fill="#C63634" d="M191.872 114.215H187.268L187.301 113.383L187.717 102.836V102.81H191.423L191.839 113.383L191.872 114.215Z"></path>
<path fill="#631414" d="M189.874 102.354L189.487 107.598L189.119 102.376C189.252 102.376 189.392 102.376 189.535 102.376C189.679 102.376 189.771 102.347 189.874 102.354Z"></path>
<path fill="#631414" d="M191.581 107.896L190.68 102.435C191.103 102.519 191.379 102.652 191.416 102.803L191.555 106.332L191.581 107.896Z"></path>
<path fill="#631414" d="M188.446 102.439L187.541 107.933L187.614 105.052L187.702 102.844C187.699 102.667 187.993 102.527 188.446 102.439Z"></path>
<g opacity="0.3">
<path fill="#490B0B" d="M189.616 102.347L189.406 102.391L189.668 102.328L189.616 102.347Z" opacity="0.3"></path>
<path fill="#490B0B" d="M191.294 113.692C191.233 113.808 191.139 113.904 191.026 113.968L190.657 114.215H187.279L187.312 113.38L187.724 102.88V102.81C187.724 102.637 188.118 102.486 188.667 102.406H188.714H188.829H188.887H188.932H189.02H189.119H189.178H189.307C189.312 102.432 189.312 102.46 189.307 102.486L189.406 102.461V103.355C189.406 105.673 189.406 107.992 189.406 110.31C189.394 110.706 189.421 111.102 189.487 111.492C189.487 111.547 189.509 111.602 189.524 111.657C189.627 112.103 189.9 112.492 190.286 112.739C190.518 112.872 190.786 112.931 191.022 113.074C191.126 113.136 191.208 113.229 191.257 113.34C191.306 113.45 191.319 113.574 191.294 113.692Z" opacity="0.3"></path>
</g>
<path fill="#631414" d="M193.944 135.725H185.196L185.263 134.087V134.025L185.873 118.517L186.046 114.101C186.045 114.095 186.045 114.088 186.046 114.082C186.046 113.781 186.606 113.516 187.467 113.346C187.899 113.263 188.337 113.209 188.777 113.184C189.031 113.184 189.296 113.162 189.568 113.162C189.778 113.162 189.984 113.162 190.183 113.162C190.699 113.183 191.213 113.242 191.721 113.339C192.523 113.501 193.05 113.751 193.079 114.031L193.344 120.81V120.983L193.878 134.025L193.944 135.725Z"></path>
<path fill="#C63634" d="M190.179 113.181L189.443 123.172L188.777 113.188C189.031 113.188 189.296 113.166 189.568 113.166C189.774 113.166 189.98 113.17 190.179 113.181Z"></path>
<path fill="#C63634" d="M193.436 123.761L191.721 113.357C192.523 113.519 193.05 113.77 193.079 114.049L193.344 120.828V121.001L193.436 123.761Z"></path>
<path fill="#C63634" d="M187.463 113.35L187.32 114.215L185.734 123.813L185.873 118.513V118.145C185.873 118.068 185.873 117.994 185.873 117.917L185.892 117.475C185.892 117.402 185.892 117.332 185.892 117.262L185.958 115.602V115.308V114.921L185.991 114.123C185.99 114.117 185.99 114.111 185.991 114.105C185.992 114.044 186.013 113.986 186.05 113.939C186.095 113.875 186.152 113.821 186.219 113.781L186.289 113.737C186.391 113.677 186.499 113.626 186.61 113.586C186.819 113.512 187.033 113.453 187.25 113.409L187.463 113.35Z"></path>
<path fill="#A02222" d="M193.51 126.433H185.697L169.446 211.527H209.761L193.51 126.433Z"></path>
<path fill="#C63634" d="M223.984 149.268L203.792 211.527H244.177L223.984 149.268Z"></path>
<path fill="#631414" d="M183.422 211.575H196.384L196.016 203.571C195.099 184.214 184.659 184.295 183.787 203.667L183.422 211.575Z"></path>
<path fill="#631414" d="M196.24 175.462L189.844 166.575L183.437 175.462L189.844 157.055L196.24 175.462Z"></path>
<path fill="#631414" d="M219.932 211.575H228.183L227.94 206.482C227.359 194.161 220.716 194.212 220.161 206.541L219.932 211.575Z"></path>
<path fill="#631414" d="M228.091 188.593L224.021 182.94L219.944 188.593L224.021 176.879L228.091 188.593Z"></path>
<path fill="#C63634" d="M155.634 149.72V211.531H135.291L135.721 210.213L155.483 149.264L155.634 149.72Z"></path>
<path fill="#A02222" d="M189.609 127.231C191.783 127.231 193.546 126.915 193.546 126.525C193.546 126.134 191.783 125.818 189.609 125.818C187.434 125.818 185.671 126.134 185.671 126.525C185.671 126.915 187.434 127.231 189.609 127.231Z"></path>
<path fill="#C63634" d="M155.483 149.268L135.291 211.527H175.676L155.483 149.268Z"></path>
<path fill="#631414" d="M151.432 211.575H159.679L159.436 206.482C158.854 194.161 152.212 194.212 151.656 206.541L151.432 211.575Z"></path>
<path fill="#631414" d="M159.59 188.593L155.52 182.94L151.443 188.593L155.52 176.879L159.59 188.593Z"></path>
<path fill="#490B0B" d="M155.634 149.72V211.531H135.32L135.721 210.213L155.483 149.264L155.634 149.72Z" opacity="0.3"></path>
<path fill="#490B0B" d="M224.135 149.72V211.531H203.821L204.222 210.213L223.988 149.264L224.135 149.72Z" opacity="0.3"></path>
<path fill="#490B0B" d="M42.7589 95.7519L41.9161 92.5061C41.3637 90.1683 40.6881 87.8613 39.8921 85.5949C39.5241 84.6454 39.1561 83.7107 38.7476 82.7833C38.5488 82.3196 38.3464 81.8596 38.1404 81.3996C35.5849 75.6499 32.6668 70.0682 29.4039 64.6883C27.884 62.1859 26.3935 59.9668 24.1929 58.0164C22.1026 56.1763 19.6811 54.7301 17.2228 53.431C14.577 51.9796 11.8027 50.776 8.93526 49.8355C8.01892 49.5485 5.75199 49.5007 5.91759 48.3194C6.06112 47.2963 7.59203 45.9347 8.43476 45.4673C9.80467 44.7756 11.2772 44.3096 12.7957 44.0873C15.8646 43.5369 19.0257 43.8412 21.9333 44.9668C24.1633 45.8639 26.1785 47.2225 27.8465 48.9533C29.5145 50.6841 30.7977 52.7481 31.6119 55.0097C31.9831 54.0125 32.0461 52.9268 31.7928 51.8933C31.5395 50.8598 30.9816 49.9262 30.1914 49.2136C33.1539 49.5522 35.2846 52.3122 36.2709 55.1275C37.2571 57.9428 37.4743 60.9936 38.5562 63.7757C38.8653 61.472 39.172 59.167 39.4762 56.8608C40.9883 58.9305 42.0554 61.2909 42.6103 63.7933C43.1651 66.2958 43.1956 68.886 42.7 71.4008C43.436 69.9288 44.1622 68.4469 44.8786 66.9553C46.5937 72.96 46.2807 79.3628 43.988 85.1717C48.5697 82.3527 50.9801 76.8069 55.3631 73.7045C54.1429 76.543 53.8468 79.6935 54.5167 82.7097C56.2022 79.1768 57.9723 75.5299 60.9605 72.998C62.9333 71.3345 65.3278 70.2493 67.8791 69.8625C66.2213 71.891 65.3848 74.4675 65.5349 77.0829C66.867 74.7754 68.2765 72.3797 70.5103 70.9298C71.3612 70.4025 72.27 69.9752 73.2189 69.6565C76.7348 68.3913 80.4633 67.8226 84.1965 67.982C82.9103 68.459 81.7541 69.2313 80.8209 70.2367C79.8877 71.2422 79.2036 72.4527 78.8236 73.7708C78.8015 73.8591 78.7169 73.918 78.6617 73.9953C78.6065 74.0726 78.5955 74.1977 78.6617 74.2382C78.7279 74.2786 78.7831 74.0762 78.6948 74.1094C84.0457 72.9133 90.1031 72.6373 95.0307 75.0588C100.485 77.7637 103.892 83.5782 105.088 89.5473C103.543 87.3392 100.812 86.3051 98.2434 85.4403C93.0361 83.6812 87.6779 82.0068 82.1799 82.0988C80.7216 82.1387 79.2669 82.2615 77.8226 82.4668C71.4156 83.3169 64.9424 85.0429 59.724 88.8517L60.1251 88.2593C62.5687 87.7698 64.7068 88.3402 67.1835 88.6273C64.74 90.0478 62.0314 91.8326 61.634 94.6295C64.0762 93.5265 66.6908 92.8541 69.3621 92.6422C72.0339 92.495 74.7939 93.0323 77.0425 94.4823C74.8452 95.3299 72.9177 96.7552 71.4635 98.6076C77.2853 97.4521 83.685 100.337 86.6806 105.46C84.8195 104.515 82.6692 104.311 80.6637 104.89C83.5267 106.788 85.9629 109.261 87.8168 112.153C89.6708 115.045 90.9019 118.291 91.4316 121.685C91.6582 122.964 91.6831 124.27 91.5052 125.557C91.2702 126.735 90.91 127.885 90.4306 128.987L88.5906 133.671L88.7598 133.613C88.3918 132.527 88.2741 131.261 87.987 130.157C87.7681 129.356 87.4939 128.572 87.1664 127.809C83.7402 119.433 78.1759 111.679 70.3742 107.098C69.1187 106.359 67.8141 105.707 66.4696 105.147C65.1889 104.614 63.8935 104.161 62.554 103.734C60.8207 103.171 59.0432 102.63 57.2216 102.63C60.7765 104.492 64.2395 106.84 65.7115 110.575C63.6574 109.959 61.4802 109.877 59.3855 110.336C62.459 111.919 65.2256 114.038 67.5552 116.592C69.145 118.333 70.5434 120.305 71.2353 122.554C69.4959 122.438 67.7676 122.192 66.0648 121.818C66.3813 122.808 67.3013 123.448 68.122 124.081C69.6419 125.25 70.9962 126.619 72.148 128.151C72.6575 128.794 73.0772 129.504 73.3955 130.26C73.6442 130.977 73.8217 131.716 73.9254 132.468C74.2444 134.333 74.5633 136.198 74.8823 138.065C73.0446 135.938 70.9773 134.02 68.7181 132.347C69.8738 136.61 70.1121 141.07 69.4173 145.433C68.6813 149.794 66.7198 154.011 63.4924 157.033C62.0374 158.359 60.4317 159.51 58.7083 160.462C57.9392 160.9 57.0302 161.566 56.1727 161.787C54.8001 162.155 55.6097 161.051 56.0255 160.341C58.0806 156.878 59.5503 153.099 60.3754 149.157C60.9053 146.186 61.175 143.174 61.1813 140.156C61.2817 137.814 61.1844 135.467 60.8906 133.142C60.3938 129.778 59.183 126.565 57.8435 123.444C57.2792 122.129 56.6916 120.828 56.0807 119.54C54.9178 117.085 52.9858 114.623 51.4034 112.393C49.6311 109.878 47.674 107.497 45.5484 105.272C44.5179 104.205 43.4397 103.182 42.3172 102.214C40.2858 100.462 36.8155 102.711 34.9571 104.647C30.2319 109.585 27.4792 116.162 26.0918 122.867C24.7044 129.572 24.5645 136.461 24.4357 143.306C24.3658 147.049 24.2996 150.832 25.1092 154.482C26.3163 159.918 29.3854 164.728 32.3994 169.409C30.8935 170.022 29.2154 170.062 27.6816 169.523C26.296 169.034 25.0096 168.299 23.8837 167.355C21.4617 165.491 19.4298 163.169 17.9036 160.521C14.1757 153.864 14.5658 145.764 15.0626 138.15C13.9551 138.592 12.9943 139.337 12.2902 140.3C11.5861 141.262 11.167 142.403 11.0807 143.593C9.0015 136.476 12.7073 128.137 19.3756 124.883C18.1433 124.407 16.8171 124.223 15.5015 124.346C14.1859 124.469 12.917 124.896 11.7947 125.594C14.3552 120.322 18.5608 116.026 23.777 113.354C21.1102 111.967 18.031 111.594 15.1104 112.305C16.178 110.446 17.579 108.799 19.2432 107.447C17.2081 107.421 15.2171 108.076 13.3845 108.96C7.58835 111.753 3.20169 116.717 -1.47569 121.137C-3.07652 122.65 -4.73256 124.114 -6.20827 125.752C-11.4267 131.599 -14.1249 139.27 -13.7156 147.096C-15.819 144.554 -17.0828 141.422 -17.3331 138.132C-17.5797 134.871 -17.0424 131.6 -16.207 128.442C-15.4342 125.524 -14.367 122.624 -12.527 120.224C-10.0061 116.912 -6.25243 114.848 -2.61283 112.864C-3.27624 112.394 -4.03989 112.085 -4.84339 111.961C-5.64689 111.837 -6.4682 111.902 -7.24237 112.15C-8.68128 112.68 -9.90307 113.667 -11.0917 114.638C-10.79 112.713 -10.4256 110.7 -9.21857 109.173C-7.81278 107.392 -5.53849 106.597 -3.38197 105.861C-0.27598 104.831 3.02505 103.789 6.212 104.533C4.66812 103.04 2.62441 102.176 0.478437 102.107C1.4831 100.407 3.37098 99.4136 5.26254 98.8579C7.45586 98.266 9.72769 98.0177 11.9971 98.1219C13.8702 98.1697 16.2844 98.891 18.0361 98.4899C18.0177 97.1062 17.1418 95.7188 16.0709 94.8724C15.1767 94.1621 14.0395 93.8125 13.1673 93.1243C15.552 91.1886 21.6315 91.9025 24.4836 92.3257C28.276 92.8744 31.9171 94.1891 35.1853 96.1898C30.6036 91.2659 24.2996 87.7256 17.9956 85.3925C14.5989 84.1302 11.1175 83.0262 7.52947 82.5147C2.29272 81.7786 -3.02868 82.3086 -8.29487 82.8459C-10.8194 83.1035 -13.3844 83.3721 -15.7213 84.3547C-18.0581 85.3373 -20.0196 86.9602 -21.9553 88.5684L-21.3812 87.7661C-18.0692 83.0593 -16.6486 77.8962 -11.4229 75.4931C-8.79552 74.3056 -5.94057 73.7058 -3.05742 73.7357C-0.174255 73.7656 2.66765 74.4243 5.2699 75.666C4.88065 74.3313 4.16145 73.1162 3.17867 72.1327C2.19588 71.1493 0.981201 70.4293 -0.353262 70.0392C2.65704 68.3832 6.47696 68.8873 9.53143 70.4514C12.5859 72.0154 15.0258 74.5362 17.4142 77.0019C17.2822 74.5704 16.4417 72.2307 14.9963 70.271C17.9963 70.9952 20.7776 72.4315 23.1048 74.4583C25.432 76.4851 27.2367 79.0428 28.3661 81.9148C29.7645 79.2357 29.6651 76.2364 27.6595 73.9769C30.4527 74.8159 32.4436 77.2153 34.1622 79.5816C37.6491 84.427 40.5901 89.6426 42.9318 95.1336C42.8545 94.8392 42.8325 96.0463 42.7589 95.7519Z"></path>
<path fill="#490B0B" d="M40.6318 92.7307C59.4885 142.077 50.3251 202.592 18.6654 245.84L3.14282 231.547C36.8192 194.952 50.9581 141.385 39.7228 92.9332L40.6318 92.7234V92.7307Z"></path>
<path fill="#490B0B" d="M336.926 111.966C337.047 111.492 337.169 111.017 337.294 110.546C337.531 109.526 337.821 108.519 338.162 107.528C338.317 107.112 338.49 106.7 338.667 106.295L338.932 105.688C340.056 103.156 341.341 100.698 342.777 98.328C343.38 97.2338 344.15 96.2405 345.059 95.384C345.995 94.5959 347.022 93.9214 348.117 93.3747C349.277 92.7391 350.493 92.2107 351.749 91.7959C352.154 91.6708 353.148 91.6524 353.074 91.1335C353.012 90.6845 352.338 90.0884 351.97 89.8823C351.369 89.5791 350.723 89.3741 350.056 89.2751C348.338 88.9652 346.566 89.2762 345.056 90.1526C343.546 91.029 342.396 92.4136 341.813 94.0592C341.651 93.6213 341.624 93.145 341.735 92.6916C341.847 92.2383 342.092 91.8289 342.439 91.5162C341.14 91.6671 340.205 92.8778 339.771 94.0923C339.336 95.3067 339.244 96.6683 338.77 97.8864C338.633 96.8744 338.501 95.8624 338.365 94.8541C337.696 95.7669 337.225 96.8091 336.982 97.9141C336.738 99.0192 336.728 100.163 336.952 101.272C336.632 100.624 336.315 99.973 335.995 99.3253C335.246 101.958 335.383 104.764 336.385 107.311C334.376 106.075 333.327 103.631 331.398 102.284C331.932 103.529 332.061 104.911 331.766 106.233C331.03 104.684 330.25 103.083 328.94 101.975C328.077 101.244 327.027 100.767 325.908 100.599C326.634 101.488 327 102.617 326.934 103.764C326.349 102.752 325.731 101.703 324.752 101.066C324.378 100.836 323.98 100.648 323.564 100.507C322.022 99.9523 320.387 99.7024 318.75 99.7706C319.314 99.9795 319.821 100.318 320.231 100.759C320.64 101.2 320.939 101.732 321.105 102.31C321.105 102.35 321.153 102.376 321.175 102.406C321.197 102.435 321.205 102.498 321.175 102.512C321.146 102.527 321.124 102.442 321.175 102.457C318.831 101.935 316.167 101.806 314.014 102.873C311.622 104.062 310.128 106.608 309.598 109.228C310.275 108.253 311.474 107.808 312.601 107.425C314.882 106.656 317.234 105.92 319.644 105.953C320.284 105.97 320.921 106.024 321.554 106.115C324.366 106.483 327.199 107.249 329.492 108.912L329.316 108.654C328.245 108.441 327.306 108.691 326.221 108.809C327.291 109.431 328.476 110.215 328.657 111.44C327.584 110.956 326.437 110.661 325.264 110.568C324.085 110.48 322.908 110.762 321.896 111.374C322.86 111.746 323.706 112.372 324.344 113.185C323.058 112.955 321.732 113.119 320.541 113.656C319.35 114.192 318.348 115.076 317.668 116.191C318.484 115.776 319.427 115.686 320.307 115.941C319.052 116.773 317.984 117.857 317.171 119.124C316.358 120.391 315.818 121.814 315.585 123.301C315.486 123.863 315.475 124.436 315.552 125.001C315.656 125.517 315.814 126.02 316.023 126.503C316.295 127.187 316.565 127.872 316.833 128.556L316.759 128.534C316.914 128.056 316.973 127.5 317.098 127.018C317.196 126.666 317.319 126.322 317.466 125.988C318.967 122.307 321.407 118.914 324.826 116.905C325.376 116.581 325.948 116.295 326.537 116.048C327.1 115.816 327.678 115.617 328.256 115.429C329.005 115.149 329.793 114.987 330.592 114.947C329.036 115.764 327.516 116.787 326.872 118.432C327.772 118.163 328.726 118.127 329.643 118.329C328.296 119.021 327.084 119.946 326.062 121.064C325.338 121.807 324.786 122.7 324.443 123.68C325.206 123.626 325.963 123.517 326.71 123.353C326.516 123.767 326.202 124.113 325.808 124.346C325.141 124.858 324.547 125.458 324.042 126.131C323.819 126.413 323.636 126.724 323.497 127.055C323.387 127.369 323.308 127.693 323.262 128.023C323.122 128.84 322.982 129.66 322.846 130.477C323.651 129.544 324.557 128.702 325.547 127.967C325.042 129.845 324.941 131.808 325.253 133.727C325.541 135.66 326.453 137.446 327.851 138.813C328.487 139.394 329.188 139.899 329.941 140.318C330.287 140.551 330.657 140.746 331.045 140.899C331.649 141.065 331.292 140.579 331.111 140.263C330.211 138.744 329.566 137.088 329.201 135.361C328.963 134.058 328.84 132.736 328.833 131.412C328.787 130.385 328.829 129.355 328.959 128.335C329.219 126.866 329.668 125.436 330.294 124.081C330.54 123.507 330.797 122.937 331.067 122.37C331.663 121.27 332.349 120.223 333.121 119.238C333.899 118.133 334.76 117.089 335.697 116.114C336.146 115.646 336.62 115.198 337.11 114.774C338.004 114.005 339.524 114.988 340.341 115.838C342.42 118.005 343.624 120.891 344.238 123.827C344.853 126.764 344.908 129.793 344.974 132.792C345.07 134.432 344.971 136.077 344.68 137.694C344.15 140.079 342.803 142.187 341.482 144.241C342.142 144.51 342.878 144.527 343.55 144.289C344.156 144.075 344.719 143.754 345.21 143.339C346.273 142.522 347.165 141.503 347.834 140.34C349.471 137.422 349.306 133.867 349.081 130.529C349.567 130.723 349.988 131.049 350.297 131.471C350.606 131.892 350.79 132.392 350.829 132.913C351.243 131.336 351.109 129.664 350.447 128.172C349.786 126.681 348.637 125.459 347.19 124.707C347.728 124.5 348.308 124.421 348.882 124.475C349.457 124.529 350.011 124.716 350.502 125.02C349.376 122.716 347.533 120.84 345.25 119.673C346.419 119.064 347.768 118.901 349.048 119.212C348.581 118.397 347.967 117.674 347.237 117.082C348.136 117.101 349.018 117.329 349.814 117.748C352.356 118.97 354.281 121.148 356.331 123.088C357.034 123.75 357.759 124.394 358.407 125.112C360.703 127.676 361.894 131.043 361.719 134.481C362.64 133.365 363.194 131.991 363.305 130.547C363.372 129.111 363.197 127.674 362.786 126.297C362.492 125.001 361.946 123.777 361.178 122.694C360.074 121.248 358.429 120.335 356.831 119.463C357.123 119.257 357.458 119.122 357.81 119.068C358.163 119.013 358.523 119.042 358.863 119.15C359.484 119.421 360.054 119.794 360.552 120.254C360.416 119.411 360.258 118.528 359.728 117.858C359.113 117.074 358.112 116.725 357.152 116.412C355.79 115.959 354.34 115.503 352.945 115.83C353.621 115.175 354.517 114.794 355.459 114.763C354.961 114.043 354.211 113.535 353.357 113.339C352.399 113.079 351.405 112.971 350.413 113.019C349.593 113.019 348.533 113.354 347.764 113.185C347.787 112.874 347.876 112.571 348.024 112.297C348.173 112.023 348.377 111.784 348.625 111.595C349.019 111.286 349.515 111.131 349.898 110.829C348.853 109.983 346.196 110.296 344.937 110.48C343.273 110.721 341.676 111.298 340.242 112.176C342.251 110.016 345.026 108.47 347.782 107.44C349.262 106.856 350.801 106.432 352.371 106.178C354.668 105.85 357.001 106.086 359.308 106.321C360.423 106.324 361.526 106.548 362.554 106.978C363.582 107.409 364.515 108.039 365.299 108.831L365.045 108.463C363.595 106.398 362.97 104.132 360.677 103.079C359.525 102.558 358.273 102.295 357.009 102.309C355.744 102.322 354.498 102.611 353.357 103.156C353.528 102.571 353.843 102.038 354.273 101.607C354.703 101.175 355.235 100.859 355.819 100.687C354.502 99.951 352.824 100.179 351.484 100.867C350.145 101.555 349.074 102.659 348.029 103.741C348.087 102.678 348.456 101.654 349.089 100.797C347.773 101.115 346.554 101.745 345.534 102.633C344.513 103.522 343.722 104.643 343.226 105.902C342.612 104.728 342.656 103.414 343.535 102.42C342.31 102.788 341.43 103.841 340.683 104.879C339.155 107.005 337.865 109.293 336.838 111.701C336.882 111.576 336.893 112.099 336.926 111.966Z"></path>
<path fill="#490B0B" d="M337.857 110.642C329.588 132.284 333.606 158.825 347.491 177.788L354.299 171.532C339.528 155.483 333.323 131.986 338.254 110.741L337.857 110.649V110.642Z"></path>
<path fill="#A02222" d="M256.332 107.37H255.195V109.839H256.332V107.37Z" opacity="0.2"></path>
<path fill="#A02222" d="M249.278 115.61H248.14V118.079H249.278V115.61Z" opacity="0.2"></path>
<path fill="#A02222" d="M244.567 107.37H243.43V109.839H244.567V107.37Z" opacity="0.2"></path>
<path fill="#A02222" d="M279.414 114.16H278.276V116.629H279.414V114.16Z" opacity="0.2"></path>
<path fill="#A02222" d="M276.374 101.622H275.237V104.091H276.374V101.622Z" opacity="0.2"></path>
<path fill="#A02222" d="M103.131 94.6516H101.993V97.1209H103.131V94.6516Z" opacity="0.2"></path>
<path fill="#A02222" d="M52.0326 113.74H50.8955V116.21H52.0326V113.74Z" opacity="0.2"></path>
<path fill="#A02222" d="M112.894 106.726H111.757V109.195H112.894V106.726Z" opacity="0.2"></path>
<path fill="#A02222" d="M125.623 130.875H124.486V133.344H125.623V130.875Z" opacity="0.2"></path>
<path fill="#A02222" d="M137.532 130.875H136.395V133.344H137.532V130.875Z" opacity="0.2"></path>
<path fill="#A02222" d="M105.224 131.037H104.087V133.506H105.224V131.037Z" opacity="0.2"></path>
<path fill="#A02222" d="M131.467 143.692H130.33V146.162H131.467V143.692Z" opacity="0.2"></path>
<path fill="#A02222" d="M94.9719 142.548H93.8347V145.017H94.9719V142.548Z" opacity="0.2"></path>
<path fill="#A02222" d="M92.6682 142.548H91.531V145.017H92.6682V142.548Z" opacity="0.2"></path>
<path fill="#A02222" d="M45.6699 145.396H44.5327V147.866H45.6699V145.396Z" opacity="0.2"></path>
<path fill="#A02222" d="M15.9715 149.801H14.8344V152.271H15.9715V149.801Z" opacity="0.2"></path>
<path fill="#A02222" d="M22.8238 149.639H21.6866V152.109H22.8238V149.639Z" opacity="0.2"></path>
<path fill="#A02222" d="M22.9858 113.906H21.8486V116.375H22.9858V113.906Z" opacity="0.2"></path>
<path fill="#A02222" d="M115.996 106.726H114.859V109.195H115.996V106.726Z" opacity="0.2"></path>
<path fill="#A02222" d="M316.785 123.084H315.648V125.553H316.785V123.084Z" opacity="0.2"></path>
<path fill="#A02222" d="M298.583 136.34H297.446V138.809H298.583V136.34Z" opacity="0.2"></path>
<path fill="#A02222" d="M278.512 130.628H277.375V133.098H278.512V130.628Z" opacity="0.2"></path>
<path fill="#A02222" d="M264.888 143.111H263.751V145.58H264.888V143.111Z" opacity="0.2"></path>
<path fill="#A02222" d="M370.948 147.681H369.811V150.151H370.948V147.681Z" opacity="0.2"></path>
<path fill="#A02222" d="M362.164 137.149H361.027V139.618H362.164V137.149Z" opacity="0.2"></path>
<path fill="#A02222" d="M356.997 136.421H355.86V138.89H356.997V136.421Z" opacity="0.2"></path>
<path fill="#A02222" d="M310.672 136.542H309.535V139.011H310.672V136.542Z" opacity="0.2"></path>
<path fill="#A02222" d="M304.619 143.52H303.481V145.989H304.619V143.52Z" opacity="0.2"></path>
<path fill="#A02222" d="M282.1 114.13H280.963V116.6H282.1V114.13Z" opacity="0.2"></path>
<path fill="#A02222" d="M356.136 122.793H354.999V125.263H356.136V122.793Z" opacity="0.2"></path>
<path fill="#A02222" d="M369.921 122.793H368.784V125.263H369.921V122.793Z" opacity="0.2"></path>
<path fill="#490B0B" d="M-3.20166 192.597C23.1955 179.47 54.0604 178.245 83.306 181.962C112.552 185.678 141.017 193.977 170.06 199.03C199.103 204.083 229.589 205.764 257.547 196.417C278.177 189.52 296.386 176.99 315.983 167.547C335.579 158.104 358.223 151.722 378.989 158.196C378.827 159.02 378.323 159.392 378.158 160.216V213.54C377.33 213.673 376.527 214.519 375.692 214.519H-3.07654C-2.91093 214.354 -3.23846 213.695 -3.07654 213.529L-3.20166 192.597Z"></path>
</g>
<defs>
<linearGradient gradientUnits="userSpaceOnUse" y2="212.337" x2="187.625" y1="21.9406" x1="187.625" id="paint0_linear_1580_2146">
<stop stop-color="#FFC4A4"></stop>
<stop stop-color="#DD7162" offset="1"></stop>
</linearGradient>
<linearGradient gradientUnits="userSpaceOnUse" y2="52.4891" x2="-25.3962" y1="52.4891" x1="265.864" id="paint1_linear_1580_2146">
<stop stop-color="white"></stop>
<stop stop-opacity="0" stop-color="white" offset="1"></stop>
</linearGradient>
<linearGradient gradientUnits="userSpaceOnUse" y2="107.3" x2="103.624" y1="255.14" x1="103.624" id="paint2_linear_1580_2146">
<stop stop-color="#FFA19C"></stop>
<stop stop-color="#DD7162" offset="1"></stop>
</linearGradient>
<linearGradient gradientUnits="userSpaceOnUse" y2="127.515" x2="275.454" y1="37.9048" x1="331.391" id="paint3_linear_1580_2146">
<stop stop-color="#DD7162"></stop>
<stop stop-color="#FFC4A4" offset="1"></stop>
</linearGradient>
<linearGradient gradientUnits="userSpaceOnUse" y2="37.8511" x2="180.691" y1="37.8511" x1="397.283" id="paint4_linear_1580_2146">
<stop stop-color="white"></stop>
<stop stop-opacity="0" stop-color="white" offset="1"></stop>
</linearGradient>
<linearGradient gradientUnits="userSpaceOnUse" y2="148.177" x2="103.611" y1="329.569" x1="103.611" id="paint5_linear_1580_2146">
<stop stop-color="#FFA19C"></stop>
<stop stop-color="#DD7162" offset="1"></stop>
</linearGradient>
<linearGradient gradientUnits="userSpaceOnUse" y2="114.443" x2="276.911" y1="262.252" x1="276.911" id="paint6_linear_1580_2146">
<stop stop-color="#FFA19C"></stop>
<stop stop-color="#DD7162" offset="1"></stop>
</linearGradient>
<linearGradient gradientUnits="userSpaceOnUse" y2="148.739" x2="276.92" y1="334.187" x1="276.92" id="paint7_linear_1580_2146">
<stop stop-color="#FFA19C"></stop>
<stop stop-color="#DD7162" offset="1"></stop>
</linearGradient>
<clipPath id="clip0_1580_2146">
<rect fill="white" height="211" width="375"></rect>
</clipPath>
</defs>
</svg>
