<svg viewBox="0 0 752 486" xmlns="http://www.w3.org/2000/svg" id="Layer_1"><defs><style>.cls-1,.cls-2,.cls-3,.cls-4{fill:none;}.cls-2{stroke:#ffc4a5;stroke-dasharray:0 0 5 11;}.cls-2,.cls-3,.cls-4{stroke-linecap:round;stroke-miterlimit:10;stroke-width:5px;}.cls-5{fill:#ffc4a5;}.cls-6{fill:#eef8f1;}.cls-7,.cls-8{fill:#c6edd3;}.cls-9{fill:#6db9a0;}.cls-10,.cls-11{fill:#5ba68d;}.cls-8{opacity:.57;}.cls-8,.cls-11{isolation:isolate;}.cls-11{opacity:.27;}.cls-3{stroke:#c6edd3;}.cls-3,.cls-4{stroke-dasharray:0 0 5 10;}.cls-4{stroke:#6db9a0;}</style></defs><g><rect height="486" width="752" x="0" class="cls-6"></rect><rect height="486" width="752" x="0" class="cls-1"></rect></g><g><g><path d="M257.32,199.63c-1.04-8.2,4.75-15.69,12.95-16.73l267.12-34.06c8.2-1.04,15.69,4.75,16.73,12.95l21.76,170.66c1.04,8.2-4.75,15.69-12.95,16.73l-267.12,34.06c-8.2,1.04-15.69-4.75-16.73-12.95l-21.76-170.66Z" class="cls-9"></path><path d="M309.91,252.43c-5.17,1.75-10.64,2.45-16.09,2.05-3.4-.25-6.64-1.49-9.33-3.58-2.69-2.09-4.71-4.92-5.79-8.15v-.05c-1.72-5.11-2.41-10.51-2.03-15.89v-.07c.23-3.42,1.47-6.69,3.57-9.41,2.1-2.71,4.96-4.74,8.21-5.83l.12-.02c5.04-1.68,10.37-2.36,15.67-2l.13-.02c3.42,.24,6.7,1.48,9.41,3.58,2.71,2.1,4.74,4.95,5.83,8.21v.07c1.73,5.11,2.42,10.51,2.03,15.89v.05c-.24,3.4-1.48,6.65-3.57,9.35-2.09,2.7-4.92,4.71-8.16,5.8Z" class="cls-5"></path><path d="M316.64,310.15c-19.98,6.54-31.9-2.59-30.77-23.63,.64-12.64,14.65-16.79,25.35-15.86,3.17,.19,6.21,1.32,8.73,3.25,2.52,1.93,4.41,4.57,5.42,7.58,3.62,10.16,3.16,24.82-8.9,28.68l.17-.02Z" class="cls-3"></path><rect transform="translate(-34.39 41.13) rotate(-7.27)" height="44.88" width="44.88" y="268.92" x="284.27" class="cls-1"></rect><path d="M365.56,245.34c-5.17,1.75-10.64,2.45-16.09,2.05-3.4-.25-6.64-1.49-9.34-3.58-2.69-2.09-4.71-4.92-5.79-8.15v-.05c-1.72-5.11-2.41-10.51-2.03-15.89v-.07c.23-3.42,1.47-6.69,3.57-9.41,2.1-2.71,4.96-4.74,8.21-5.83l.12-.02c5.04-1.68,10.37-2.36,15.67-2l.13-.02c3.42,.24,6.7,1.48,9.41,3.58,2.71,2.1,4.74,4.95,5.83,8.21v.07c1.73,5.11,2.42,10.51,2.03,15.89v.05c-.24,3.4-1.48,6.65-3.57,9.35-2.09,2.7-4.92,4.71-8.16,5.8Z" class="cls-5"></path><path d="M372.29,303.05c-19.98,6.54-31.9-2.59-30.77-23.63,.64-12.64,14.65-16.79,25.35-15.86,3.17,.19,6.21,1.32,8.73,3.25,2.52,1.93,4.41,4.57,5.42,7.58,3.62,10.16,3.16,24.82-8.9,28.68l.17-.02Z" class="cls-3"></path><rect transform="translate(-33.04 48.11) rotate(-7.27)" height="44.88" width="44.88" y="261.82" x="339.93" class="cls-1"></rect><path d="M421.21,238.25c-5.17,1.75-10.64,2.45-16.09,2.05-3.4-.25-6.64-1.49-9.34-3.58-2.69-2.09-4.71-4.92-5.79-8.15v-.05c-1.72-5.11-2.41-10.51-2.03-15.89v-.07c.23-3.42,1.47-6.69,3.57-9.41,2.1-2.71,4.96-4.74,8.21-5.83l.12-.02c5.04-1.68,10.37-2.36,15.67-2l.13-.02c3.42,.24,6.7,1.48,9.41,3.58,2.71,2.1,4.74,4.95,5.83,8.21v.07c1.73,5.11,2.42,10.51,2.03,15.89v.05c-.24,3.4-1.48,6.65-3.57,9.35-2.09,2.7-4.92,4.71-8.16,5.8Z" class="cls-5"></path><path d="M427.94,295.96c-19.98,6.54-31.9-2.59-30.77-23.63,.64-12.64,14.65-16.79,25.35-15.86,3.17,.19,6.21,1.32,8.73,3.25,2.52,1.93,4.41,4.57,5.42,7.58,3.62,10.16,3.16,24.82-8.9,28.68l.17-.02Z" class="cls-3"></path><rect transform="translate(-31.7 55.09) rotate(-7.27)" height="44.88" width="44.88" y="254.73" x="395.58" class="cls-1"></rect><path d="M476.02,229.5c-19.98,6.54-31.9-2.59-30.77-23.63,.64-12.64,14.65-16.79,25.35-15.86,3.17,.19,6.21,1.32,8.73,3.25,2.52,1.93,4.41,4.57,5.42,7.58,3.62,10.16,3.16,24.82-8.9,28.68l.17-.02Z" class="cls-2"></path><rect transform="translate(-22.91 60.64) rotate(-7.27)" height="44.88" width="44.88" y="188.27" x="443.66" class="cls-1"></rect><path d="M483.59,288.86c-19.98,6.54-31.9-2.59-30.77-23.63,.64-12.64,14.65-16.79,25.35-15.86,3.17,.19,6.21,1.32,8.73,3.25,2.52,1.93,4.41,4.57,5.42,7.58,3.62,10.16,3.16,24.82-8.9,28.68l.17-.02Z" class="cls-3"></path><rect transform="translate(-30.35 62.07) rotate(-7.27)" height="44.88" width="44.88" y="247.63" x="451.23" class="cls-1"></rect><path d="M531.67,222.41c-19.98,6.54-31.9-2.59-30.77-23.63,.64-12.64,14.65-16.79,25.35-15.86,3.17,.19,6.21,1.32,8.73,3.25,2.52,1.93,4.41,4.57,5.42,7.58,3.62,10.16,3.16,24.82-8.9,28.68l.17-.02Z" class="cls-3"></path><rect transform="translate(-21.56 67.62) rotate(-7.27)" height="44.88" width="44.88" y="181.17" x="499.31" class="cls-1"></rect><path d="M539.24,281.76c-19.98,6.54-31.9-2.59-30.77-23.63,.64-12.64,14.65-16.79,25.35-15.86,3.17,.19,6.21,1.32,8.73,3.25,2.52,1.93,4.41,4.57,5.42,7.58,3.62,10.16,3.16,24.82-8.9,28.68l.17-.02Z" class="cls-3"></path><rect transform="translate(-39.49 52.25) rotate(-7.27)" ry="2.88" rx="2.88" height="14.96" width="194.48" y="329.6" x="294.48" class="cls-8"></rect><path d="M502.1,153.34l-231.84,29.56c-8.2,1.04-13.99,8.54-12.95,16.73l8.62,67.64,247.65,18.22-11.48-132.15Z" class="cls-10"></path></g><g><path d="M176.53,192.44c-2.18-7.97,2.52-16.2,10.49-18.37L446.81,103.17c7.97-2.18,16.2,2.52,18.37,10.49l45.3,165.97c2.18,7.97-2.52,16.2-10.49,18.37l-259.78,70.9c-7.97,2.18-16.2-2.52-18.37-10.49l-45.3-165.97Z" class="cls-7"></path><path d="M235.96,237.41c-4.88,2.45-10.2,3.9-15.65,4.27-3.4,.23-6.79-.55-9.74-2.25-2.95-1.69-5.34-4.22-6.87-7.26v-.05c-2.42-4.82-3.86-10.08-4.23-15.45l-.02-.07c-.24-3.42,.54-6.83,2.24-9.81,1.7-2.98,4.25-5.38,7.32-6.91l.12-.03c4.76-2.36,9.94-3.77,15.24-4.16l.12-.03c3.42-.24,6.84,.53,9.82,2.23,2.98,1.7,5.38,4.25,6.91,7.31l.02,.07c2.41,4.82,3.85,10.07,4.22,15.45v.05c.24,3.4-.53,6.79-2.23,9.75-1.69,2.96-4.22,5.35-7.27,6.88Z" class="cls-9"></path><path d="M250.66,293.63c-18.88,9.26-31.95,1.87-33.76-19.11-1.12-12.61,12.17-18.66,22.9-19.24,3.16-.26,6.33,.44,9.1,2,2.77,1.56,5,3.91,6.42,6.75,5,9.55,6.59,24.14-4.82,29.64l.17-.05Z" class="cls-4"></path><path d="M290.09,222.64c-4.88,2.45-10.2,3.9-15.65,4.27-3.4,.23-6.79-.55-9.74-2.25-2.95-1.69-5.34-4.22-6.87-7.26v-.05c-2.42-4.82-3.86-10.08-4.23-15.45l-.02-.07c-.24-3.42,.54-6.83,2.24-9.81,1.7-2.98,4.25-5.38,7.32-6.91l.12-.03c4.76-2.36,9.94-3.77,15.24-4.16l.12-.03c3.42-.24,6.84,.53,9.82,2.23,2.98,1.7,5.38,4.25,6.91,7.31l.02,.07c2.41,4.82,3.85,10.07,4.22,15.45v.05c.24,3.4-.53,6.79-2.23,9.75-1.69,2.96-4.22,5.35-7.27,6.88Z" class="cls-9"></path><path d="M304.78,278.85c-18.88,9.26-31.96,1.87-33.76-19.11-1.12-12.61,12.17-18.66,22.9-19.24,3.16-.26,6.33,.44,9.1,2,2.77,1.56,5,3.91,6.42,6.75,5,9.55,6.59,24.14-4.82,29.64l.17-.05Z" class="cls-4"></path><path d="M344.2,207.87c-4.88,2.45-10.2,3.9-15.65,4.27-3.4,.23-6.79-.55-9.74-2.25-2.95-1.69-5.34-4.22-6.87-7.26v-.05c-2.42-4.82-3.86-10.08-4.23-15.45l-.02-.07c-.24-3.42,.54-6.83,2.24-9.81,1.7-2.98,4.25-5.38,7.32-6.91l.12-.03c4.76-2.36,9.94-3.77,15.24-4.16l.12-.03c3.42-.24,6.84,.53,9.82,2.23,2.98,1.7,5.38,4.25,6.91,7.31l.02,.07c2.41,4.82,3.85,10.07,4.22,15.45v.05c.24,3.4-.53,6.79-2.23,9.75-1.69,2.96-4.22,5.35-7.27,6.88Z" class="cls-9"></path><path d="M358.9,264.09c-18.88,9.26-31.96,1.87-33.76-19.11-1.12-12.61,12.17-18.66,22.9-19.24,3.16-.26,6.33,.44,9.1,2,2.77,1.56,5,3.91,6.42,6.75,5,9.55,6.59,24.14-4.82,29.64l.17-.05Z" class="cls-4"></path><path d="M397.26,191.58c-18.88,9.26-31.95,1.87-33.76-19.11-1.12-12.61,12.17-18.66,22.9-19.24,3.16-.26,6.33,.44,9.1,2,2.77,1.56,5,3.91,6.42,6.75,5,9.55,6.59,24.14-4.82,29.64l.17-.05Z" class="cls-4"></path><path d="M413.02,249.32c-18.88,9.26-31.96,1.87-33.76-19.11-1.12-12.61,12.17-18.66,22.9-19.24,3.16-.26,6.33,.44,9.1,2,2.77,1.56,5,3.91,6.42,6.75,5,9.55,6.59,24.14-4.82,29.64l.17-.05Z" class="cls-4"></path><path d="M451.39,176.81c-18.88,9.26-31.95,1.87-33.76-19.11-1.12-12.61,12.17-18.66,22.9-19.24,3.16-.26,6.33,.44,9.1,2,2.77,1.56,5,3.91,6.42,6.75,5,9.55,6.59,24.14-4.82,29.64l.17-.05Z" class="cls-4"></path><path d="M467.14,234.54c-18.88,9.26-31.96,1.87-33.76-19.11-1.12-12.61,12.17-18.66,22.9-19.24,3.16-.26,6.33,.44,9.1,2,2.77,1.56,5,3.91,6.42,6.75,5,9.55,6.59,24.14-4.82,29.64l.17-.05Z" class="cls-4"></path><rect transform="translate(-69.98 97.49) rotate(-15.27)" ry="2.88" rx="2.88" height="14.96" width="194.48" y="302.36" x="231.52" class="cls-11"></rect></g></g></svg>